<?xml version="1.0" encoding="UTF-8"?>
<svg width="220px" height="220px" viewBox="0 0 220 220" version="1.1" xmlns="http://www.w3.org/2000/svg" xmlns:xlink="http://www.w3.org/1999/xlink">
    <title>upgrade-logo</title>
    <g id="upgrade-logo" stroke="none" stroke-width="1" fill="none" fill-rule="evenodd">
        <rect fill="#FFFFFF" x="0" y="0" width="220" height="220"></rect>
        <g id="logo_vertical_green_stripes" transform="translate(50.000000, 64.000000)" fill="#00A668">
            <path d="M10.8711664,69.5772143 L10.8711664,77.7832328 C10.8711664,81.6777854 9.99692228,82.6720515 7.71665823,82.7275177 C5.43708931,82.6720515 4.55705244,81.6777854 4.55705244,77.7832328 L4.55705244,69.5772143 L0,69.5772143 L0,78.5941395 C0,83.7676236 3.33223019,86.308755 7.71665823,86.308755 C12.101318,86.308755 15.4333165,83.7676236 15.4333165,78.5941395 L15.4333165,69.5772143 L10.8711664,69.5772143 Z M78.7892517,77.8480962 L78.7892517,77.5978106 C78.7892517,74.3415778 77.3334139,72.6821757 74.8327931,72.6821757 C72.269147,72.6821757 70.8445902,74.40392 70.8445902,77.660382 L70.8445902,77.9106675 C70.8445902,81.1669004 72.4271736,82.7637311 74.7062791,82.7637311 C77.1116669,82.7637311 78.7892517,81.1669004 78.7892517,77.8480962 Z M66.1598652,78.0046392 L66.1598652,77.7541245 C66.1598652,72.3688604 69.2935194,69.2065992 73.4399807,69.2065992 C76.0988598,69.2065992 77.7447002,70.3652011 78.662506,72.024374 L78.662506,69.5203729 L83.2207169,69.5203729 L83.2207169,85.9571634 L78.662506,85.9571634 L78.662506,83.2333603 C77.8079572,84.8927624 75.7823431,86.3014206 73.3449793,86.3014206 C69.325032,86.3014206 66.1598652,83.4524747 66.1598652,78.0046392 Z M114.888142,76.0007507 C114.730115,73.5274623 113.464048,72.3376893 111.279944,72.3376893 C109.222586,72.3376893 107.829773,73.6840053 107.481512,76.0007507 L114.888142,76.0007507 Z M102.765506,77.9732389 L102.765506,77.7229534 C102.765506,72.5570329 106.468705,69.2065992 111.279944,69.2065992 C115.552919,69.2065992 119.351351,71.6801168 119.351351,77.5350101 L119.351351,78.7873544 L107.418255,78.7873544 C107.545001,81.5111576 109.032583,83.076588 111.533204,83.076588 C113.653819,83.076588 114.698371,82.16873 114.983143,80.7912429 L119.319607,80.7912429 C118.781575,84.3291616 115.932925,86.3014206 111.406458,86.3014206 C106.405448,86.3014206 102.765506,83.20196 102.765506,77.9732389 Z M97.1043529,77.8480962 L97.1043529,77.5978106 C97.1043529,74.3415778 95.6487469,72.6821757 93.148126,72.6821757 C90.5842482,72.6821757 89.1599231,74.40392 89.1599231,77.660382 L89.1599231,77.9106675 C89.1599231,81.1669004 90.7425066,82.7637311 93.0213803,82.7637311 C95.4269998,82.7637311 97.1043529,81.1669004 97.1043529,77.8480962 Z M84.4751982,78.0046392 L84.4751982,77.7541245 C84.4751982,72.3688604 87.6088524,69.2065992 91.7553136,69.2065992 C94.4141928,69.2065992 96.0600332,70.3652011 96.9778389,72.024374 L96.9778389,62.1621622 L101.53605,62.1621622 L101.53605,85.9571634 L96.9778389,85.9571634 L96.9778389,83.2333603 C96.1232902,84.8927624 94.0976761,86.3014206 91.6603123,86.3014206 C87.640365,86.3014206 84.4751982,83.4524747 84.4751982,78.0046392 Z M55.7688032,69.5822567 L60.3582951,69.5822567 L60.3582951,72.7133468 C61.4028465,70.5217441 63.0171743,69.3633714 65.7075661,69.3319711 L65.7075661,73.5588626 C62.3208839,73.5274623 60.3582951,74.6232636 60.3582951,77.7541245 L60.3582951,85.9571634 L55.7688032,85.9571634 L55.7688032,69.5822567 Z M48.8749493,77.3470667 L48.8749493,77.1279523 C48.8749493,74.3415778 47.3873672,72.6507754 44.8867464,72.6507754 C42.3228686,72.6507754 40.8985435,74.4667205 40.8985435,77.1593526 L40.8985435,77.4096381 C40.8985435,80.1336705 42.5128713,81.8242437 44.7919768,81.8242437 C47.1973645,81.8242437 48.8749493,80.1336705 48.8749493,77.3470667 Z M36.3405642,86.3014206 L40.8985435,86.3014206 C41.1833158,87.7419375 42.2278672,88.6809666 44.5704614,88.6809666 C47.3556229,88.6809666 48.7484353,87.2409081 48.7484353,84.6734188 L48.7484353,82.2001303 C47.8306296,83.7969611 45.8678091,85.2372488 43.4309087,85.2372488 C39.4109614,85.2372488 36.2140502,82.2624725 36.2140502,77.4096381 L36.2140502,77.1905237 C36.2140502,72.4940031 39.3792171,69.2065992 43.4941657,69.2065992 C46.1845575,69.2065992 47.7988853,70.3652011 48.7484353,72.024374 L48.7484353,69.5822567 L53.3064146,69.5822567 L53.3064146,84.6734188 C53.2746703,89.5264824 50.0145021,92 44.5704614,92 C39.2209587,92 36.7838266,89.6827962 36.3405642,86.3014206 Z M30.3316131,77.8792673 L30.3316131,77.6292109 C30.3316131,74.3101775 28.6857727,72.6821757 26.3749229,72.6821757 C23.9693034,72.6821757 22.323463,74.3415778 22.323463,77.6292109 L22.323463,77.8792673 C22.323463,81.1669004 23.9060464,82.7637311 26.4066672,82.7637311 C28.9390324,82.7637311 30.3316131,81.0729287 30.3316131,77.8792673 Z M17.8922294,69.5822567 L22.4817213,69.5822567 L22.4817213,72.149746 C23.3997587,70.5843155 25.3303715,69.2065992 27.7677353,69.2065992 C31.8191952,69.2065992 34.9845938,72.1811462 34.9845938,77.5978106 L34.9845938,77.8480962 C34.9845938,83.2645314 31.8826839,86.3014206 27.7677353,86.3014206 C25.2038575,86.3014206 23.3365017,85.0493054 22.4817213,83.4524747 L22.4817213,91.5303709 L17.8922294,91.5303709 L17.8922294,69.5822567 L17.8922294,69.5822567 Z" id="Fill-1"></path>
            <path d="M43.2928144,38.6673451 C44.0300309,38.2621209 44.7858289,37.764294 45.456617,37.2720371 C45.4647463,37.2662349 45.4726434,37.2599686 45.4807728,37.2539343 C45.714666,37.0819577 45.9392685,36.9104453 46.1471478,36.744503 L41.2532748,36.744503 C41.6945827,37.3822785 42.1751439,38.0049683 42.6963518,38.6097875 L42.6954227,38.6104837 L42.7864715,38.7181722 C42.8610294,38.8063653 42.9873828,38.8318949 43.0891159,38.7775865 C43.1497377,38.7450943 43.210824,38.7119058 43.271678,38.6784853 L43.2737684,38.6784853 C43.2800397,38.675004 43.2863109,38.6710585 43.2928144,38.6673451 Z M52.2274425,29.0088059 L37.8554357,29.0088059 C38.0022287,29.6556328 38.1792164,30.3010672 38.3866312,30.9427882 L51.2101115,30.9427882 C51.5819715,30.3166171 51.9213141,29.6711827 52.2274425,29.0088059 Z M53.5829547,25.1410734 L37.3251694,25.1410734 C37.3565255,25.7823303 37.4150568,26.4277647 37.5035507,27.0750557 L53.0090221,27.0750557 C53.2292115,26.4414578 53.4222257,25.7969518 53.5829547,25.1410734 Z M49.9156855,32.8767705 L39.1117698,32.8767705 C39.3918842,33.5296317 39.7047484,34.1752982 40.0540785,34.8107528 L48.2686778,34.8107528 C48.8567787,34.1973464 49.4072523,33.5521441 49.9156855,32.8767705 Z M54.1596745,21.2731089 L37.2972973,21.2731089 L37.2972973,23.2070912 L53.9606214,23.2070912 C54.0556188,22.5695477 54.1220472,21.9243454 54.1596745,21.2731089 Z M37.2972973,7.73569705 L54.1984632,7.73569705 L54.1984632,5.80171477 L37.2972973,5.80171477 L37.2972973,7.73569705 Z M37.2972973,11.6034295 L54.1984632,11.6034295 L54.1984632,9.66967934 L37.2972973,9.66967934 L37.2972973,11.6034295 Z M37.2972973,19.3393587 L54.1984632,19.3393587 L54.1984632,17.4053764 L37.2972973,17.4053764 L37.2972973,19.3393587 Z M37.2972973,15.4713941 L54.1984632,15.4713941 L54.1984632,13.5374118 L37.2972973,13.5374118 L37.2972973,15.4713941 Z M82.0540541,0 L82.0540541,24.0532809 C82.0540541,36.4028707 72.0347374,46.4144144 59.6755595,46.4144144 C53.7271927,46.4144144 48.3223315,44.0933107 44.3143262,40.3102901 C49.7995519,37.1984655 53.7030369,32.0946368 55.3128819,26.1724688 C55.8461678,24.2596064 56.1337147,22.2443936 56.1337147,20.1616435 L56.1337147,0 L82.0540541,0 L82.0540541,0 Z" id="Fill-2"></path>
        </g>
    </g>
</svg>