<?xml version="1.0" encoding="UTF-8"?>
<svg width="276px" height="70px" viewBox="0 0 276 70" version="1.1" xmlns="http://www.w3.org/2000/svg" xmlns:xlink="http://www.w3.org/1999/xlink">
    <title>chard-snyder-logo</title>
    <g id="chard-snyder-logo" stroke="none" stroke-width="1" fill="none" fill-rule="evenodd">
        <g id="group" transform="translate(68, 1)" fill-rule="nonzero">
            <path d="M23.7252062,53.3583333 C20.5922177,53.3583333 18.2541667,50.8918258 18.2541667,47.7550716 C18.2541667,44.6183174 20.5454567,42.125 23.8000238,42.125 C25.7826911,42.125 26.9797732,42.8220565 28.0085157,43.8140215 L26.7927291,45.2260077 C25.9323264,44.4217117 25.0064581,43.8765778 23.7813194,43.8765778 C21.7238344,43.8765778 20.2274818,45.5834726 20.2274818,47.7282617 C20.2274818,49.8730509 21.7144822,51.6067555 23.7813194,51.6067555 C25.0999802,51.6067555 25.9510308,51.0616216 26.8675468,50.1947693 L28.0833333,51.4369597 C26.9610688,52.6165937 25.7265779,53.3583333 23.7158539,53.3583333" id="Path" fill="#000000"></path>
            <polygon id="Path" fill="#000000" points="31.2732817 48.6192708 31.2732817 53.3583333 29.4875 53.3583333 29.4875 42.125 31.2732817 42.125 31.2732817 46.790159 36.1267183 46.790159 36.1267183 42.125 37.9125 42.125 37.9125 53.3583333 36.1267183 53.3583333 36.1267183 48.6192708"></polygon>
            <path d="M50.55,53.3583333 L48.5467222,53.3583333 L47.4514722,50.6693083 L42.3590278,50.6693083 L41.2544167,53.3583333 L39.3166667,53.3583333 L44.0533889,42.125 L45.8039167,42.125 L50.5406389,53.3583333 L50.55,53.3583333 Z M44.90525,44.4652778 L43.0611111,48.9255719 L46.7681111,48.9255719 L44.90525,44.4652778 Z" id="Shape" fill="#000000"></path>
            <path d="M58.3247097,53.3583333 L55.881805,49.4414474 L53.6978654,49.4414474 L53.6978654,53.3583333 L51.9541667,53.3583333 L51.9541667,42.125 L56.382471,42.125 C58.6699966,42.125 60.0684085,43.4922149 60.0684085,45.6816064 C60.0684085,47.538432 59.092973,48.6654605 57.6945611,49.0996436 L60.3791667,53.3490954 L58.3247097,53.3490954 L58.3247097,53.3583333 Z M56.235724,43.926398 L53.6978654,43.926398 L53.6978654,47.695477 L56.2529884,47.695477 C57.5046533,47.695477 58.2988132,46.9564419 58.2988132,45.8016996 C58.2988132,44.5638158 57.5305499,43.926398 56.2443562,43.926398" id="Shape" fill="#000000"></path>
            <path d="M65.8339697,53.3583333 L61.7833333,53.3583333 L61.7833333,42.125 L65.8339697,42.125 C69.2519893,42.125 71.6125,44.5453399 71.6125,47.7231908 C71.6125,50.9010417 69.2519893,53.3583333 65.8339697,53.3583333 M65.8339697,43.926398 L63.690626,43.926398 L63.690626,51.5661732 L65.8339697,51.5661732 C68.1189441,51.5661732 69.6107869,49.9772478 69.6107869,47.7601425 C69.6107869,45.5430373 68.1189441,43.926398 65.8339697,43.926398" id="Shape" fill="#000000"></path>
            <path d="M74.4208333,51.6328933 L75.0797992,50.72524 C76.0560448,51.7587067 76.9916136,52.2709467 78.2932744,52.2709467 C79.5949353,52.2709467 80.3759318,51.4891067 80.3759318,50.4107067 L80.3759318,50.37476 C80.3759318,49.3592667 79.9040798,48.78412 77.9434531,48.29884 C75.7875772,47.7506533 74.8031962,46.9418533 74.8031962,45.14452 L74.8031962,45.1085733 C74.8031962,43.39212 76.1048571,42.125 77.87837,42.125 C79.2451139,42.125 80.2213596,42.5743333 81.1650637,43.4640133 L80.5467748,44.4166 C79.6762891,43.5898267 78.8058034,43.23036 77.8458285,43.23036 C76.6255214,43.23036 75.8526603,44.0122 75.8526603,44.9917467 L75.8526603,45.0187067 C75.8526603,46.0521733 76.3326477,46.62732 78.390899,47.13956 C80.4735564,47.6697733 81.4416667,48.5594533 81.4416667,50.2309733 L81.4416667,50.26692 C81.4416667,52.1361467 80.1074643,53.3583333 78.2444621,53.3583333 C76.7638229,53.3583333 75.5435158,52.7831867 74.4208333,51.6059333" id="Path" fill="#000000"></path>
            <polygon id="Path" fill="#000000" points="84.25 42.125 85.3052875 42.125 91.576463 51.1227522 91.576463 42.125 92.675 42.125 92.675 53.3583333 91.7754107 53.3583333 85.348537 44.1481086 85.348537 53.3583333 84.25 53.3583333"></polygon>
            <polygon id="Path" fill="#000000" points="98.3974954 48.9148849 94.0791667 42.125 95.506564 42.125 99.0118183 47.7416667 102.544175 42.125 103.908333 42.125 99.5900046 48.896409 99.5900046 53.3583333 98.3974954 53.3583333"></polygon>
            <path d="M105.3125,42.125 L108.64254,42.125 C111.656225,42.125 113.7375,44.5453399 113.7375,47.7047149 L113.7375,47.7416667 C113.7375,50.9010417 111.656225,53.3583333 108.64254,53.3583333 L105.3125,53.3583333 L105.3125,42.1342379 L105.3125,42.125 Z M108.64254,52.1851151 C111.065143,52.1851151 112.613612,50.2636239 112.613612,47.7693805 L112.613612,47.7416667 C112.613612,45.2566612 111.065143,43.2982182 108.64254,43.2982182 L106.394763,43.2982182 L106.394763,52.1851151 L108.64254,52.1851151 L108.64254,52.1851151 Z" id="Shape" fill="#000000"></path>
            <polygon id="Path" fill="#000000" points="116.545833 42.125 123.491443 42.125 123.491443 43.2797423 117.624033 43.2797423 117.624033 47.1134868 122.8813 47.1134868 122.8813 48.2682292 117.624033 48.2682292 117.624033 52.203591 123.566667 52.203591 123.566667 53.3583333 116.545833 53.3583333"></polygon>
            <path d="M126.375,42.125 L130.751049,42.125 C131.99756,42.125 133.005378,42.5407072 133.641894,43.2520285 C134.136962,43.7970669 134.428699,44.5822917 134.428699,45.4691338 L134.428699,45.4968476 C134.428699,47.3536732 133.261752,48.4529879 131.670462,48.7670779 L134.8,53.3583333 L133.385519,53.3583333 L130.432791,48.9980263 L127.524265,48.9980263 L127.524265,53.3583333 L126.375,53.3583333 L126.375,42.1342379 L126.375,42.125 Z M130.644963,47.8525219 C132.17437,47.8525219 133.261752,46.9841557 133.261752,45.5430373 L133.261752,45.5153235 C133.261752,44.1388706 132.306978,43.2982182 130.662644,43.2982182 L127.524265,43.2982182 L127.524265,47.8525219 L130.644963,47.8525219 Z" id="Shape" fill="#000000"></path>
            <path d="M24.8044884,5.78714058 L35.8567747,11.771672 C43.3039105,4.45026624 49.1458333,0 49.1458333,0 C49.1458333,0 42.0758787,2.41355165 34.8480343,2.98777955 C27.6289616,3.56200745 21.6993222,2.62888711 21.6993222,2.62888711 C21.6993222,2.62888711 22.3045665,8.55061235 20.9625031,17.0743078 C19.3222035,27.4552716 14.0416667,39.3166667 14.0416667,39.3166667 C14.0416667,39.3166667 19.1730853,29.7162939 29.4096077,18.4829606 C30.9446475,16.7961661 32.4533723,15.2080671 33.9270105,13.7186635 L24.81326,5.79611289 L24.8044884,5.78714058 Z" id="Path" fill="#8BB754"></path>
            <path d="M48.3694827,14.4615419 C48.7494899,8.6462985 50.55,1.40416667 50.55,1.40416667 C50.55,1.40416667 44.7865581,6.15148729 37.4578486,13.4025933 L44.9313227,23.8036227 L35.4763827,15.3858784 C33.7301593,17.1537842 31.9206014,19.0563021 30.1019957,21.0485614 C22.9270986,28.8919607 17.7065241,35.84692 15.1459996,39.409654 C13.3907285,41.6890859 8.77635583,48.2761054 7.56395203,55.6528494 C3.23006086,57.411781 1.06763916,59.5027559 0,61.9885929 L0.913826741,63.074464 C2.03575264,60.6963166 3.60102023,58.5156004 7.48252193,56.7925653 C7.41013961,57.3399879 7.36490066,57.7258759 7.33775729,58.2822727 C7.20204045,61.3514289 8.45968319,64.0616195 10.8121085,65.9910599 C12.0064167,66.9692412 13.5535887,67.3910259 14.874566,67.4 C15.3179076,67.4 15.7612493,67.3551293 16.204591,67.2474396 C18.9279757,66.6013014 20.6561035,64.2321282 20.6199123,61.2168168 C20.5837211,58.2732985 18.7922588,55.7784873 14.7569447,54.9259439 C13.1554859,54.5849266 11.5359316,54.6926163 9.97066404,55.0695302 L9.50922678,56.0566857 C11.1830678,55.5182372 12.9292912,55.2131164 14.6121801,55.5720821 C18.2855826,56.3528324 19.7513245,58.4258589 19.7875157,61.100153 C19.8237068,63.7923953 18.312726,65.7846546 15.860775,66.1166978 C13.8340702,66.3948962 12.4407106,66.000034 11.4454537,65.1833872 C11.2825935,65.048775 11.1287811,64.9231371 10.9840165,64.7795508 C10.7759173,64.6180163 10.5859137,64.4475076 10.4049579,64.2769989 C5.94439771,59.4399369 9.30112762,51.2285978 11.1921156,47.5222776 C11.2916413,47.3248465 11.391167,47.1274154 11.4997405,46.9389584 C11.4997405,46.9389584 11.4997405,46.9389584 11.4997405,46.9389584 C13.2459638,43.7172418 15.3360032,41.0249994 16.9555575,39.3019644 L16.9555575,39.3019644 C16.9555575,39.3019644 28.4010113,26.2445891 48.3875783,27.0432877 C48.315196,25.9484425 47.9894756,20.0973025 48.3604349,14.4525678" id="Path" fill="#50ADBB"></path>
            <path d="M135.718014,42.4326266 L134.8,42.4326266 L134.8,42.125 L136.951904,42.125 L136.951904,42.4326266 L136.03389,42.4326266 L136.03389,44.9234099 L135.718014,44.9234099 L135.718014,42.4326266 Z M137.583656,42.125 L137.919274,42.125 L139.005097,43.7921378 L140.09092,42.125 L140.416667,42.125 L140.416667,44.9333333 L140.100791,44.9333333 L140.100791,42.690636 L139.024839,44.3081567 L138.975483,44.3081567 L137.899531,42.690636 L137.899531,44.9333333 L137.583656,44.9333333 L137.583656,42.125 Z" id="Shape" fill="#000000"></path>
        </g>
    </g>
</svg>