<?xml version="1.0" encoding="UTF-8"?>
<svg width="276px" height="70px" viewBox="0 0 276 70" version="1.1" xmlns="http://www.w3.org/2000/svg" xmlns:xlink="http://www.w3.org/1999/xlink">
    <title>i-see-me-logo</title>
    <g id="i-see-me-logo" stroke="none" stroke-width="1" fill="none" fill-rule="evenodd">
        <g id="group" transform="translate(59, 19)" fill="#F26446" fill-rule="nonzero">
            <path d="M3.39415851,7.96445146 C2.80531667,8.04875666 2.20905862,7.88724246 1.72417661,7.51211466 C1.23929459,7.13698686 0.901386433,6.57578112 0.777766452,5.94027763 C0.654148685,5.30481053 0.753898973,4.64169255 1.05714353,4.08305842 C1.36038918,3.52443035 1.84486718,3.11129243 2.41405605,2.9259605 C3.00289789,2.8416553 3.59916147,3.00315737 4.08404349,3.3782791 C4.5689255,3.7534069 4.90683366,4.31461871 5.03045198,4.95011007 C5.1540703,5.58560749 5.05432223,6.24874974 4.75107657,6.80734748 C4.44783091,7.36600587 3.96335291,7.77910133 3.39415851,7.96445146 Z" id="Path"></path>
            <path d="M155.527669,5.56105715 L156.1949,5.56105715 C156.614816,5.56105715 156.8992,5.47454967 156.8992,5.02966648 C156.8992,4.58478329 156.553421,4.53535376 156.1949,4.53535376 L155.527669,4.53535376 L155.527669,5.56105715 Z M154.971643,4.10282795 L156.2812,4.10282795 C157.059637,4.10282795 157.455226,4.41177413 157.455226,5.05438124 C157.467389,5.17608696 157.454067,5.29900521 157.415261,5.41502537 C157.376455,5.53104554 157.313323,5.63752789 157.230499,5.7274525 C157.147674,5.81737712 157.046894,5.88869605 156.933951,5.93669839 C156.821588,5.98467752 156.699957,6.00828999 156.577747,6.00596935 L157.505036,7.55070023 L156.911363,7.55070023 L155.960327,6.05539888 L155.527669,6.05539888 L155.527669,7.55070023 L154.971643,7.55070023 L154.971643,4.10282795 Z M156.095858,8.27978583 C156.413836,8.276769 156.728338,8.20981867 157.019672,8.08299595 C157.311586,7.95611522 157.57454,7.77197281 157.793475,7.54141769 C158.01241,7.31080456 158.183272,7.03859404 158.294478,6.74085653 C158.406262,6.44311902 158.457231,6.1259462 158.44391,5.80821641 C158.467656,5.48471985 158.424217,5.15985412 158.316487,4.85390736 C158.208757,4.54795481 158.039053,4.26748282 157.81838,4.02998901 C157.597128,3.79249519 157.329541,3.60307334 157.032414,3.47355288 C156.735288,3.34402662 156.414415,3.27718072 156.090066,3.27718072 C155.765718,3.27718072 155.444844,3.34402662 155.147139,3.47355288 C154.850012,3.60307334 154.582425,3.79249519 154.361752,4.02998901 C154.1405,4.26748282 153.970796,4.54795481 153.863066,4.85390736 C153.755916,5.15985412 153.712476,5.48471985 153.735644,5.80821641 C153.722322,6.12699048 153.773291,6.44514958 153.886234,6.74369931 C153.998598,7.04224904 154.170039,7.31509774 154.390133,7.5458269 C154.610805,7.77655606 154.875497,7.96046641 155.168569,8.08659294 C155.461641,8.21271947 155.776722,8.27839345 156.095858,8.27978583 Z M156.095858,2.90410959 C156.670418,2.90410959 157.231657,3.07443262 157.709492,3.39353737 C158.186747,3.71264793 158.559169,4.1662045 158.779263,4.69686417 C158.998777,5.22751804 159.056117,5.8114363 158.944333,6.37477631 C158.831969,6.93811053 158.555694,7.45555419 158.149679,7.86172338 C157.743085,8.26789257 157.225865,8.54445428 156.66231,8.65654097 C156.099333,8.76856964 155.515506,8.7110759 154.984385,8.49125372 C154.453844,8.27143154 154.000335,7.89920164 153.6812,7.42167291 C153.362064,6.94408617 153.191781,6.38260846 153.191781,5.80821641 C153.195256,5.03900123 153.502229,4.30221693 154.046092,3.75829483 C154.589954,3.21437273 155.326689,2.90736428 156.095858,2.90410959 Z" id="Shape"></path>
            <path d="M56.4064133,18.2121655 C56.2452207,15.3194537 54.8933069,11.5880746 51.6066166,11.5273057 C48.3199264,11.4665368 46.80682,15.2465311 46.2487203,18.0177052 L56.4064133,18.2121655 Z M46.0254456,19.3182158 C45.5541911,23.316978 46.5339609,29.4913223 52.4003726,29.7100902 C55.0545577,29.8194742 57.0265369,28.0328126 58.6018998,25.8329229 L59.2343469,26.5135341 C57.5846366,29.3211695 54.8933069,31.2901947 51.7926886,31.217215 C46.4843766,31.1199848 42.7263738,26.3555351 42.8380402,20.7038029 C42.9496485,15.4288377 46.4347342,10.0566423 51.7306646,10.1660262 C56.4684373,10.2632564 59.6313702,14.7360727 59.5319691,19.5977526 L46.0254456,19.3182158 Z" id="Shape"></path>
            <path d="M75.0986481,17.4103726 C74.4418302,14.5588562 72.530171,11.0953936 69.4000669,11.5971998 C66.2699629,12.0989486 65.4815574,16.1008732 65.433402,18.9401519 L75.0986481,17.4103726 Z M65.433402,20.2863645 C65.6724994,24.3250025 67.6558318,30.2850286 73.2586621,29.501811 C75.8036215,29.1346203 77.3569146,27.0541412 78.4202541,24.6064713 L79.1369863,25.1694664 C78.0495691,28.229025 75.8394581,30.6521618 72.8767782,31.1172547 C67.8350149,31.9249479 63.4500695,27.8373588 62.5899908,22.2199904 C61.7898265,16.9820505 64.1791206,11.0586803 69.2208839,10.2509871 C73.7368569,9.52890099 77.5002611,13.4206857 78.2287522,18.2548365 L65.433402,20.2863645 Z" id="Shape"></path>
            <path d="M40.6575342,12.3725162 L39.548673,12.6969701 C38.3165794,9.65713283 36.0617833,6.14866507 32.4887347,5.55991553 C31.8605032,5.44479984 31.2149476,5.45435521 30.5905851,5.58801757 C29.9662805,5.72167429 29.3759889,5.97667969 28.8549939,6.33785462 C28.3339989,6.69897313 27.8929837,7.15880415 27.5583388,7.68987738 C27.223694,8.22100702 27.0022913,8.81237948 26.9072972,9.42879672 C26.3898248,12.4686904 29.470059,14.2349108 31.8356719,15.3523362 C36.1110993,17.4429541 40.5220016,19.377437 39.5733311,24.9645079 C38.8093937,29.4221386 34.7311152,31.8131809 30.2955548,31.0922412 C28.0408165,30.7197849 26.2788925,29.3981092 24.84965,29.1698295 C24.0102948,29.0985873 23.1732495,29.3294053 22.4963372,29.8186244 L21.0547945,22.6095098 L22.2129718,22.297127 C23.9132796,25.4811409 26.5623156,29.3140061 30.2832547,29.9147422 C30.9424964,30.0641647 31.6258764,30.082497 32.2925676,29.9687802 C32.9592587,29.855007 33.5956325,29.611441 34.1636914,29.2525788 C34.7317504,28.8937165 35.2198295,28.4270038 35.5988819,27.880193 C35.9779344,27.3333258 36.2401065,26.7176982 36.3698644,26.0698622 C37.762091,17.9716582 22.4224208,19.7138492 24.0488122,10.3660014 C24.8003916,5.98045897 28.4104561,3.76964877 32.8460165,4.49056023 C33.8304325,4.65534242 34.769748,5.01519741 35.6059271,5.54790081 C36.1859974,5.89430834 36.8241614,6.13834256 37.4910258,6.26881228 C37.8115226,6.33447019 38.1425294,6.33418815 38.4629107,6.26802258 C38.7832343,6.20180059 39.0858872,6.07110525 39.3515242,5.88432992 L40.6575342,12.3725162 Z" id="Path"></path>
            <path d="M134.221067,18.6949825 C134.331077,15.8043672 133.365623,11.9664448 130.138083,11.6020389 C126.910544,11.23769 125.089072,14.8570601 124.269725,17.5655009 L134.221067,18.6949825 Z M123.927662,18.840722 C123.084251,22.7758612 123.462984,29.0065124 129.196694,29.771645 C131.800842,30.111761 133.891036,28.5570917 135.590465,26.480246 L136.152548,27.2089438 C135.340077,28.5068013 134.189553,29.5629569 132.823593,30.2661674 C131.457633,30.9693779 129.926084,31.2936427 128.389952,31.2048077 C123.194261,30.6097045 119.954689,25.5207369 120.602718,19.9216808 C121.213504,14.6748286 125.137775,9.65878779 130.382741,10.2053111 C135.015776,10.7397465 137.717329,15.4764532 137.14264,20.2982317 L123.927662,18.840722 Z" id="Shape"></path>
            <path d="M116.148473,23.9095078 C116.45312,27.8598842 116.989824,28.7554273 119.709357,28.5468761 L119.794521,29.7737051 L110.038385,30.5098254 L109.953221,29.3443351 C112.672753,29.1235163 113.075138,28.1175062 112.770491,24.2039329 L111.526182,6.90576615 L111.429015,6.90576615 L104.867958,30.828786 L103.648227,30.9269277 L93.5754408,8.13259507 L93.4777022,8.13259507 L94.7946006,25.5289035 C95.0872446,29.4792799 95.5993717,30.4362192 98.2703205,30.1785396 L98.368059,31.3440299 L90.5506899,31.9452055 L90.465526,30.7183766 C93.1724836,30.5220932 93.5508632,29.5528862 93.2456446,25.5902421 L92.1848099,11.6780794 C91.8921658,7.76450608 91.3680357,6.83215988 88.6725094,7.040711 L88.5753425,5.81388209 L95.8188548,5.26181195 L104.782223,25.4921004 L110.538509,4.18220712 L117.855754,3.63013699 L117.940918,4.79562157 C115.23396,5.00417846 114.831003,6.02243321 115.136221,9.92373879 L116.148473,23.9095078 Z" id="Path"></path>
            <path d="M144.479452,22.2649048 C145.049121,18.7203041 145.666634,14.4135214 145.868021,10.4212665 C145.93923,8.78808427 145.868021,6.90080348 145.868021,4.7474178 C145.847994,3.95912736 145.888049,3.17043368 145.987073,2.38836224 C146.010995,2.02916551 146.109463,1.67920924 146.275246,1.36125667 C146.441029,1.04330978 146.670788,0.764494281 146.948947,0.542959435 C147.227662,0.321422884 147.548657,0.162129116 147.891349,0.075443123 C148.234597,-0.0112426257 148.591197,-0.0233782615 148.938895,0.0398262213 C149.286594,0.103030477 149.617603,0.240159061 149.910226,0.442287231 C150.202293,0.644413698 150.449855,0.907014366 150.635665,1.21300034 C150.822031,1.51898064 150.942752,1.86149115 150.990595,2.21824004 C151.038439,2.57498325 151.011736,2.93797953 150.912711,3.28359102 C150.744703,4.05179892 150.514387,4.80444514 150.224546,5.53377154 C149.548063,7.57830491 148.871025,9.3203622 148.384803,10.8930583 C147.268829,14.715952 146.366482,18.9743458 145.713921,22.5068493 L144.479452,22.2649048 Z" id="Path"></path>
            <path d="M143.606332,31.1743031 C142.954722,31.0346205 142.383455,30.6510145 142.012215,30.1039152 C141.640975,29.5568706 141.498574,28.8889068 141.614932,28.2402002 C141.731291,27.5915483 142.096991,27.0125732 142.635566,26.6249074 C143.174696,26.2371866 143.844591,26.0708952 144.504512,26.1608714 C144.845832,26.2211665 145.171637,26.348011 145.462534,26.5339984 C145.753986,26.7200408 146.004988,26.9614404 146.200582,27.244262 C146.39673,27.5270837 146.53359,27.8455666 146.603406,28.1812218 C146.673775,28.5168771 146.675437,28.8629564 146.608947,29.1993248 C146.469316,29.8513782 146.076466,30.4233856 145.515173,30.7926174 C144.953879,31.1617942 144.26847,31.2988434 143.606332,31.1743031 Z" id="Path"></path>
            <path d="M2.02029714,7.9413926 C1.37176091,7.79803595 0.804124892,7.41397628 0.43514897,6.86904529 C0.0661741592,6.3240594 -0.075811436,5.66001226 0.0386500707,5.01460533 C0.153112,4.3692039 0.515232896,3.7920108 1.04988939,3.40277909 C1.58454031,3.01354737 2.2506812,2.84216177 2.91010495,2.92416771 C3.25367924,2.98315203 3.58186197,3.10910933 3.8754415,3.29467137 C4.16902659,3.48022792 4.42210318,3.72165568 4.61986914,4.00481665 C4.81762954,4.2879831 4.95609797,4.60719461 5.02716716,4.94376156 C5.0982419,5.28032851 5.1004828,5.6274921 5.03376751,5.96492654 C4.893592,6.6174711 4.49956698,7.18990944 3.93621258,7.55941932 C3.37285817,7.92887429 2.68504233,8.06602669 2.02029714,7.9413926 Z" id="Path"></path>
            <path d="M9.39176808,25.7238018 C10.1469217,29.1521806 10.1964723,29.3199951 12.8333308,29.1401938 L13.0684932,30.1950277 L4.61322653,31.9452055 L4.36563593,30.8423684 C6.84153614,30.0272132 6.84153614,29.7635048 6.0616652,26.3711425 L3.95711028,16.78135 C3.41240747,14.8154107 3.22670872,14.1681263 0.924096397,14.6475962 L0.726027397,13.7605206 L5.962622,10.1643836 L9.39176808,25.7238018 Z" id="Path"></path>
        </g>
    </g>
</svg>