<?xml version="1.0" encoding="UTF-8"?>
<svg width="276px" height="70px" viewBox="0 0 276 70" version="1.1" xmlns="http://www.w3.org/2000/svg" xmlns:xlink="http://www.w3.org/1999/xlink">
    <title>inspire-sleep-logo</title>
    <g id="inspire-sleep-logo" stroke="none" stroke-width="1" fill="none" fill-rule="evenodd">
        <g id="group" transform="translate(47, 16)" fill-rule="nonzero">
            <polygon id="Path" fill="#000000" points="61.1046931 1.97111913 54.534296 1.97111913 54.534296 31.5379061 61.1046931 31.5379061"></polygon>
            <path d="M64.3898917,9.69970453 L70.4046991,9.69970453 L70.4046991,13.1650833 C71.48397,10.9941586 73.8483801,9.19855596 77.4574342,9.19855596 C81.7301004,9.19855596 84.7581227,11.787518 84.7581227,17.6328131 L84.7581227,31.5379061 L78.7433154,31.5379061 L78.7433154,18.5100927 C78.7433154,15.5458086 77.5814639,14.1255281 74.926909,14.1255281 C72.3550406,14.1255281 70.4046991,15.7128941 70.4046991,18.927321 L70.4046991,31.5379061 L64.3898917,31.5379061 L64.3898917,9.69970453 Z" id="Path" fill="#000000"></path>
            <path d="M86.0722022,24.8238847 L91.8135323,24.8238847 C92.0693788,26.8036599 93.0472255,27.9408664 95.7264404,27.9408664 C98.108943,27.9408664 99.2147129,27.0560823 99.2147129,25.5402421 C99.2147129,24.0237492 97.8962448,23.3920403 94.7062063,22.9288669 C88.7944567,22.0440828 86.4974899,20.3597071 86.4974899,16.0633034 C86.4974899,11.4729146 90.7509108,9.19855596 95.3018048,9.19855596 C100.234947,9.19855596 103.935048,10.967417 104.488368,16.0217408 L98.8317039,16.0217408 C98.4911912,14.2105011 97.4709571,13.3680412 95.3441923,13.3680412 C93.3453508,13.3680412 92.1965413,14.294388 92.1965413,15.6424543 C92.1965413,17.0320833 93.259815,17.5797964 96.4923496,18.0430786 C102.06413,18.8432141 105.126354,20.2336047 105.126354,24.9500959 C105.126354,29.7097818 101.638842,32.1949458 95.7695887,32.1949458 C89.7723033,32.1949458 86.2847917,29.5835706 86.0722022,24.8238847 Z" id="Path" fill="#000000"></path>
            <path d="M123.83327,20.6854581 L123.83327,20.3535834 C123.83327,15.9582259 121.618719,13.8014691 118.509643,13.8014691 C115.274332,13.8014691 113.058694,15.9998977 113.058694,20.3535834 L113.058694,20.6854581 C113.058694,25.0397866 115.188362,27.1542289 118.553172,27.1542289 C121.959336,27.1542289 123.83327,24.9148783 123.83327,20.6854581 Z M107.097473,9.69626083 L113.271987,9.69626083 L113.271987,13.0969049 C114.507129,11.0234917 117.104737,9.19855596 120.383577,9.19855596 C125.834526,9.19855596 130.093863,13.1378268 130.093863,20.3119116 L130.093863,20.6437863 C130.093863,27.8178711 125.920497,31.840432 120.383577,31.840432 C116.933885,31.840432 114.422247,30.18138 113.271987,28.0670449 L113.271987,38.765343 L107.097473,38.765343 L107.097473,9.69626083 Z" id="Shape" fill="#000000"></path>
            <path d="M131.889324,9.60374083 L138.197658,9.60374083 L138.197658,31.5379061 L131.889324,31.5379061 L131.889324,9.60374083 Z M131.407942,3.31285906 C131.407942,1.42581988 132.985306,0 135.00039,0 C137.059135,0 138.635379,1.42581988 138.635379,3.31285906 C138.635379,5.19989824 137.059135,6.6257192 135.00039,6.6257192 C132.985306,6.6257192 131.407942,5.19989824 131.407942,3.31285906 Z" id="Shape" fill="#000000"></path>
            <path d="M140.606498,9.53517946 L146.674277,9.53517946 L146.674277,13.7422016 C148.055943,10.7970992 150.190466,9.24082137 153.747292,9.19855596 L153.747292,14.8781184 C149.269712,14.8358422 146.674277,16.308339 146.674277,20.5154264 L146.674277,31.5379061 L140.606498,31.5379061 L140.606498,9.53517946 Z" id="Path" fill="#000000"></path>
            <path d="M170.732049,18.3380388 C170.519605,15.0109623 168.813513,13.4105317 165.873064,13.4105317 C163.101481,13.4105317 161.225433,15.22172 160.755876,18.3380388 L170.732049,18.3380388 Z M154.404332,20.9918225 L154.404332,20.6548496 C154.404332,13.7051789 159.391874,9.19855596 165.873064,9.19855596 C171.627584,9.19855596 176.743682,12.5256107 176.743682,20.4016576 L176.743682,22.0867394 L160.670898,22.0867394 C160.840854,25.7508976 162.845458,27.856842 166.212975,27.856842 C169.069535,27.856842 170.477116,26.6357098 170.860605,24.7820871 L176.701193,24.7820871 C175.976703,29.5419239 172.13854,32.1949458 166.043019,32.1949458 C159.306896,32.1949458 154.404332,28.0253828 154.404332,20.9918225 Z" id="Shape" fill="#000000"></path>
            <path d="M36.8885207,10.8429726 C36.5137063,10.8429726 36.1439323,10.8636999 35.7791988,10.9020561 C33.4962092,5.64881643 28.2366893,1.97111913 22.1107531,1.97111913 C13.8943284,1.97111913 7.23306708,8.58539498 7.22743682,16.7468361 C7.24120683,15.9272527 9.12409413,12.9780989 13.9659667,12.9780989 C17.09253,12.9780989 19.7012167,13.956556 20.8087154,14.3081723 C21.7265013,14.5995298 21.5952358,16.2291876 22.1137559,16.212734 C23.5467372,16.1671125 25.4903026,16.0409324 27.4391229,16.0257608 C28.8149438,16.0149698 27.5164452,18.1365272 28.9504989,18.7637953 C30.4797845,19.4328386 30.8450543,19.5640403 31.6946336,19.9595686 C35.4074945,21.6878413 32.029768,24.6624235 32.029768,27.9702452 C32.029768,29.7250147 33.5632361,31.4879042 36.9915812,31.5379061 C42.6976611,31.4823484 47.3068592,26.8746895 47.3068592,21.193057 C47.3068592,15.4769146 42.6426454,10.8429726 36.8885207,10.8429726 Z" id="Path" fill="#000000"></path>
            <path d="M7.63864491,16.4285044 C7.57476239,16.4268664 7.51070818,16.4259928 7.44643934,16.4259928 C3.26435048,16.4259928 -0.112530008,19.9242857 0.00287233648,24.1943957 C0.114098934,28.3099895 3.54388612,31.5379061 7.60135417,31.5379061 L22.3393502,31.5379061 C22.3393502,23.2570332 15.7751077,16.5331168 7.63864491,16.4285044 Z" id="Path" fill="#6666FF"></path>
            <path d="M176.743682,29.5788149 C176.743682,28.1160163 177.904067,26.9386282 179.371283,26.9386282 C180.863047,26.9386282 182,28.1042132 182,29.5670118 C182,31.0534166 180.839616,32.1949458 179.371283,32.1949458 C177.91634,32.1949458 176.743682,31.0652197 176.743682,29.5788149 Z M181.525804,29.5670118 C181.525804,28.2706933 180.626507,27.3666876 179.371283,27.3666876 C178.117176,27.3666876 177.217878,28.2824964 177.217878,29.5788149 C177.217878,30.8869366 178.164037,31.7668864 179.371283,31.7668864 C180.590803,31.7668864 181.525804,30.8629931 181.525804,29.5670118 Z M178.471985,28.2349467 L179.383557,28.2349467 C179.98718,28.2349467 180.377694,28.484723 180.377694,29.0199096 L180.377694,29.0317127 C180.377694,29.4240256 180.153427,29.6380553 179.845479,29.7331546 L180.531668,30.8393869 L179.940318,30.8393869 L179.312148,29.8284788 L179.039904,29.8284788 L179.039904,30.8393869 L178.471985,30.8393869 L178.471985,28.2349467 Z M179.371283,29.4358287 C179.668074,29.4358287 179.822048,29.3050952 179.822048,29.055319 L179.822048,29.0435159 C179.822048,28.7701334 179.655801,28.6748092 179.371283,28.6748092 L179.039904,28.6748092 L179.039904,29.4358287 L179.371283,29.4358287 Z" id="Shape" fill="#000000"></path>
        </g>
    </g>
</svg>