<?xml version="1.0" encoding="UTF-8"?>
<svg width="276px" height="70px" viewBox="0 0 276 70" version="1.1" xmlns="http://www.w3.org/2000/svg" xmlns:xlink="http://www.w3.org/1999/xlink">
    <title>mayo-clinic-press-logo</title>
    <g id="mayo-clinic-press-logo" stroke="none" stroke-width="1" fill="none" fill-rule="evenodd">
        <g id="group" transform="translate(112, 3)" fill="#000000">
            <path d="M42.8900524,10.9483156 C43.6121333,10.9753603 44.3321249,10.8530209 45.0046433,10.5889582 C45.6772777,10.3248955 46.2882782,9.92491307 46.7993411,9.41396624 C47.310404,8.90301941 47.7103865,8.29201894 47.9743331,7.61938449 C48.2383958,6.94675004 48.3606191,6.22675841 48.3336905,5.50467749 C48.368512,4.77806978 48.2518601,4.0521585 47.9913956,3.37290798 C47.7309311,2.69365745 47.3321094,2.0760409 46.820234,1.55905835 C46.3083586,1.04207581 45.6948045,0.637102278 45.0181076,0.369789571 C44.3416428,0.102476863 43.6167761,-0.0213714475 42.8899363,0.00613750244 C42.1584536,-0.0292643108 41.4276673,0.0887804238 40.7445864,0.352610986 C40.0613894,0.616441548 39.4411033,1.02025436 38.9230761,1.53804941 C38.405281,2.05584445 38.0014682,2.67624672 37.7376376,3.35944368 C37.4739232,4.04252457 37.3557623,4.77331085 37.3912802,5.50479356 C37.3637713,6.23174948 37.4875035,6.95650005 37.7549323,7.63308093 C38.022245,8.30966181 38.4272185,8.92333193 38.9442011,9.43509126 C39.4611836,9.94685058 40.0789162,10.3456723 40.7580507,10.6062529 C41.4371852,10.8667174 42.1630964,10.9833692 42.8898202,10.9485478 L42.8900524,10.9483156 Z M42.8900524,2.10099627 C44.7155091,2.10099627 45.9033851,3.4372116 45.9033851,5.48819533 C45.9033851,7.53917907 44.7045984,8.87539439 42.8900524,8.87539439 C41.0755063,8.87539439 39.8658089,7.53917907 39.8658089,5.50467749 C39.8658089,3.47017591 41.0534527,2.10099627 42.8900524,2.10099627 Z M21.0659372,8.77081396 L25.5583693,8.77081396 L26.3940842,10.7227887 L28.9345415,10.7227887 L24.1451985,0.237003753 L22.5451526,0.237003753 L17.7283007,10.7229048 L20.2356776,10.7229048 L21.0659372,8.77093003 L21.0659372,8.77081396 Z M24.7996097,6.96172326 L23.3340907,3.51509559 L21.8688039,6.96172326 L24.7996097,6.96172326 Z M10.4315807,9.16116247 L7.77574829,5.03714141 L7.77574829,10.7227887 L5.36726428,10.7227887 L5.36726428,0.23143232 L7.06086381,0.23143232 L11.0473401,6.45588359 L15.0393879,0.23143232 L16.7329874,0.23143232 L16.7329874,10.7227887 L14.3245034,10.7227887 L14.3245034,5.03714141 L11.668671,9.16116247 L10.4314646,9.16116247 L10.4315807,9.16116247 Z M31.0899896,10.7227887 L33.5313219,10.7227887 L33.5313219,6.99468758 L37.5729322,0.23143232 L34.9170997,0.23143232 L32.3271959,4.81184659 L29.7374082,0.23143232 L27.0486115,0.23143232 L31.0901057,6.99480365 L31.0901057,10.7229048 L31.0899896,10.7227887 Z M11.8062157,25.4920769 L11.8062157,15.0007206 L14.2531194,15.0007206 L14.2531194,23.4686022 L19.5924093,23.4686022 L19.5924093,25.4920769 L11.8063318,25.4920769 L11.8062157,25.4920769 Z M23.8482876,15.0007206 L21.4069553,15.0007206 L21.4069553,25.4866216 L23.8482876,25.4866216 L23.8482876,15.0007206 Z M8.2981862,21.9565385 L10.4481789,22.8033963 C9.62883009,24.6454513 7.77586436,25.7176039 5.51038046,25.7340861 C1.95278841,25.7340861 -0.47217776,22.9848161 0.0777690957,19.2512596 C0.29284962,18.154732 0.833394683,17.148624 1.62894887,16.3638645 C2.42438699,15.579221 3.43792349,15.0524885 4.53723685,14.8523812 C7.22057822,14.4895416 9.49708891,15.6277389 10.3987325,17.755562 L8.24873973,18.6024198 C8.02611456,18.063964 7.64238212,17.6073387 7.15023888,17.2953384 C6.65809564,16.9832221 6.0815684,16.8310524 5.49946974,16.8593738 C3.65195937,16.8593738 2.4532888,18.2120713 2.4532888,20.263055 C2.4532888,22.3140388 3.64093258,23.650138 5.49946974,23.650138 C6.08087197,23.674397 6.65647064,23.5266379 7.15430138,23.2255484 C7.65213212,22.9242267 8.05002529,22.4828068 8.29830227,21.9566546 L8.2981862,21.9565385 Z M40.5916041,15.0007206 L38.1502719,15.0007206 L38.1502719,25.4866216 L40.5916041,25.4866216 L40.5916041,15.0007206 Z M49.3655663,23.1952537 C49.8595667,22.9024053 50.257692,22.471896 50.5111922,21.9565385 L52.661185,22.8197624 C51.8309254,24.6618174 49.9778436,25.7340861 47.7124757,25.7340861 C44.1548837,25.7340861 41.7299175,22.9848161 42.2797483,19.2512596 C42.4949449,18.154732 43.03549,17.148624 43.8309281,16.3638645 C44.6264823,15.579221 45.6399027,15.0524885 46.7391,14.8523812 C49.4389235,14.4893095 51.7154342,15.6277389 52.5951403,17.7280531 L50.4451475,18.5749109 C50.2224063,18.0364551 49.8387899,17.5798297 49.3466467,17.2678295 C48.8545034,16.9557132 48.2778601,16.8035434 47.6957615,16.8318649 C45.8703047,16.8318649 44.6824288,18.1680802 44.6824288,20.2189478 C44.6824288,22.2698155 45.8701886,23.6060308 47.7287258,23.6060308 C48.3025834,23.6309862 48.8712177,23.4881022 49.3653342,23.1952537 L49.3655663,23.1952537 Z M27.8238532,15.0007206 L26.1961822,15.0007206 L26.1961822,25.4920769 L28.6046663,25.4920769 L28.6046663,19.0916613 L34.1748224,25.4920769 L35.8024933,25.4920769 L35.8024933,15.0007206 L33.3940093,15.0007206 L33.3940093,21.4011363 L27.8238532,15.0007206 L27.8238532,15.0007206 Z M29.6219171,39.5081771 L29.6219171,32.7942523 L47.772949,32.7942523 L47.772949,43.0382602 C47.772949,49.2022382 44.7925806,53.1557502 38.6837366,55.0857874 C37.9466824,54.8564301 37.2250658,54.5808763 36.5227171,54.2608672 L36.5227171,54.4587691 C35.6209574,59.7155321 32.3437942,63.1961687 26.5811915,64.999688 C20.8240441,63.1960527 17.5415416,59.7155321 16.6396659,54.4587691 C16.6396659,54.4587691 16.6121569,54.387269 16.6121569,54.2608672 C15.9098082,54.5808763 15.1879594,54.8564301 14.4511374,55.0857874 C8.34206123,53.1557502 5.36192499,49.1966668 5.36192499,43.0382602 L5.36192499,32.788913 L23.5403498,32.788913 L23.5403498,39.5081771 L29.6219171,39.5081771 L29.6219171,39.5081771 Z M14.4333785,52.9231429 C9.49766927,50.9437753 7.51180166,48.0135498 7.51180166,42.6368849 L7.51180166,35.9999155 C7.51180166,35.7213438 7.62253389,35.4542633 7.81939118,35.257406 C8.01636455,35.0604326 8.28356119,34.9498164 8.56213283,34.9498164 L20.3457134,34.9498164 C20.6242851,34.9498164 20.8913656,35.0604326 21.0884551,35.257406 C21.2853124,35.4542633 21.3960446,35.7214599 21.3960446,35.9999155 L21.3960446,39.5080611 L16.3867461,39.5080611 L16.3867461,52.0065261 C15.7555491,52.3528835 15.1031111,52.6590802 14.4333785,52.9231429 L14.4333785,52.9231429 Z M21.3904732,42.6423403 L21.3904732,41.6636252 L19.5978646,41.6636252 C19.319293,41.6636252 19.0522124,41.7742414 18.8553551,41.9712148 C18.6583817,42.168072 18.5477656,42.4352687 18.5477656,42.7137243 L18.5477656,50.4999178 C20.53816,48.6578628 21.3905892,46.1779948 21.3905892,42.6423403 L21.3904732,42.6423403 Z M26.5811915,62.8499274 C31.491481,60.8979527 33.9219025,58.0935487 34.4717333,53.4087861 C34.4717333,53.4087861 34.482644,53.3042057 34.5048137,53.1174466 C31.2329897,50.9014092 29.6220331,47.569228 29.6220331,43.0439477 L29.6220331,41.6691967 L23.5460373,41.6691967 L23.5460373,43.0439477 C23.5460373,47.569228 21.9623575,50.9180074 18.6632568,53.1174466 C18.696105,53.3043218 18.696105,53.4087861 18.696105,53.4087861 C19.2459358,58.0936648 21.6709019,60.8979527 26.5811915,62.8499274 Z M31.7994187,42.6423403 C31.7994187,46.1779948 32.6516158,48.6579789 34.6422424,50.4999178 L34.6422424,42.7137243 C34.6422424,42.5758313 34.6150816,42.4392151 34.5623852,42.3118847 C34.5095726,42.1844381 34.4321529,42.0687148 34.3346529,41.9712148 C34.2371528,41.8735986 34.1214295,41.796295 33.9939829,41.7434824 C33.8665364,41.6906699 33.7299202,41.6636252 33.5921433,41.6636252 L31.7995348,41.6636252 L31.7995348,42.6423403 L31.7994187,42.6423403 Z M38.7001027,52.9359108 C43.6599547,50.956311 45.6394384,48.0256212 45.6394384,42.6423403 L45.6394384,36.0110583 C45.6394384,35.7343438 45.5303312,35.4688883 45.3356793,35.2722631 C45.1411434,35.0755219 44.8768485,34.9636289 44.600134,34.9607272 L32.8275803,34.9607272 C32.5490086,34.9607272 32.281928,35.0713433 32.0848386,35.2683167 C31.8879813,35.4652901 31.7773652,35.7323706 31.7773652,36.0110583 L31.7773652,39.5190878 L36.7426726,39.5190878 L36.7426726,52.0175529 C37.3751463,52.3646068 38.0288611,52.6712677 38.7001027,52.9359108 L38.7001027,52.9359108 Z" id="Shape"></path>
        </g>
    </g>
</svg>