<?xml version="1.0" encoding="UTF-8"?>
<svg width="276px" height="70px" viewBox="0 0 276 70" version="1.1" xmlns="http://www.w3.org/2000/svg" xmlns:xlink="http://www.w3.org/1999/xlink">
    <title>musicnotes-logo</title>
    <g id="musicnotes-logo" stroke="none" stroke-width="1" fill="none" fill-rule="evenodd">
        <g id="mn-logo" transform="translate(18, 15)" fill="#22313F">
            <path d="M18.777015,0 C8.40676137,0 0,8.40676137 0,18.777015 C0,29.1472687 8.40676137,37.55403 18.777015,37.55403 C29.1472687,37.55403 37.55403,29.1472687 37.55403,18.777015 C37.55403,8.40676137 29.1472687,0 18.777015,0 Z M28.5664769,15.3834629 L18.5438983,15.3834629 C18.3483811,15.3834629 18.2160629,15.5829801 18.2931019,15.7627376 L21.4653771,22.9487962 L21.4812169,22.9883156 C21.7083337,23.5828672 21.826892,24.2228582 21.8090522,24.8925287 C21.8077723,24.942528 21.8028923,24.9926073 21.7980924,25.0426066 L21.7936925,25.0892459 L21.7912925,25.1176455 C21.6944939,26.5319456 21.044663,27.8376072 19.9325187,28.8134334 C18.8204544,29.7891796 17.3765548,30.3205321 15.8516163,30.3205321 C15.7943371,30.3205321 15.7370579,30.3205321 15.6797787,30.3186121 C14.0916411,30.2770927 12.612142,29.6647814 11.5099976,28.5941565 C10.3939333,27.5077718 9.79938171,26.0835519 9.83890116,24.5823731 C9.8783406,23.0811943 10.5440112,21.6885739 11.7153547,20.6633884 C12.8709384,19.6520427 14.3800371,19.1147703 15.9681747,19.1582096 C16.4007286,19.1701295 16.8293625,19.2352486 17.2481566,19.343887 C17.6254313,19.4426856 17.9474267,19.0555711 17.7992688,18.6960562 L13.5464488,8.66947766 C13.2580529,7.99004725 13.7578059,7.23541789 14.4965954,7.23541789 L25.0189269,7.23541789 C25.1966844,7.23541789 25.3566822,7.34013642 25.4278012,7.50213413 L28.7640741,15.0773072 C28.8272732,15.2234652 28.7225547,15.3854629 28.5625569,15.3854629 L28.5664769,15.3834629 Z M16.4581677,22.1567273 L13.1179749,22.1567273 C12.8592585,22.1567273 12.687421,22.4253635 12.7979794,22.6604002 L14.8740301,27.1126574 C14.9313093,27.2371356 15.0577075,27.3180945 15.1940256,27.3180945 L18.5342184,27.3180945 C18.7930148,27.3180945 18.9648524,27.0494583 18.8542139,26.8144216 L16.7781632,22.3621644 C16.720884,22.2376862 16.5944858,22.1567273 16.4581677,22.1567273 Z M141.773999,9.57226492 C142.069995,11.3776794 140.530817,12.9163777 138.726042,12.6201419 C137.631658,12.4403844 136.75087,11.5593569 136.570873,10.4650523 C136.274077,8.6596378 137.813255,7.12093951 139.61883,7.41717533 C140.713214,7.59693279 141.594002,8.47796036 141.773999,9.57226492 Z M237.604647,20.6673083 C237.315051,20.2405144 236.983056,19.8235603 236.65426,19.4090061 C235.765473,18.2906219 234.890285,17.1900774 234.890285,15.9622547 C234.890285,15.4368222 235.167081,14.8698702 235.413478,14.6309135 C235.344679,14.5637145 235.131082,14.5005154 234.848686,14.5005154 C233.687102,14.5005154 232.591118,14.9943484 231.74793,15.7784973 C230.962341,16.507927 229.988754,18.3195815 229.468762,19.2882078 L229.436762,19.347887 C229.167966,19.8473199 228.88637,20.3933922 228.591974,20.9631442 L228.590374,20.9658641 C227.507189,23.0635145 226.258407,25.4826004 224.915226,27.0850578 C223.336848,28.9655112 221.740871,29.3467059 220.279291,29.3467059 C219.6809,29.3467059 218.809712,29.2578271 218.145722,28.9635113 C217.231334,28.556637 216.368147,27.7724081 215.960952,26.8480211 C215.625757,26.0835519 215.476959,25.2658035 215.469759,24.4362152 C216.008952,25.1255654 217.778527,25.8030759 219.244106,25.7398768 C222.665658,25.5937188 225.173622,23.027835 225.653616,20.6811482 C226.461604,16.7345638 223.89204,14.8896299 220.816084,15.022028 C216.788941,15.1938656 213.930581,18.6703765 212.380203,22.0756885 C212.077007,22.7410391 211.812211,23.4217495 211.547415,24.1022999 L211.546615,24.1027799 C211.16022,25.0951659 210.773826,26.0873919 210.270633,27.0316985 C209.653841,28.1872822 208.685855,29.7477402 207.194676,29.7477402 C205.5099,29.7477402 205.683497,27.4188931 205.816296,26.3205886 C206.131491,23.7083054 208.249861,18.493099 209.214648,16.1171326 C209.405045,15.6491392 209.550643,15.2913042 209.628242,15.0852271 C209.820239,14.5814742 210.42823,13.0704556 211.097821,11.4171189 L217.009738,11.3558397 C218.096122,11.33616 218.98731,10.4591324 219.036909,9.38258759 L211.967409,9.27786907 C212.705798,7.45861475 213.32979,5.93175629 213.32979,5.93175629 L210.920224,5.93175629 L210.878624,6.02031504 C210.356231,7.13429932 209.852239,8.20884416 209.359446,9.23834963 L170.0856,8.65563785 C169.912002,8.65563785 169.744005,8.65531786 169.580007,8.65507786 C166.061657,8.64843795 164.832874,8.64611799 164.653676,11.8871922 L208.287461,11.4427985 C205.573099,16.8945616 203.056335,20.8115463 199.365187,22.3660844 C199.11239,19.3814065 197.624411,16.7641634 195.139646,15.6264195 C194.19166,15.1918656 193.184474,15.0061882 192.162888,15.0318679 C188.378142,15.1286665 184.988589,18.140944 183.130216,22.534002 C182.84622,23.2052725 182.594223,23.8143039 182.365426,24.3666961 C181.803834,25.725797 181.38384,26.7417026 180.971046,27.495852 C180.390254,28.554637 179.622265,29.8800583 178.197485,29.8800583 C176.773505,29.8800583 177.293498,28.0332044 177.557494,27.1680166 C177.963089,25.8397954 178.198285,25.1514851 178.379083,24.6198926 C178.682278,23.7300651 178.835876,23.2796715 179.391068,21.0031436 C180.078259,18.1824634 178.847876,15.0773072 175.898318,15.0773072 C170.957587,15.0773072 169.024815,19.4216459 166.661648,24.7350909 L166.646448,24.7699705 C168.793618,18.8856535 168.343224,15.0773072 164.651276,15.0773072 C163.039299,15.0773072 161.121726,16.3434494 159.268952,19.4722852 C158.883358,20.122036 158.511363,20.7799468 158.141768,21.4325775 L158.140968,21.4332975 C156.499392,24.3319766 154.917814,27.1245772 152.570647,28.6159162 C151.343464,29.4277447 149.439491,29.5699027 148.244308,29.1096692 C145.900341,28.2069619 145.101952,24.8865288 146.415534,21.4870568 C147.35952,19.0456512 149.382692,16.8550421 151.195466,16.8550421 C152.702645,16.8550421 152.465848,18.7335756 151.738659,20.2465943 C151.473862,20.7957065 151.035469,21.4238577 150.709873,21.8624115 C150.458677,22.1981667 150.557875,22.6860799 150.92907,22.8835971 C151.942656,23.4248694 153.222638,23.3221509 154.164224,22.7176794 C155.18021,22.0678486 155.9266,21.0604228 156.149796,19.8792395 C156.370593,18.7138159 156.100197,17.4614336 155.292209,16.5706462 C154.126625,15.2847443 152.136253,14.9014697 150.474677,15.0575475 C146.930727,15.3913828 143.630773,18.7651752 142.279592,22.3819241 C142.228393,22.5079224 142.177194,22.6366406 142.125194,22.7674387 L142.123594,22.7717586 C140.948411,25.7104372 139.334834,29.7457402 136.987667,29.7457402 C135.464488,29.7457402 135.067694,28.0785638 136.242877,24.6929315 C136.824469,23.0178352 137.754856,20.7547471 138.712443,18.4271 C139.173236,17.3073558 139.639629,16.1726518 140.077223,15.0812272 L135.409289,15.0773072 C135.409289,15.0773072 131.470945,23.6717459 127.932595,28.0964035 C128.26219,24.5743732 126.739811,22.3501646 125.734226,20.8801853 L125.731026,20.8757854 C125.681426,20.8031464 125.633427,20.7324274 125.586228,20.6633884 C125.296632,20.2365944 124.965437,19.8196403 124.635841,19.4050862 C123.747054,18.2867019 122.871866,17.1860775 122.871866,15.9582548 C122.871866,15.4328222 123.148662,14.8659502 123.395859,14.6269136 C123.32626,14.5597945 123.113463,14.4965954 122.831067,14.4965954 C121.671083,14.4965954 120.572698,14.9904285 119.72951,15.7745774 C119.05592,16.4000886 118.113533,18.0737449 117.507942,19.1482098 C117.392743,19.3528469 117.289545,19.5358043 117.203146,19.6856422 C116.978349,20.0746767 116.679953,20.6710683 116.324758,21.3807383 C114.834379,24.3606162 112.344015,29.336866 110.131246,29.336866 C108.512069,29.336866 108.504069,27.9798452 108.825664,26.711703 C109.09286,25.6628379 110.008848,22.9329564 113.152003,15.0773072 L107.494483,15.0733873 C107.494483,15.0733873 103.674537,23.4860686 102.512953,25.8189156 C101.540967,27.7704881 100.689779,29.334866 99.2553993,29.334866 C97.6378222,29.334866 98.2402137,27.3240144 98.8586049,25.7793962 C99.0458023,25.3118028 99.2617992,24.7744504 99.493796,24.1989385 L99.4945959,24.1955786 C100.068988,22.7683987 100.736978,21.1067421 101.294571,19.6915621 C102.522553,16.5706462 100.057788,14.9153095 97.6698217,14.9153095 C96.1898426,14.9153095 94.5210661,15.8338566 93.821876,17.3251955 C94.1162718,17.1216784 94.9378603,16.9597607 95.451453,17.3251955 C95.7650486,17.5463924 96.0442446,18.3345413 95.8578473,18.8777336 C95.2698556,20.6049892 94.7146634,21.9033709 94.1714711,23.172713 L94.1714711,23.172793 C93.4810808,24.7878902 92.8106903,26.3561081 92.1171001,28.700795 C91.2931117,31.4859557 92.5650937,34.8854277 95.5146521,34.8854277 C100.466582,34.8854277 102.453754,30.8538846 104.86172,24.9339681 C102.714551,30.8182851 103.678537,34.8854277 107.903277,34.8854277 C109.420856,34.8854277 111.24563,33.9175214 113.005605,31.8000312 C115.304773,29.0366302 118.000735,23.4248694 119.632712,19.9997178 C120.4903,20.906345 122.283874,23.1522333 122.797467,24.8253297 C123.484657,27.0573782 122.812667,29.336866 120.622298,29.336866 C119.06552,29.336866 118.411929,28.0509641 118.34473,27.2075361 C116.703153,27.9660053 115.847965,29.7911796 116.23116,31.5452348 C116.673554,33.5620064 118.591926,34.8222286 120.575098,34.8854277 L120.871094,34.8854277 C124.847838,34.8854277 128.122192,31.6380335 130.719755,27.8020877 C129.957366,31.4681959 131.367746,34.8775078 134.6469,34.8775078 C138.17085,34.8775078 140.058824,32.0429878 141.546803,28.6000764 C141.986796,31.1580403 143.351577,33.2755304 145.565946,34.2888761 C149.089896,35.9026933 153.03464,34.0320797 155.889,30.3639715 C157.207382,28.6706354 158.357765,26.4550667 159.376951,24.4912544 C160.703332,21.9377704 161.808117,19.8100404 162.772903,19.8100404 C163.894487,19.8100404 163.68969,21.4890567 162.580906,24.0865401 C161.978514,25.4974002 161.139326,27.6083304 160.039342,30.3755713 L160.039342,30.3763713 C159.525749,31.6691531 158.954557,33.1052128 158.324166,34.6799906 L164.001686,34.6799906 C164.001686,34.6799906 167.723233,26.1625908 168.888017,23.8495034 C169.870403,21.9019309 171.029586,19.8792395 172.327168,19.8792395 C174.112743,19.8792395 173.309554,22.2412861 172.805561,23.7231852 L172.805561,23.7235052 C172.770362,23.8253438 172.737562,23.9230224 172.706363,24.0154211 C172.147171,25.6905175 171.730377,26.9941791 171.250383,28.5407972 C169.960802,32.6868987 172.570365,34.8775078 175.335926,34.8775078 C178.100687,34.8775078 180.333455,33.160972 181.820634,30.6089281 C182.11503,30.1032552 182.383026,29.5759026 182.628623,29.0425502 C183.173415,31.3970769 184.554196,33.3368096 186.630166,34.2888761 C190.705309,36.1554898 195.910035,33.5047272 198.258802,28.3689597 C198.578798,27.6716895 198.825994,26.9625795 199.009192,26.2553895 C200.279574,25.8189156 201.484357,25.086046 202.509942,24.0312609 C199.398786,28.6948751 200.431572,34.8874277 204.848309,34.8874277 C208.283461,34.8874277 210.165834,32.1891458 211.635413,28.8607927 C212.150606,31.2982783 213.547386,33.3150499 215.676956,34.2908761 C217.661728,35.1995033 219.939296,34.9979861 221.883269,34.081439 C223.92004,33.1214526 225.584817,31.4582761 226.714401,29.5245434 C227.866384,27.5551311 228.948769,25.5621193 229.954355,23.5117482 L230.089553,23.2374321 C230.550347,22.3028053 231.671131,20.0313973 231.640731,19.9997178 C232.498319,20.906345 234.291894,23.1522333 234.805486,24.8253297 C235.492677,27.0573782 234.821486,29.336866 232.630317,29.336866 C231.074339,29.336866 230.419948,28.0509641 230.352749,27.2075361 C229.266365,27.709209 228.492776,28.7363945 228.20638,29.8879782 C227.522389,32.6395394 230.161552,34.8854277 232.727116,34.8854277 C235.613475,34.8854277 239.145425,32.9812146 239.828616,28.9220719 C240.501406,24.9202083 238.82303,22.465363 237.741445,20.8829053 L237.740645,20.8814653 C237.689446,20.8061864 237.639046,20.7328274 237.590247,20.6613884 L237.604647,20.6673083 Z M189.302929,29.1077492 C186.958162,28.205042 186.159773,24.8846088 187.473354,21.4851368 C187.673352,20.9695441 187.912548,20.4836309 188.178944,20.0352373 C188.222144,21.0683427 188.530139,22.1013681 189.059732,22.9962355 C190.371714,25.0939659 192.570082,26.3541881 194.942049,26.6642637 C193.42527,28.8055135 191.157302,29.8227791 189.302929,29.1077492 Z M196.418028,23.1858328 C196.220431,23.2115124 196.022834,23.2312722 195.829236,23.243112 C194.16206,23.3023912 192.285287,22.8559975 191.205302,21.5542558 C190.942105,21.2481002 190.725309,20.8510658 190.574911,20.4145119 C189.830121,18.2436625 191.916492,16.1084127 194.066861,16.9123213 C194.077261,16.9163213 194.086861,16.9202412 194.096461,16.9222412 C196.079633,17.6866304 196.98442,20.3295531 196.419628,23.1838328 L196.418028,23.1858328 Z M219.848898,16.7800032 C220.619287,16.582486 221.555273,16.7306439 221.988067,17.4634336 C222.48726,18.3088616 222.352862,19.5868436 221.969668,20.4046721 C221.367276,21.6944939 220.525688,22.6386405 219.129708,23.310311 C218.001724,23.8515034 216.417746,24.1754188 215.459359,24.1378994 C215.499359,22.7986383 215.889753,21.4456174 216.455345,20.2722739 C217.124936,18.8856535 218.24652,17.1888774 219.848898,16.7760833 L219.848898,16.7800032 Z M87.1651699,9.0349125 C89.3355393,7.68189159 92.3418969,7.06558029 94.529066,7.06558029 L94.5346659,7.06758026 C91.7755049,13.7302062 86.2995822,28.9043121 88.0931568,34.6918304 L81.134855,34.6918304 C81.1836543,28.1082433 86.8827739,13.7400461 88.1307563,10.6664895 C86.8907738,11.6639954 84.3620095,14.0778013 81.5436493,18.9370128 C79.0960038,23.1562332 76.1706051,29.8286991 74.9637421,34.6918304 L69.4487,34.6918304 C69.4487,34.6918304 71.7301878,26.9527396 72.2753801,23.0712744 C72.3454591,22.5734414 72.420898,22.0665686 72.4971369,21.5545758 C72.7580932,19.8017206 73.0279294,17.9887061 73.1227281,16.2704104 C73.1344079,16.0584134 73.1476078,15.8432964 73.1608876,15.6257795 C73.2600062,14.0066023 73.3672047,12.2551071 72.9370507,10.700089 C72.7158538,10.8580868 72.5538561,11.0477641 72.4017783,11.2729609 C71.7222679,12.2783067 71.2679543,13.4516502 70.8669999,14.5913941 C70.6862825,15.1044268 70.4722855,15.7377779 70.2510086,16.3927287 C69.9304532,17.3414353 69.5946179,18.3355813 69.3223017,19.0752508 C68.4156745,21.5344961 67.8092031,23.1403934 66.5825804,25.6233184 C64.0680559,30.7175665 59.9890734,34.8933476 53.9861982,34.8933476 C49.1329866,34.8933476 46.6421418,31.8613104 45.5794368,29.8386189 L51.6257515,23.7922242 C51.6257515,23.7922242 52.1946234,27.0593781 56.757519,27.0593781 C59.8942748,27.0593781 62.5787169,23.950302 64.3782115,20.6021893 C64.8938042,19.6418028 65.3624376,18.6652566 65.8057914,17.7415096 C66.1657863,16.9912802 66.5091414,16.2759303 66.8472967,15.6323394 C66.9338554,15.4675417 67.0252142,15.2908242 67.1213728,15.1048268 C68.1925577,13.0323761 69.8607741,9.80482164 72.1627417,9.00731289 C71.7400276,8.38900162 71.1632358,7.83788939 70.3770869,7.38557578 C68.1213587,6.08583412 65.3657976,5.69079969 62.8828726,6.38406991 C60.1530711,7.14653915 57.2947915,9.566265 58.0967801,12.6694212 C58.6972517,14.9982683 61.7490486,16.7839231 63.8350192,15.0338678 C63.8350192,15.0338678 63.1535088,20.617949 58.318057,20.617949 C54.5729099,20.617949 51.161598,17.2125571 51.5013532,12.6496615 C51.9595868,6.48878843 58.3792562,3.01822941 64.062136,2.68637809 C68.7297501,2.41378994 74.1715933,4.27449968 76.0204472,8.87491476 C77.2096304,11.8299931 77.312349,15.1681859 77.1780309,18.3088616 C77.1167517,19.7409214 76.9982734,21.1710612 76.8342757,22.5952011 C77.9621798,20.1142762 79.2007223,17.6491109 80.6108624,15.6363393 C82.345238,13.1612543 84.7964034,10.5104917 87.1651699,9.0349125 Z" id="Shape"></path>
        </g>
    </g>
</svg>