<?xml version="1.0" encoding="UTF-8"?>
<svg width="276px" height="70px" viewBox="0 0 276 70" version="1.1" xmlns="http://www.w3.org/2000/svg" xmlns:xlink="http://www.w3.org/1999/xlink">
    <title>rakuten-logo</title>
    <g id="rakuten-logo" stroke="none" stroke-width="1" fill="none" fill-rule="evenodd">
        <g id="rak-logo-brand-v1" transform="translate(64, 13)" fill="#8529CD" fill-rule="nonzero">
            <path d="M119.945,37.1626953 L29.8,37.1626953 L36.9822656,44.3391406 L119.945,37.1626953 L119.945,37.1626953 Z M38.1521484,8.11933594 L38.1521484,9.17863281 C36.6211692,8.09072294 34.7919868,7.50131971 32.9138672,7.49074219 C26.5988281,7.49074219 21.8028906,13.2528516 21.8028906,20.3245312 C21.8028906,27.3962109 26.5988281,33.1583203 32.9138672,33.1583203 C34.7919868,33.1477428 36.6211692,32.5583396 38.1521484,31.4704297 L38.1521484,32.5530078 L43.7047266,32.5530078 L43.7047266,8.10769531 L38.1521484,8.11933594 L38.1521484,8.11933594 Z M32.9138672,27.285625 C29.8,27.285625 27.5184375,24.2241406 27.5184375,20.3478125 C27.5184375,16.4714844 29.8,13.41 32.9138672,13.41 C36.0277344,13.41 38.2278125,16.4773047 38.2278125,20.3478125 C38.2278125,24.2183203 36.039375,27.285625 32.9196875,27.285625 L32.9138672,27.285625 Z M82.6251562,8.11933594 L82.6251562,22.4838672 C82.6251562,25.1844922 80.7684766,27.4602344 78.0736719,27.4602344 C75.3788672,27.4602344 73.5280078,25.1844922 73.5280078,22.4838672 L73.5280078,8.11933594 L67.9696094,8.11933594 L67.9696094,22.4838672 C67.9696094,28.3798437 72.0030859,33.1816016 77.8990625,33.1816016 C79.587678,33.1560544 81.230625,32.629339 82.6193359,31.6683203 L82.6193359,32.5762891 L88.1660937,32.5762891 L88.1660937,8.13097656 L82.6251562,8.11933594 L82.6251562,8.11933594 Z M134.350273,32.5762891 L134.350273,18.2059375 C134.350273,15.5111328 136.201133,13.2353906 138.901758,13.2353906 C141.602383,13.2353906 143.447422,15.5111328 143.447422,18.2059375 L143.447422,32.5762891 L149,32.5762891 L149,18.2059375 C149,12.3099609 144.966523,7.51402344 139.070547,7.51402344 C137.381931,7.53957057 135.738984,8.066286 134.350273,9.02730469 L134.350273,8.11933594 L128.797695,8.11933594 L128.797695,32.5646484 L134.350273,32.5762891 L134.350273,32.5762891 Z" id="Shape"></path>
            <path d="M5.80867187,32.5762891 L5.80867187,23.1008203 L9.88289062,23.1008203 L17.0244141,32.5762891 L24.3172656,32.5762891 L15.6973828,21.1451953 C19.4369799,18.4909233 21.0299439,13.7224295 19.6365433,9.35342723 C18.2431427,4.98442495 14.1835153,2.01870529 9.59769531,2.01964821 L0,2.01964821 L0,32.5762891 L5.80867187,32.5762891 Z M5.80867188,7.8225 L9.59769531,7.8225 C12.2142737,7.8225 14.3354296,9.94365596 14.3354296,12.5602344 C14.3354296,15.1768128 12.2142737,17.2979687 9.59769531,17.2979687 L5.80867188,17.2979687 L5.80867188,7.8225 Z M103.135937,26.7908984 C102.589286,27.166444 101.942469,27.3692078 101.279258,27.3729297 C100.371289,27.3729297 98.6659375,26.6803125 98.6659375,24.3754687 L98.6659375,13.8989062 L103.409492,13.8989062 L103.409492,8.07859375 L98.6659375,8.07859375 L98.6659375,2.01964844 L93.1133594,2.01964844 L93.1133594,8.11933594 L90.2032031,8.11933594 L90.2032031,13.9396484 L93.1133594,13.9396484 L93.1133594,24.491875 C93.1133594,29.9571484 97.2225,33.2223437 101.366562,33.2223437 C103.276345,33.1700424 105.142872,32.6418931 106.796914,31.6857812 L103.135937,26.7908984 Z M57.5046875,19.5795312 L67.0267187,8.11351562 L59.2449609,8.11351562 L52.5865234,16.6402734 L52.5865234,0 L46.8651562,0 L46.8651562,32.5762891 L52.5865234,32.5762891 L52.5865234,22.5304297 L60.7698828,32.5762891 L68.5516406,32.5762891 L57.5046875,19.5795312 Z" id="Shape"></path>
            <path d="M115.958086,7.4965625 C109.555742,7.4965625 104.899492,13.1422656 104.899492,20.3478125 C104.899492,27.9142187 110.684883,33.1990625 116.487734,33.1990625 C119.397891,33.1990625 123.169453,32.1979687 126.318242,27.7221484 L121.44082,24.8934766 C117.645977,30.4809766 111.325117,27.6464844 110.597578,22.0589844 L126.591797,22.0589844 C127.95957,13.2528516 122.278945,7.4965625 115.958086,7.4965625 L115.958086,7.4965625 Z M120.806406,17.1873828 L110.807109,17.1873828 C111.976992,11.4601953 119.723828,11.1342578 120.806406,17.1873828 Z" id="Shape"></path>
        </g>
    </g>
</svg>