<?xml version="1.0" encoding="UTF-8"?>
<svg width="276px" height="70px" viewBox="0 0 276 70" version="1.1" xmlns="http://www.w3.org/2000/svg" xmlns:xlink="http://www.w3.org/1999/xlink">
    <title>reading-glasses-logo</title>
    <g id="reading-glasses-logo" stroke="none" stroke-width="1" fill="none" fill-rule="evenodd">
        <g id="Group" transform="translate(3, 10)" fill-rule="nonzero">
            <path d="M69.2860232,34.3462587 L65.4397971,28.3957848 L63.3355493,28.3957848 L63.3355493,34.3462587 L61.0154811,34.3462587 L61.0154811,19.7475572 L65.9253928,19.7475572 C69.4324726,19.7475572 71.3594396,21.2197599 71.3594396,23.9020979 C71.3594396,26.1605031 69.9874391,27.8716498 67.9448542,28.2107959 L71.9683611,34.3462587 L69.2860232,34.3462587 Z M67.9756856,22.0676254 C67.49009,21.6976477 67.3051011,21.6668162 65.624786,21.6668162 L63.3355493,21.6668162 L63.3355493,26.46111 L65.624786,26.46111 C67.1201123,26.46111 67.4207192,26.399447 68.06818,25.8521884 C68.6154387,25.3588849 68.8620904,24.7807948 68.8620904,23.9868844 C68.8620904,23.139019 68.5537757,22.4992659 67.9756856,22.0676254 Z M76.6778683,34.3462587 L76.6778683,19.7475572 L85.7114893,19.7475572 L85.7114893,21.6668162 L78.9979365,21.6668162 L78.9979365,25.875312 L84.5476013,25.875312 L84.5476013,27.802279 L78.9979365,27.802279 L78.9979365,32.4115839 L85.8887703,32.4115839 L85.8887703,34.3308429 L76.6778683,34.3308429 L76.6778683,34.3462587 Z M100.664753,34.3462587 L98.9844376,30.2842124 L92.725649,30.2842124 L91.0761653,34.3462587 L88.7560971,34.3462587 L94.706571,19.3852874 L96.9958077,19.3852874 L102.946282,34.3462587 L100.664753,34.3462587 Z M95.8781669,21.8595129 L93.3731099,28.3957848 L98.3446845,28.3957848 L95.8781669,21.8595129 Z M116.866691,32.3267973 C115.556353,33.6987978 113.691049,34.3462587 110.854554,34.3462587 L105.489878,34.3462587 L105.489878,19.7475572 L110.854554,19.7475572 C113.660218,19.7475572 115.548645,20.3950181 116.889814,21.7670185 C118.076826,22.9848616 118.963284,25.2201433 118.963284,27.0469079 C118.970939,28.9122119 118.146197,30.9547969 116.866691,32.3267973 Z M114.577454,22.6765469 C113.660218,21.913468 112.719858,21.6668162 110.669565,21.6668162 L107.802238,21.6668162 L107.802238,32.4192917 L110.484576,32.4192917 C112.588824,32.4192917 113.598555,32.1418085 114.600578,31.3478981 C115.764466,30.3921225 116.527604,28.6578523 116.527604,27.0083686 C116.535252,25.3357613 115.795297,23.6862776 114.577454,22.6765469 L114.577454,22.6765469 Z M123.464626,34.3462587 L123.464626,19.7475572 L125.784694,19.7475572 L125.784694,34.3462587 L123.464626,34.3462587 Z M144.060048,34.5235396 L135.820338,23.9945923 C135.334742,23.3548393 135.149753,23.0465246 135.057259,22.6534233 L135.057259,34.3462587 L132.922179,34.3462587 L132.922179,19.7475572 L135.23454,19.7475572 L143.47425,30.130055 C143.744026,30.4383697 143.990677,31.0164598 144.060048,31.4789319 L144.060048,19.7475572 L146.164296,19.7475572 L146.164296,34.5235396 L144.060048,34.5235396 Z M164.539853,34.0996069 C163.252639,34.4002137 161.456706,34.6468655 160.238863,34.6468655 C155.244164,34.6468655 151.544388,31.3787296 151.544388,27.0160764 C151.544388,22.7150862 155.143962,19.5086133 160.023042,19.5086133 C161.179222,19.5086133 162.558931,19.6550627 163.375965,19.8400516 C164.108212,20.0250404 164.539853,20.2100292 165.541876,20.7264564 L164.562976,22.6534233 C164.100504,22.3759401 163.769066,22.1909512 163.553246,22.1061647 C162.605178,21.7053556 161.202346,21.4047487 160.076997,21.4047487 C156.569917,21.4047487 153.980074,23.7556484 153.980074,26.9004584 C153.980074,30.2302573 156.847401,32.7353143 160.601132,32.7353143 C161.33338,32.7353143 161.973133,32.6736514 163.406796,32.4347075 L163.406796,27.8254026 L165.726864,27.8254026 L165.726864,33.7835843 C165.210437,33.9146181 164.809628,34.037944 164.539853,34.0996069 L164.539853,34.0996069 Z M182.668758,34.0996069 C181.389252,34.4002137 179.593318,34.6468655 178.367767,34.6468655 C173.365361,34.6468655 169.673293,31.3787296 169.673293,27.0160764 C169.673293,22.7150862 173.272867,19.5086133 178.159655,19.5086133 C179.315835,19.5086133 180.687836,19.6550627 181.512578,19.8400516 C182.237117,20.0250404 182.668758,20.2100292 183.678488,20.7264564 L182.699589,22.6534233 C182.237117,22.3759401 181.905679,22.1909512 181.697566,22.1061647 C180.749499,21.7053556 179.346667,21.4047487 178.21361,21.4047487 C174.70653,21.4047487 172.116687,23.7556484 172.116687,26.9004584 C172.116687,30.2302573 174.984014,32.7353143 178.737745,32.7353143 C179.469993,32.7353143 180.109746,32.6736514 181.543409,32.4347075 L181.543409,27.8254026 L183.863477,27.8254026 L183.863477,33.7835843 C183.339342,33.9146181 182.946241,34.037944 182.668758,34.0996069 L182.668758,34.0996069 Z M189.575007,34.3462587 L189.575007,19.7475572 L191.895075,19.7475572 L191.895075,32.4269996 L198.785909,32.4269996 L198.785909,34.3462587 L189.575007,34.3462587 Z M212.274678,34.3462587 L210.594363,30.2842124 L204.343282,30.2842124 L202.693798,34.3462587 L200.37373,34.3462587 L206.324204,19.3852874 L208.61344,19.3852874 L214.563914,34.3462587 L212.274678,34.3462587 Z M207.488092,21.8595129 L204.990743,28.3957848 L209.962317,28.3957848 L207.488092,21.8595129 Z M226.187379,22.6534233 C225.4243,22.1369962 225.085154,22.0136703 224.360614,21.7670185 C223.605243,21.5511982 222.957782,21.4587038 222.318029,21.4587038 C220.460433,21.4587038 219.327377,22.1292883 219.327377,23.2623449 C219.327377,23.5706596 219.38904,23.8404349 219.504658,24.0254238 C219.936298,24.6651768 220.421894,24.94266 223.258389,26.3146605 C226.00239,27.6558295 226.888795,28.6655601 226.888795,30.4692012 C226.888795,33.0667526 224.877041,34.6237419 221.578074,34.6237419 C220.483557,34.6237419 219.435287,34.4695846 218.587421,34.1689777 C217.986208,33.9223259 217.554567,33.7065056 216.514005,33.0667526 L217.554567,31.0858306 C218.464095,31.7564151 218.864905,32.0030669 219.435287,32.2420108 C220.175242,32.5503255 221.030815,32.7276064 221.847849,32.7276064 C223.558996,32.7276064 224.561019,31.995359 224.561019,30.7775159 C224.561019,29.7986167 224.075423,29.1588637 222.911535,28.6116051 L220.260029,27.332099 C218.032455,26.2607054 217.022724,25.0428623 217.022724,23.485873 C217.022724,21.0733104 219.103848,19.5163211 222.333445,19.5163211 C223.281513,19.5163211 224.229581,19.6319391 225.046615,19.8785909 C225.717199,20.0635797 226.087177,20.2485686 227.004413,20.7341642 L226.187379,22.6534233 Z M240.35444,22.6534233 C239.591361,22.1369962 239.259923,22.0136703 238.527675,21.7670185 C237.764596,21.5511982 237.124843,21.4587038 236.48509,21.4587038 C234.619786,21.4587038 233.494438,22.1292883 233.494438,23.2623449 C233.494438,23.5706596 233.556101,23.8404349 233.671719,24.0254238 C234.103359,24.6651768 234.588955,24.94266 237.42545,26.3146605 C240.169451,27.6558295 241.055856,28.6655601 241.055856,30.4692012 C241.055856,33.0667526 239.044102,34.6237419 235.752843,34.6237419 C234.658326,34.6237419 233.617763,34.4695846 232.76219,34.1689777 C232.153269,33.9223259 231.729336,33.7065056 230.688774,33.0667526 L231.729336,31.0858306 C232.638864,31.7564151 233.039673,32.0030669 233.617763,32.2420108 C234.357719,32.5503255 235.205584,32.7276064 236.030326,32.7276064 C237.741473,32.7276064 238.743496,31.995359 238.743496,30.7775159 C238.743496,29.7986167 238.2579,29.1588637 237.094012,28.6116051 L234.434797,27.332099 C232.207224,26.2607054 231.212909,25.0428623 231.212909,23.485873 C231.212909,21.0733104 233.286325,19.5163211 236.515922,19.5163211 C237.456282,19.5163211 238.412057,19.6319391 239.229091,19.8785909 C239.899676,20.0635797 240.269653,20.2485686 241.179182,20.7341642 L240.35444,22.6534233 Z M245.726824,34.3462587 L245.726824,19.7475572 L254.752737,19.7475572 L254.752737,21.6668162 L248.046892,21.6668162 L248.046892,25.875312 L253.596557,25.875312 L253.596557,27.802279 L248.046892,27.802279 L248.046892,32.4115839 L254.937726,32.4115839 L254.937726,34.3308429 L245.726824,34.3308429 L245.726824,34.3462587 Z M268.18755,22.6534233 C267.424471,22.1369962 267.085325,22.0136703 266.353078,21.7670185 C265.589999,21.5511982 264.950246,21.4587038 264.310493,21.4587038 C262.452897,21.4587038 261.31984,22.1292883 261.31984,23.2623449 C261.31984,23.5706596 261.381503,23.8404349 261.504829,24.0254238 C261.928762,24.6651768 262.414357,24.94266 265.258561,26.3146605 C268.002561,27.6558295 268.888966,28.6655601 268.888966,30.4692012 C268.888966,33.0667526 266.869505,34.6237419 263.578245,34.6237419 C262.47602,34.6237419 261.443166,34.4695846 260.587593,34.1689777 C259.986379,33.9223259 259.554738,33.7065056 258.514176,33.0667526 L259.554738,31.0858306 C260.471975,31.7564151 260.872784,32.0030669 261.450874,32.2420108 C262.183121,32.5503255 263.038695,32.7276064 263.863436,32.7276064 C265.566875,32.7276064 266.576606,31.995359 266.576606,30.7775159 C266.576606,29.7986167 266.09101,29.1588637 264.927122,28.6116051 L262.275616,27.332099 C260.048042,26.2607054 259.038311,25.0428623 259.038311,23.485873 C259.038311,21.0733104 261.111728,19.5163211 264.349032,19.5163211 C265.2971,19.5163211 266.23746,19.6319391 267.062202,19.8785909 C267.732786,20.0635797 268.102764,20.2485686 269.02,20.7341642 L268.18755,22.6534233 Z" id="Shape" fill="#000000"></path>
            <path d="M51.5964667,25.8213569 C51.5964667,40.0809123 40.0500808,51.6427139 25.7982333,51.6427139 C11.5540937,51.6427139 0,40.0809123 0,25.8213569 C0,11.5618016 11.5540937,0 25.7982333,0 C40.0500808,0 51.5964667,11.5618016 51.5964667,25.8213569 Z" id="Path" fill="#B06541"></path>
            <g transform="translate(10.8758, 7.2377)" fill="#FFFFFF">
                <path d="M5.6884064,10.9760037 C5.6884064,5.88110309 9.88919432,1.74968598 15.0765893,1.74968598 C18.1443207,1.74968598 20.8574901,3.19876511 22.5686368,5.43404676 L24.4262329,2.26611312 C21.8209736,0.847865452 18.5605455,0 15.0149264,0 C6.51314824,0 0.269775371,5.48029397 0,12.9877571 L0,22.9077829 L5.70382213,22.9077829 L5.6884064,10.9760037 Z" id="Path"></path>
                <path d="M30.1377629,10.3979136 C27.6404137,10.3979136 25.4359636,10.3824979 22.9386144,10.3979136 C21.0501868,10.4133293 19.1540513,10.4441608 17.2656237,10.5212395 C15.1690837,10.606026 12.7102739,10.8526778 11.4538915,12.7950605 C10.3824979,14.4599599 10.2514641,16.7954438 11.014543,18.6145006 C11.8547006,20.6108383 13.7662518,21.6514005 15.7163423,22.3142771 C17.0420956,22.7613334 18.5374219,22.7382098 19.9171303,22.7844571 C21.5434903,22.84612 23.1158954,22.8846593 24.7499633,22.8307043 C24.6805925,24.5495588 24.7499633,26.2067503 24.4647722,27.917897 C24.0947946,30.1840101 23.0388167,32.4347075 21.1889284,33.8992023 C19.1232199,35.5409782 16.4408819,35.6334726 13.9435327,35.2789107 C12.6871503,35.1016297 11.5001387,34.6545734 10.4364529,33.9685731 C9.51921666,33.3750673 8.50948599,32.635112 7.8620251,31.7409994 C7.26081141,32.7738536 6.6673056,33.8144158 6.06609191,34.8472701 C11.0453745,37.6221025 17.7820509,37.9535408 22.9925695,35.5795175 C27.4091777,33.567764 30.0915157,29.4440548 30.3844146,24.6189296 C30.5308641,22.2526142 30.4075382,19.8554673 30.4075382,17.481444 L30.4075382,10.37479 C30.3227517,10.3902057 30.2302573,10.3902057 30.1377629,10.3979136 M22.029086,21.1426812 C21.4124566,21.1118498 20.803535,21.0656025 20.1869056,20.9654003 C18.822613,20.7572878 17.7049722,20.1946135 16.957309,18.9690625 C16.2867245,17.8668374 16.1865223,15.0072185 16.8879382,13.8972855 C17.5816463,12.764229 18.6915793,12.2478018 20.0096247,12.1938468 C21.2505914,12.1398917 22.5223895,12.1398917 23.7633563,12.1553074 C24.0793788,12.1630153 24.3568621,12.1707232 24.6805925,12.1707232 C24.7962105,12.1707232 24.7730869,12.3865435 24.7730869,12.4636221 L24.7730869,20.9345688 C24.7730869,21.1889284 24.7807948,21.1349734 24.4647722,21.1426812 L22.029086,21.1426812 Z" id="Shape"></path>
            </g>
        </g>
    </g>
</svg>