<?xml version="1.0" encoding="UTF-8"?>
<svg width="276px" height="70px" viewBox="0 0 276 70" version="1.1" xmlns="http://www.w3.org/2000/svg" xmlns:xlink="http://www.w3.org/1999/xlink">
    <title>sun-tan-city-logo</title>
    <g id="sun-tan-city-logo" stroke="none" stroke-width="1" fill="none" fill-rule="evenodd">
        <g id="Group-3" transform="translate(137.5984, 34.8382) scale(1, -1) translate(-137.5984, -34.8382)translate(17, 21)">
            <path d="M7.36251037,14.7102462 C6.2413446,15.3111232 5.18521493,15.8427226 4.46133489,16.4252198 C3.73038571,17.0197346 3.36066964,17.5718345 3.35289358,18.3678198 C3.3338069,19.4889856 4.31358985,20.6744805 5.73731485,21.6118486 C7.13983243,22.5456821 8.90641076,23.2066468 10.1018025,23.4229625 L10.7366114,23.5410172 L9.89750434,26.5531782 L9.33833528,26.4082608 C4.82893023,25.221352 0.0855366063,21.9801508 0,17.897015 C0.02756965,15.3111232 2.18436457,13.8428626 4.76318722,12.4834668 C7.78100352,10.8759441 8.53810852,10.2425491 8.55366063,8.59543925 C8.68373282,6.02297884 4.35953926,3.77499199 1.3735341,3.12745868 L0.732363009,2.9782998 L0.950799467,2.35692231 L1.744664,0.110349291 L2.27414266,0.25314594 C8.44550277,1.91863556 11.9468483,5.52955279 11.9758337,9.20550612 C11.9779525,11.7899841 10.1689594,13.1748288 7.36251037,14.7102462" id="Fill-3" fill="#000000"></path>
            <path d="M37.1271286,26.1558218 L33.7070782,26.1558218 L33.7395962,25.5344443 C33.80746,24.2747233 33.9431875,22.2840532 33.9431875,19.9639611 L33.9431875,18.7777593 C33.9544981,12.566812 33.7728212,8.93468733 32.4289775,6.68811431 C31.355175,4.87134507 29.700996,3.33097925 26.5227102,3.31542714 C23.7975563,3.33451382 21.9376653,4.5419231 20.6327019,7.06419262 C19.4606383,9.32985231 19.232305,12.5413631 19.2372534,17.1822542 L19.2372534,19.4889149 C19.2372534,22.5632843 19.3404629,24.1418235 19.4394309,24.9879997 L19.5150707,25.6461367 L16.0207943,25.6461367 L16.0207943,25.0558634 C16.0207943,24.2846201 15.9882762,21.8019378 15.9861555,20.2389507 L15.9882762,18.4023879 C15.981914,10.0933195 16.5297724,7.3292854 18.2504014,4.6119076 C20.7564118,0.715397071 24.400554,0.330128885 26.2816525,0.330128885 C26.3162913,0.330128885 26.35093,0.330128885 26.3855688,0.3308358 C29.3404698,0.323766658 32.5908608,1.45836379 34.7158446,4.59564857 C36.9454517,7.81493539 37.1546983,11.7545677 37.1596467,18.335938 L37.1596467,19.8975112 C37.1596467,22.5802502 37.1271286,24.8275302 37.1271286,25.5655485 L37.1271286,26.1558218 Z" id="Fill-4" fill="#000000"></path>
            <path d="M61.6354871,25.3805491 C61.6057967,24.4205597 61.2912199,11.7781079 61.2360806,6.90393519 C57.2646372,11.6148108 45.0915763,25.1352499 43.6409886,26.8912245 L43.4628462,27.1061264 L43.1185791,27.1061264 L42.5544616,27.1061264 L42.5275989,26.5448366 C42.3572326,23.1141825 41.5435745,4.02891554 41.3732082,1.47059341 L41.3329141,0.868302591 L41.934498,0.841439855 L44.7805341,0.71136766 L44.723981,1.38152223 C44.7225672,1.39353977 44.7197395,1.50805985 44.7197395,1.65721873 C44.7197395,3.89106729 45.0866279,15.7884316 45.1813544,20.4858758 C49.5479628,15.266729 61.7082992,1.93786363 62.9213638,0.418705222 L63.0980923,0.197441109 L63.4480148,0.197441109 L64.0234429,0.197441109 L64.0397019,0.773576101 C64.2425863,9.27845966 64.8547739,23.1742701 64.9905014,25.2214934 L65.0293817,25.8223704 L61.6545737,25.9793053 L61.6354871,25.3805491 Z" id="Fill-5" fill="#000000"></path>
            <path d="M175.993335,3.80758073 L175.367009,3.67326705 C174.172324,3.41170884 172.566215,3.27810207 171.250648,3.27810207 C162.897044,3.32405149 159.891245,7.50968988 159.85802,11.4804264 C159.814192,16.9936495 165.930412,22.1534155 174.206963,23.1798548 L174.827633,23.2562015 L174.235239,26.4599362 L173.654156,26.3503645 C161.99997,24.1872074 156.376468,17.2127928 156.367985,10.9700344 C156.37152,9.06843548 157.216989,6.42457674 159.474873,4.22395314 C161.727101,2.02686411 165.382554,0.331684096 170.881639,0.331684096 L170.909915,0.331684096 C172.976932,0.331684096 174.754821,0.468825432 175.844176,0.685848061 L176.386379,0.793299005 L176.314274,1.34115743 L175.993335,3.80758073 Z" id="Fill-6" fill="#000000"></path>
            <path d="M180.165047,25.180351 C180.227962,24.4444534 180.297947,16.0024852 180.297947,15.4503853 L180.297947,11.7857426 C180.297947,10.9134106 180.261187,2.94507484 180.19403,1.49307327 L180.167168,0.875937263 L180.786424,0.875937263 L183.640237,0.875937263 L183.614788,1.49307327 C183.581563,2.23816074 183.512992,8.33812252 183.514406,11.7192927 L183.512992,15.3804008 C183.512992,19.4267771 183.585097,24.6558207 183.645892,25.1612643 L183.720118,25.8186944 L180.114856,25.8186944 L180.165047,25.180351 Z" id="Fill-7" fill="#000000"></path>
            <path d="M199.418842,25.4754876 L196.464648,25.4754876 C196.121088,25.4733669 188.52671,25.5497136 187.091674,25.7094762 L186.435658,25.7822883 L186.435658,22.5799675 L187.045018,22.5983472 C188.049543,22.6280376 192.023107,22.7552822 196.210866,22.7658859 L196.210866,17.65419 C196.213694,12.2865912 196.176934,2.29153275 196.081501,1.53584158 L196.003033,0.875583806 L196.668239,0.875583806 L199.734126,0.875583806 L199.667676,1.52735861 C199.603347,2.11692497 199.43086,10.2499717 199.432274,17.1169353 L199.432274,22.7658859 C202.824047,22.7517476 208.0029,22.6280376 208.586104,22.5983472 L209.207482,22.5686568 L209.207482,25.7639086 L208.568431,25.71089 C206.96515,25.5808178 200.038806,25.4733669 199.418842,25.4754876" id="Fill-8" fill="#000000"></path>
            <path d="M231.787025,26.3314899 C229.522779,25.5892301 226.667553,23.5363516 225.016909,21.7570488 C223.428473,20.0357129 222.129871,18.1539076 221.247643,15.6599146 C220.314516,18.5321066 218.721839,20.6076064 217.303769,22.191094 C216.35509,23.2465168 214.104983,25.1516503 211.832254,26.2982649 L211.309844,26.5577024 L209.842997,23.7250976 L210.408529,23.467074 C212.177935,22.6611919 213.931082,21.2820025 215.304616,19.7444643 C217.861524,16.8871175 219.464098,13.1638009 219.466926,8.82900367 L219.466926,6.28764748 C219.466926,5.86986124 219.394821,2.24692647 219.36513,1.48982147 L219.337561,0.875513115 L219.95399,0.875513115 L222.881321,0.875513115 L222.816992,1.52587409 C222.75337,2.13452713 222.684799,5.19829285 222.684799,5.63940724 L222.684799,8.82900367 C222.688334,12.3593327 223.91695,15.8104873 226.48729,18.9456514 C228.283559,21.1384989 230.612134,22.7382455 232.818413,23.4041586 L233.422117,23.5872494 L232.322159,26.5053908 L231.787025,26.3314899 Z" id="Fill-9" fill="#000000"></path>
            <path d="M240.235497,23.9135609 C240.125218,23.6456405 239.973232,23.4130657 239.780951,23.2144229 C239.589377,23.0164869 239.365992,22.859552 239.111503,22.7400835 C238.854894,22.6227358 238.582025,22.5647688 238.290069,22.5647688 C237.998821,22.5647688 237.725245,22.6227358 237.468635,22.7400835 C237.212732,22.859552 236.987933,23.0164869 236.793532,23.2144229 C236.600545,23.4130657 236.452093,23.6456405 236.344642,23.9135609 C236.234363,24.1814814 236.178517,24.4670747 236.178517,24.7696339 C236.178517,25.0729 236.234363,25.3584933 236.344642,25.6257069 C236.452093,25.8943342 236.600545,26.126909 236.793532,26.3248449 C236.987933,26.5227809 237.212732,26.6804227 237.468635,26.7970635 C237.725245,26.916532 237.998821,26.9752059 238.290069,26.9752059 C238.582025,26.9752059 238.854894,26.916532 239.111503,26.7970635 C239.365992,26.6804227 239.589377,26.5227809 239.780951,26.3248449 C239.973232,26.126909 240.125218,25.8943342 240.235497,25.6257069 C240.346482,25.3584933 240.398794,25.0729 240.398794,24.7696339 C240.398794,24.4670747 240.346482,24.1814814 240.235497,23.9135609 M240.34012,26.8203917 C240.078562,27.0854845 239.76964,27.2919034 239.421132,27.4467176 C239.065554,27.6008249 238.692303,27.6764647 238.290069,27.6764647 C237.887835,27.6764647 237.509636,27.6008249 237.159714,27.4467176 C236.80767,27.2919034 236.498749,27.0854845 236.237191,26.8203917 C235.972098,26.5581266 235.764972,26.2492051 235.610158,25.8999895 C235.458171,25.5479463 235.380411,25.171868 235.380411,24.7696339 C235.380411,24.3681067 235.458171,23.9920284 235.610158,23.6392782 C235.764972,23.287235 235.972098,22.9818481 236.237191,22.7160484 C236.498749,22.4544902 236.80767,22.2445367 237.159714,22.0932571 C237.509636,21.9391498 237.887835,21.8599755 238.290069,21.8599755 C238.692303,21.8599755 239.065554,21.9391498 239.421132,22.0932571 C239.76964,22.2445367 240.078562,22.4544902 240.34012,22.7160484 C240.603092,22.9818481 240.811632,23.287235 240.962911,23.6392782 C241.12126,23.9920284 241.1969,24.3681067 241.1969,24.7696339 C241.1969,25.171868 241.12126,25.5479463 240.962911,25.8999895 C240.811632,26.2492051 240.603092,26.5581266 240.34012,26.8203917" id="Fill-10" fill="#000000"></path>
            <path d="M238.703614,25.2038205 C238.67251,25.1599919 238.632923,25.1253531 238.58768,25.1041456 C238.537489,25.0843521 238.488005,25.0723345 238.432866,25.0666792 C238.377727,25.0610239 238.327536,25.0581962 238.278052,25.0581962 L237.960647,25.0581962 L237.960647,25.7163333 L238.278052,25.7163333 C238.327536,25.7163333 238.377727,25.7135056 238.432866,25.7078503 C238.488005,25.7014881 238.537489,25.6901774 238.58768,25.6696769 C238.632923,25.6463488 238.67251,25.6145376 238.703614,25.570709 C238.732597,25.5275872 238.75027,25.4660857 238.75027,25.3876182 C238.75027,25.3084438 238.732597,25.2476492 238.703614,25.2038205 M239.100193,24.5541665 C239.185022,24.5888053 239.257128,24.6382893 239.323578,24.7026184 C239.390734,24.7697753 239.443753,24.8510704 239.484047,24.9535729 C239.524341,25.0553686 239.548376,25.18332 239.548376,25.3409619 C239.548376,25.5855542 239.496065,25.7750071 239.390734,25.9057862 C239.286111,26.0400999 239.163815,26.138361 239.023846,26.1998625 C238.884584,26.2641917 238.738253,26.2988305 238.592628,26.310848 C238.447004,26.319331 238.33107,26.3249863 238.249068,26.3249863 L237.171024,26.3249863 L237.171024,23.2753589 L237.969837,23.2753589 L237.969837,24.4495432 L238.100616,24.4495432 L238.796927,23.2753589 L239.618361,23.2753589 L238.836514,24.4870096 C238.924878,24.4990272 239.012535,24.5223553 239.100193,24.5541665" id="Fill-11" fill="#000000"></path>
            <path d="M87.3915489,17.1153801 L87.3915489,22.7650376 C90.7819089,22.7516062 95.9671238,22.6271893 96.5482072,22.5996197 L97.1681709,22.5685155 L97.1681709,25.7623534 L96.5291206,25.7107486 C94.9258394,25.5806764 87.9973743,25.4739324 87.3774106,25.4739324 L84.4260442,25.4739324 C84.0817771,25.4739324 76.4916404,25.5495722 75.0523632,25.7107486 L74.3977608,25.7800262 L74.3977608,22.580533 L75.0057069,22.5974989 C76.0116457,22.6293101 79.9852098,22.7544339 84.1743828,22.7657445 L84.1743828,17.6554625 C84.1765036,12.2864498 84.1340887,2.29421903 84.0428968,1.53357945 L83.967257,0.876856252 L84.6303424,0.876856252 L87.6898666,0.876856252 L87.6262444,1.52368265 C87.5640359,2.11819741 87.3894281,10.2491234 87.3915489,17.1153801" id="Fill-12" fill="#BC8323"></path>
            <path d="M102.633041,11.7651714 C103.575358,13.8003771 105.918778,18.7501896 107.100738,21.2420618 C108.271388,18.8746065 110.738518,14.1043502 111.757888,12.1030763 L102.633041,11.7651714 Z M107.683942,26.7326637 L107.51499,27.0373436 L107.098617,27.0373436 L106.738091,27.0373436 L106.572673,26.7171116 C105.88626,25.3746817 96.5182341,6.10137561 94.4243545,2.15113961 L94.1500718,1.6393338 L94.6597569,1.35727507 L97.111335,0 L97.3820831,0.57047968 C97.884699,1.64357529 100.452918,7.39290767 101.248196,8.96791229 L113.10456,9.38075013 C113.966288,7.78736574 117.049847,1.77506131 117.711519,0.57047968 L118.004888,0.034638791 L120.978169,1.80404479 L120.673489,2.3109022 C118.115167,6.5771288 110.305887,21.965235 107.683942,26.7326637 L107.683942,26.7326637 Z" id="Fill-13" fill="#BC8323"></path>
            <path d="M144.315383,25.3794887 C144.287106,24.4216201 143.971823,11.773513 143.914562,6.90075408 C139.950188,11.6095089 127.772179,25.1356033 126.321591,26.891578 L126.144156,27.1064798 L125.79494,27.1064798 L125.232237,27.1064798 L125.205374,26.5430693 C125.037128,23.1152428 124.222763,4.029269 124.053811,1.47094686 L124.01281,0.870069876 L124.616514,0.841086398 L127.465378,0.710307289 L127.405291,1.38682408 C127.402463,1.39389323 127.401049,1.51336171 127.401049,1.6681759 C127.401049,3.93383559 127.76511,15.7993888 127.860543,20.4869362 C132.227152,15.2670825 144.388195,1.93751017 145.60126,0.419765593 L145.775867,0.197794566 L146.129324,0.197794566 L146.704046,0.197794566 L146.717477,0.774636472 C146.922482,9.27881311 147.53467,23.171796 147.668276,25.2218468 L147.707864,25.8220169 L144.333763,25.9782449 L144.315383,25.3794887 Z" id="Fill-14" fill="#BC8323"></path>
        </g>
    </g>
</svg>