<?xml version="1.0" encoding="UTF-8"?>
<svg width="276px" height="70px" viewBox="0 0 276 70" version="1.1" xmlns="http://www.w3.org/2000/svg" xmlns:xlink="http://www.w3.org/1999/xlink">
    <title>time-warner-cable-logo</title>
    <g id="time-warner-cable-logo" stroke="none" stroke-width="1" fill="none" fill-rule="evenodd">
        <g id="Group-2" transform="translate(17, 13)" fill="#2360A5" fill-rule="nonzero">
            <path d="M7.7947316,12.4803296 C6.16886064,14.0617981 5.06759016,15.4182662 3.47296092,17.2984422 C3.34704525,17.4493103 3.20224881,17.5835864 3.04208558,17.6980119 C2.47054475,18.0428211 1.76216883,18.0768857 1.15977221,17.7885293 C0.223822473,17.3398215 -0.230484144,16.2057677 0.115778206,15.2592141 C0.404764077,14.4665402 0.86167417,13.8277459 1.39278334,13.1837792 C2.40423389,11.960501 3.5849104,10.7798953 4.71481912,9.63291036 C9.82934834,4.44626258 15.6403075,1.05315269 21.524164,0.238495971 C27.618902,-0.603315972 35.3186832,0.705307202 41.3782743,5.4147989 C44.9124934,8.15876963 48.3269526,12.180329 50.2951807,15.4092144 C48.3894361,18.5113755 46.2077229,21.1764668 43.7995073,23.2971604 C41.4680943,25.3531988 38.9218944,26.8984604 36.2051669,27.8333759 C30.4449756,29.8208797 24.4778078,29.4290686 20.9162522,25.1812157 C20.442824,24.6138094 20.0583808,23.9786275 19.7759296,23.2971604 C19.0287319,21.4997432 18.963645,19.4062048 19.6991271,17.5712875 C20.6533011,15.2023175 23.1357158,13.6531766 25.64026,13.6169696 C27.7178341,13.5264522 29.7928047,14.5997301 30.6454432,16.5083544 C31.1153707,17.663098 31.1270863,19.3001701 30.2900687,20.2932754 C29.76677,20.8777593 28.8099924,21.0950011 28.1617268,20.8609489 C27.6696698,20.6825003 27.1138276,20.3566376 27.1138276,19.3195667 C27.1138276,18.4299098 26.7519444,17.8893916 26.2299474,17.6812015 C25.555647,17.4109424 24.7225346,17.430339 24.1966324,17.9592193 C23.3674252,18.7932726 23.2307427,20.0967233 23.5444616,21.2023289 C23.7800762,22.0350891 24.3294097,22.7501766 25.0414605,23.2984535 C26.0278254,24.0473022 27.2254792,24.470552 28.4663336,24.5088007 C29.8468781,24.5929721 31.2092046,24.1612469 32.2856333,23.2984535 C32.8127588,22.8779436 33.266242,22.373725 33.6277253,21.8062093 C34.8240227,19.8251711 34.8240227,16.7630963 33.7084331,14.7355063 C32.1398386,11.5557588 28.8191046,10.104894 25.4189645,10.0867905 C21.2143503,10.0027386 17.2700837,12.6949851 15.4502537,16.5458545 C13.9428409,19.7333606 13.2945753,24.7402666 15.5661084,29.4937239 C17.3299636,33.1739033 20.6519994,35.77046 23.4025721,37.1062384 C25.5439314,38.1471886 27.3989083,38.5933102 29.7394335,39.0989146 C29.900849,39.1338284 30.1546879,39.2282252 30.2874652,39.3109839 C30.8289883,39.6614156 31.1843628,40.2652961 31.1843628,40.9545215 C31.1843628,41.9877132 30.3499487,42.8864218 29.3424033,42.987284 C28.5001787,43.0674566 27.5199699,42.8760769 26.7037801,42.6846972 C20.8407514,41.3256429 15.0271888,37.479946 12.0123632,31.7437282 C8.66559443,25.3816472 9.44403385,17.6036151 13.0797885,12.4932606 C15.5335649,9.04325407 19.0834049,7.14368149 22.2231973,6.42471461 C31.1531211,4.38031418 39.8981981,10.6712744 38.5417869,19.5574982 C38.3348105,20.898449 37.8792022,22.2381067 36.990115,23.2984535 C36.8215017,23.4973139 36.6406475,23.685606 36.4485919,23.8622477 C36.7505952,23.682506 37.0525984,23.4962987 37.3585069,23.2984535 C40.4032725,21.326467 43.4883919,18.4247374 45.3524809,15.4105075 C43.5664962,13.3117967 41.4030074,10.7346366 39.2147855,9.01221952 C34.4113717,5.23764339 28.8060872,3.33807082 22.6098136,4.21350352 C15.8420769,5.16652257 11.6283505,8.74971903 7.7947316,12.4803296 L7.7947316,12.4803296 Z" id="Path"></path>
            <path d="M170.958654,12.8919732 C170.958654,11.6384961 170.746442,11.2471042 170.114982,10.935014 L179.382434,10.935014 C183.714664,10.935014 185.905364,13.0237162 185.905364,16.3901978 C185.905364,18.9751746 184.108033,21.0625978 181.785347,21.4552687 L185.693152,28.0334657 C186.117576,28.7382268 186.645518,29.5210105 187.331325,29.8842631 L182.446568,29.8842631 L177.904714,22.316075 L174.86646,22.316075 L174.86646,27.9285829 C174.86646,29.180781 175.078672,29.5721729 175.71272,29.8842631 L170.114982,29.8842631 C170.746442,29.5721729 170.958654,29.180781 170.958654,27.9285829 L170.958654,12.8919732 Z M181.371274,18.2640182 C181.684417,17.8086734 181.8384,17.251004 181.8384,16.6255445 C181.8384,16.043573 181.699944,15.5229962 181.432091,15.0855583 C180.911913,14.334751 179.933668,13.8998712 178.510295,13.8998712 L174.86646,13.8998712 L174.86646,19.3486628 L178.510295,19.3486628 C179.867675,19.3499387 180.830393,18.9534306 181.371274,18.2640182 Z M60.2047091,29.8842631 C60.838757,29.5721729 61.0483811,29.180781 61.0483811,27.9285829 L61.0483811,13.7527795 L56.8235513,13.7527795 C56.1377443,13.7527795 55.7663734,14.0674278 55.3975904,14.9538153 L55.3975904,10.935014 L70.6095655,10.935014 L70.6095655,14.9550943 C70.2369006,14.0674278 69.8681176,13.7540586 69.1823106,13.7540586 L64.9561869,13.7540586 L64.9561869,27.929862 C64.9561869,29.1820601 65.1683988,29.5734519 65.8011528,29.8855422 L60.2047091,29.8855422 L60.2047091,29.8842631 L60.2047091,29.8842631 Z M73.00989,12.8919732 C73.00989,11.6384961 72.797678,11.2471042 72.16363,10.935014 L77.7626617,10.935014 C77.1312017,11.2483833 76.9189897,11.6384961 76.9189897,12.8919732 L76.9189897,27.9273039 C76.9189897,29.179502 77.1312017,29.5708938 77.7626617,29.8829841 L72.16363,29.8829841 C72.797678,29.5708938 73.00989,29.179502 73.00989,27.9273039 L73.00989,12.8919732 Z M148.213154,10.935014 C148.769563,11.0923382 148.953308,11.4044284 148.953308,11.9262842 C148.953308,12.820346 147.714974,16.987518 145.880116,24.6209381 L141.629407,10.935014 L138.970288,10.935014 L134.512542,24.6337287 C132.677685,16.9913552 131.439351,12.820346 131.439351,11.9250051 C131.439351,11.4031493 131.621801,11.0910591 132.176917,10.9337349 L126.364379,10.9337349 C126.973841,11.1690817 127.239106,11.5080321 127.635063,13.1004597 L131.858599,29.8829841 L135.925563,29.8829841 L139.942063,17.5375131 L139.992528,17.5375131 L143.795522,29.8829841 L147.865075,29.8829841 L152.115784,12.8126716 C152.40434,11.637217 152.802885,11.220244 153.382586,10.9337349 L148.213154,10.9337349 L148.213154,10.935014 L148.213154,10.935014 Z" id="Shape"></path>
            <path d="M164.835992,29.1819651 C164.835992,28.4515242 164.440897,27.8502857 163.1183,24.3528681 L156.254009,24.3528681 C155.009136,27.6942195 154.56093,28.4515242 154.56093,29.0003143 C154.56093,29.4685129 154.770784,29.7051706 155.352415,29.8855422 L150.032234,29.8855422 C150.799107,29.5734098 150.95844,29.391759 151.459757,28.1112488 C156.40298,15.3982511 157.804595,12.4995137 157.804595,11.7677936 C157.804595,11.4799666 157.669875,11.1946981 157.037722,10.9337349 L162.031465,10.9337349 L168.95923,28.7124873 C169.224786,29.4442075 169.487751,29.6271375 170.122494,29.8855422 L164.096322,29.8855422 C164.518621,29.8087883 164.835992,29.4953767 164.835992,29.1819651 L164.835992,29.1819651 Z M159.699756,15.0848395 L157.204828,21.6882299 L162.219297,21.6882299 L159.699756,15.0848395 Z M201.903681,10.9337349 C202.538424,11.2471465 202.750868,11.637312 202.750868,12.8909584 L202.750868,23.737558 L193.223248,10.9337349 L188.36034,10.9337349 C188.995083,11.2471465 189.204937,11.637312 189.204937,12.8909584 L189.204937,27.9283187 C189.204937,29.1806859 188.995083,29.5721306 188.36034,29.8842629 L193.243974,29.8842629 C192.611822,29.5721306 192.399378,29.1806859 192.399378,27.9283187 L192.399378,16.0634512 L202.741801,29.8855422 L205.940127,29.8855422 L205.940127,12.8909584 C205.940127,11.637312 206.152572,11.2458673 206.787315,10.9337349 L201.903681,10.9337349 L201.903681,10.9337349 Z M221.223182,26.9740124 L213.766896,26.9740124 L213.766896,21.5321638 L219.9524,21.5321638 C220.400607,21.5321638 220.721864,21.583333 220.95633,21.7150938 C221.189022,21.8326771 221.362051,22.040129 221.434331,22.2881893 L221.434331,17.8083223 C221.249089,18.3302486 220.852699,18.5643478 219.951105,18.5643478 L213.7656,18.5643478 L213.7656,13.8989924 L220.852699,13.8989924 C221.885128,13.8989924 222.145502,14.1087863 222.439556,14.8392272 L222.439556,10.9337349 L209.00762,10.9337349 C209.642362,11.2471465 209.854807,11.637312 209.854807,12.8909584 L209.854807,27.9283187 C209.854807,29.1806859 209.642362,29.5721306 209.00762,29.8842629 L222.808743,29.8842629 L222.808743,26.0337776 C222.518575,26.766777 222.253019,26.9740124 221.223182,26.9740124 L221.223182,26.9740124 Z M119.482966,26.0350569 C119.191502,26.766777 118.927242,26.9740124 117.896108,26.9740124 L110.442414,26.9740124 L110.442414,21.5321638 L116.627918,21.5321638 C117.07742,21.5321638 117.396087,21.583333 117.634439,21.7150938 C117.865383,21.8328743 118.03657,22.0399044 118.107258,22.28691 L118.108553,22.2881893 L118.108553,22.28691 L118.108553,22.2881893 L118.108553,17.8083223 C117.922016,18.3302486 117.525626,18.5643478 116.626623,18.5643478 L110.441118,18.5643478 L110.441118,13.8989924 L117.525626,13.8989924 C118.556759,13.8989924 118.819724,14.1087863 119.112483,14.8392272 L119.112483,10.9337349 L105.683137,10.9337349 C106.31788,11.2471465 106.527734,11.637312 106.527734,12.8909584 L106.527734,27.9283187 C106.527734,29.1806859 106.316585,29.5721306 105.683137,29.8842629 L119.482966,29.8842629 L119.482966,26.0350569 L119.482966,26.0350569 Z M102.650621,27.929598 L102.650621,12.8909584 C102.650621,11.637312 102.860475,11.2458673 103.495217,10.9337349 L97.8110302,10.9337349 L91.8379702,24.2479712 L85.8364115,10.9337349 L80.1807229,10.9337349 C80.8154658,11.2471465 81.0253195,11.637312 81.0253195,12.8909584 L81.0253195,27.9283187 C81.0253195,29.1806859 80.8141704,29.5721306 80.1807229,29.8842629 L85.0630615,29.8842629 C84.4283186,29.5721306 84.2171694,29.1806859 84.2171694,27.9283187 L84.2171694,15.8383066 L90.3314274,29.8842629 L92.5439597,29.8842629 L98.7372367,15.8536574 L98.7372367,27.9270395 C98.7372367,29.1794067 98.5247921,29.5708513 97.8900492,29.8829837 L103.495217,29.8829837 C102.860475,29.5734098 102.650621,29.1819651 102.650621,27.929598 Z M225.608089,12.8909584 C225.608089,11.637312 225.398235,11.2458673 224.763492,10.9337349 L234.043692,10.9337349 C238.38067,10.9337349 240.573772,13.0227192 240.573772,16.3896551 C240.573772,18.974981 238.77447,21.062686 236.446647,21.4554099 L240.360032,28.0344949 C240.78233,28.7393512 241.310851,29.5222406 242,29.8855422 L237.109889,29.8855422 L232.563057,22.3163324 L229.521473,22.3163324 L229.521473,27.929598 C229.521473,29.1819651 229.733918,29.5734098 230.36607,29.8855422 L224.762197,29.8855422 C225.39694,29.5734098 225.606794,29.1819651 225.606794,27.929598 L225.606794,12.8909584 L225.608089,12.8909584 L225.608089,12.8909584 Z M233.169302,13.9002716 L229.521473,13.9002716 L229.521473,19.3497957 L233.169302,19.3497957 C234.52817,19.3497957 235.491942,18.9532341 236.033417,18.2637286 C236.344311,17.8083223 236.498463,17.2505776 236.498463,16.6250336 C236.498463,16.0429835 236.362447,15.5223365 236.0943,15.0848395 C235.573552,14.3339309 234.594235,13.9002716 233.169302,13.9002716 Z" id="Shape"></path>
        </g>
    </g>
</svg>