<?xml version="1.0" encoding="UTF-8"?>
<svg width="276px" height="70px" viewBox="0 0 276 70" version="1.1" xmlns="http://www.w3.org/2000/svg" xmlns:xlink="http://www.w3.org/1999/xlink">
    <title>torani-logo</title>
    <g id="torani-logo" stroke="none" stroke-width="1" fill="none" fill-rule="evenodd">
        <g id="logo" transform="translate(138.4286, 35.1165) scale(-1, 1) rotate(-180) translate(-138.4286, -35.1165)translate(86, 8)" fill="#E21D25" fill-rule="nonzero">
            <path d="M22.2769451,35.2836721 L23.3923682,38.5569481 L24.5593149,41.8545909 L25.7638897,45.1393336 L31.1903018,46.0710061 L34.5209563,46.718399 L36.2032352,47.0891569 L37.9342205,47.5124706 L40.1255285,48.1168633 L40.8370232,48.3934984 L41.4783234,48.714567 L42.0575469,49.0795915 L42.5727836,49.479494 L42.8120177,49.6839842 L43.2436896,50.1120757 L43.6171049,50.5525896 L43.9442015,50.9864145 L44.2225917,51.4183283 L44.6547411,52.2257778 L45.0252913,53.1641392 L45.1260466,53.5086192 L45.1379844,53.7455984 L45.086413,53.8344656 L44.9393389,53.8726881 L44.813753,53.8473657 L44.6843469,53.7833431 L44.5587609,53.6873092 L44.1686327,53.2252952 L43.8849898,52.9257266 L43.5550282,52.6419249 L43.1534396,52.3920455 L42.6539608,52.1483773 L42.0293736,51.9104425 L41.2448194,51.6734633 L40.2769002,51.4231061 L37.6725433,50.8755694 L33.9789788,50.2033319 L20.2547723,47.8870507 L16.2944212,47.1374127 L12.8191757,46.3844303 L10.4439296,45.8392824 L7.88441122,45.1469781 L6.70495365,44.7833869 L5.58561499,44.4049846 L4.51588995,44.0127266 L2.60602821,43.2683442 L1.75338067,42.7638077 L1.51610437,42.5999289 L1.29768983,42.4126388 L1.09589276,42.1990708 L0.909519365,41.9582693 L0.742962766,41.7060011 L0.589633282,41.4264993 L0.339511875,40.82354 L0.159107394,40.1728026 L0.0445997316,39.483365 L1.36565577e-17,38.7829384 L0.0289372991,38.073434 L0.107440467,37.4274744 L0.213400643,36.8961822 L0.425846259,36.2683783 C0.425846259,36.2683783 0.679931025,35.545496 1.22792516,35.5368959 C1.22792516,35.5368959 1.37920133,35.5746406 1.33837396,35.724186 C1.21040042,36.214389 1.33837396,36.8603486 2.23461846,37.8058767 C2.31316938,37.8890106 2.78748322,38.287002 2.78748322,38.287002 L3.15120502,38.5402258 L4.22489342,39.1470073 L5.06111451,39.5430876 L6.04631971,39.9554124 L7.15806591,40.381115 L9.69127336,41.2535427 L12.5087922,42.1933374 L15.0163094,42.9424977 L17.8774729,43.6854468 L19.2354249,43.9912264 L20.5187416,44.2425391 L21.7125246,44.4317403 L20.7046852,42.1699262 L19.6435077,39.5746211 L18.5361069,36.7208366 L17.4098443,33.6171728 L16.2692085,30.3961661 L14.0230342,23.73466 L10.772793,13.2751792 L8.18505352,4.95844956 C8.18505352,4.95844956 7.75137604,3.8920429 7.60401548,3.53275177 C6.78555787,1.55239831 6.05620423,0.99903263 6.00587434,0.383698791 C5.95325239,-0.262786354 6.95827439,0.103193707 6.95827439,0.103193707 C6.95827439,0.103193707 9.0570881,1.040074 11.0695674,1.6249732 C11.5401567,1.7616185 11.6485522,1.7511551 11.9591267,2.01914233 C12.2752882,2.29539516 12.4478137,2.84670638 12.4478137,2.84670638 L15.4828398,13.1581707 L18.2800165,22.7074314 L20.1760781,28.8230251 L22.2769451,35.2836721" id="path14"></path>
            <polyline id="path16" points="95.1097393 50.3332882 95.2085846 50.1268869 95.3389457 49.9286079 95.5008226 49.7470512 95.7051983 49.5793502 95.9458649 49.4307604 96.2323728 49.2988929 96.5666321 49.1956922 97.0412802 49.1302363 97.4638793 49.1426586 97.9304097 49.2348703 98.1739414 49.3194375 98.4155631 49.4431827 98.648112 49.5970281 98.8773184 49.7929182 99.0864691 50.0346753 99.2841596 50.3194326 99.4574969 50.6581791 99.604571 51.0542594 99.7239493 51.5076733 99.7807733 52.0251099 99.7459149 52.493335 99.6270141 52.9166488 99.4422165 53.2835844 99.1962972 53.5903197 98.9021491 53.8435435 98.5803052 54.029878 98.2398383 54.1560121 97.7608925 54.2329348 97.2962722 54.2219458 96.8459773 54.1201785 96.4233781 53.9300218 96.0346824 53.6452645 95.8570475 53.4708745 95.6932604 53.2730732 95.3991123 52.8129704 95.1789787 52.2640003 95.0701057 51.8722201 94.9812883 51.2181382 94.9812883 50.9931035 95.0438425 50.5497229 95.1097393 50.3332882"></polyline>
            <path d="M95.895726,32.5922853 C96.2342829,32.9164596 97.5918529,34.6897906 98.3563515,36.116444 C99.172899,37.639609 99.1232377,38.230146 98.8792284,38.271713 C98.5492668,38.3271355 97.4447788,36.4752573 96.4152604,35.3582059 C96.4152604,35.3582059 95.659357,34.5646121 95.4067525,34.3295439 L95.0242645,33.9907974 L94.6489391,33.7065178 L94.2970119,33.4853053 L93.9598876,33.34436 L93.6518916,33.2975375 L93.5200979,33.3209487 L93.4031072,33.3930936 L93.3195424,33.5015499 L93.2593757,33.6482286 L93.2111469,33.9955752 L93.2498255,34.4059889 L93.5444511,35.5325959 L97.6009256,46.0991951 L97.6453344,46.3419078 L97.5746624,46.5076977 L97.4786823,46.5736314 L97.2294204,46.6395652 L96.9739508,46.6166317 L93.2101919,45.7012038 L92.9819406,45.5502251 L92.8124234,45.3409571 L92.8124234,45.3409571 L92.8124234,45.3395237 L92.6481589,44.9520435 L90.8407715,40.3094479 L90.8407715,40.3094479 L90.8355188,40.29607 C90.8355188,40.29607 89.5505308,36.1627887 86.5398102,32.7904688 C86.3359121,32.5603696 85.8345232,32.1033245 85.8345232,32.1033245 L85.1860603,31.5559311 L84.8871371,31.3472364 L84.6149545,31.1859854 L84.269235,31.0600424 L84.1694347,31.0531146 L84.0395511,31.0794403 L83.9325882,31.1473807 L83.854276,31.2559803 L83.7979295,31.3939156 L83.7735763,31.7481423 L83.8686014,32.1712171 L86.1157785,38.2401794 L86.4543353,39.378731 L86.7336805,40.4327153 L86.8010099,40.8006065 L86.8344358,41.1517754 L86.8267956,41.479533 L86.7842969,41.7900905 L86.7131475,42.0777145 L86.6133472,42.3467051 L86.4815536,42.5946733 L86.3282718,42.8139746 L86.1496819,43.0084314 L85.9462613,43.1852103 L85.7299478,43.3342779 L85.2361992,43.5507126 L84.5796186,43.6486576 L83.9774744,43.6486576 C83.9774744,43.6486576 82.946046,43.565046 82.0454561,43.0600317 C81.4146612,42.706474 80.8211123,42.2339488 80.5274417,42.0079585 C78.9435304,40.7920065 76.9503904,37.8608215 76.9503904,37.8608215 L78.3686046,41.6028004 L78.3566667,41.7165122 L78.2974551,41.8010794 L78.2005199,41.8631909 L77.9541231,41.9147913 L77.7096364,41.8952022 L74.0456777,40.9821632 L73.8947835,40.9248295 L73.6517293,40.7485284 L73.4654992,40.5024713 L73.2744939,40.1092578 C73.2744939,40.1092578 71.9484398,36.8331151 71.6476065,36.0395213 C69.7447164,31.0174722 66.8910976,27.9495941 65.9503966,27.1412846 C65.8205131,27.0306306 65.6844218,26.9490734 65.6844218,26.9490734 L65.4151044,26.8154382 L65.0483742,26.7045452 L64.7905171,26.7180187 L64.6749589,26.7831402 L64.5904391,26.8859586 L64.5403002,27.0220306 L64.5059192,27.3753494 L64.5579682,27.812041 L64.8697843,28.8872389 L68.6583739,39.0868069 L68.6894123,39.2215411 L68.6875022,39.3467197 L68.6397509,39.4379758 L68.5576186,39.5148985 L68.4468356,39.5621988 L68.1522099,39.5789211 L64.1683174,38.5889594 L63.9481838,38.459003 L63.8144802,38.2889131 L63.3995212,37.2225064 C63.3995212,37.2225064 63.2405093,37.9659333 61.7010068,37.9893445 L61.0950426,37.914333 L60.512954,37.7991878 L59.9428032,37.6357868 L59.3927081,37.4312966 L58.8602809,37.1904951 L58.3431341,36.9100378 L57.8479529,36.6013914 L57.3604119,36.2588226 L56.8981792,35.891887 L56.4478842,35.4981957 L56.0147798,35.083482 L55.2006198,34.1976764 L54.4585643,33.2574039 L53.7876583,32.2759467 L53.1912443,31.2812071 L52.6588171,30.2933476 L52.200882,29.3355405 L51.8145738,28.4185837 L51.5108754,27.5761607 L51.2678212,26.8239904 L51.1107194,26.1832864 L50.9082538,25.0101436 L50.8323292,23.988505 L50.8662326,23.1141184 L51.009009,22.3707393 L51.2348728,21.7638144 L51.3795593,21.4982639 L51.5404812,21.2697891 L51.7157286,21.0701245 L51.9095989,20.8857012 L52.1096769,20.745377 L52.5599719,20.5130322 L53.0303224,20.3763869 L53.5216834,20.3248821 C53.5216834,20.3248821 53.8425723,20.3172376 54.032145,20.3530712 C57.9028669,21.0964503 59.842048,25.1556756 59.842048,25.1556756 C59.842048,25.1556756 59.8716538,24.353195 60.2488892,23.597107 C60.3548971,23.388269 60.4704553,23.2121112 60.4704553,23.2121112 L60.7340426,22.9138805 L61.0329658,22.6908524 L61.2870029,22.5751339 L61.6284248,22.4930034 C61.6284248,22.4930034 61.72727,22.468541 62.0467263,22.468541 C64.0861852,22.468541 68.6087125,27.7177749 68.6087125,27.7177749 L67.556751,24.9567277 L67.5238026,24.653098 L67.556751,24.5482251 L67.6054573,24.4677668 L67.6847245,24.4192243 L67.9349414,24.397772 L68.9606398,24.6424435 L72.2043868,25.4449718 L72.3605336,25.5039778 L72.4780019,25.6041684 L72.572072,25.7322136 L72.6427439,25.8854379 C72.6427439,25.8854379 72.5863974,25.7146791 73.1450878,27.1898272 C73.5175481,28.1756322 74.472097,31.373371 76.4528216,34.3744553 C77.4350663,35.8598757 78.5758453,37.3930742 80.3684298,39.6047213 C80.8211123,40.1651581 81.3506744,40.5115492 81.3506744,40.5115492 L81.5755831,40.6200054 L81.7804363,40.6916725 L81.9723966,40.6706502 L82.149554,40.5899052 L82.2751399,40.4288931 L82.3119084,40.193825 L82.276095,40.0514463 L79.6125264,32.9571665 L79.0590886,31.3752344 L78.872381,30.6018507 L78.818422,30.1380689 L78.8060066,29.7082573 L78.8260622,29.299707 L78.8843188,28.9181991 L78.982209,28.5698013 L79.1130476,28.2543705 L79.2792222,27.9710465 L79.4845529,27.7245116 L79.7185343,27.5158648 L79.9811666,27.3538493 L80.2781798,27.2345952 L80.6057538,27.1519391 L80.9615011,27.1218867 L81.3439892,27.1375579 L82.0148952,27.275111 L82.7359401,27.537126 L83.1618819,27.754564 L83.8767191,28.2164825 L85.0542667,29.1335826 L85.5107693,29.5470063 L86.4858512,30.5303747 L87.4843313,31.6412149 L88.4579807,32.7904688 L88.3787135,32.315698 L88.3600905,31.8801053 L88.3853987,31.4840728 L88.4579807,31.1346718 L88.5811791,30.8192887 L88.7311182,30.5428447 L88.9187809,30.3067733 L89.1432121,30.1040987 L89.3896089,29.9381654 L89.6579713,29.8080657 L89.9463893,29.7110284 L90.2477001,29.6509236 L90.8732424,29.6188645 L91.5097674,29.7110284 L92.1907012,29.9215387 L92.8635173,30.2196261 L93.5224855,30.5893328 L94.1494603,31.0223455 L94.753037,31.509443 L95.3379906,32.0333296 L95.895726,32.5922853 Z M62.2549221,34.1131092 L60.3620598,29.0764878 L59.8921868,28.1563776 L59.1658893,26.8900675 L58.6645004,26.156244 L58.1621566,25.5341735 L57.9028669,25.2702952 L57.6550376,25.0362304 L57.3928828,24.8421558 L57.1398008,24.690986 L56.891494,24.5743597 L56.638412,24.5019282 L56.3920152,24.482148 L56.2053075,24.5019282 L56.0439081,24.5694864 L55.8982666,24.6870682 L55.7717256,24.849227 L55.6709703,25.0761729 L55.5983883,25.3527601 L55.5496819,25.6984345 L55.5344015,26.1028759 L55.587883,26.961018 L55.733047,27.840039 L55.9775337,28.7269434 L56.2898274,29.6130356 L56.6723154,30.4874222 L57.1144926,31.3366297 L57.6039437,32.1565015 L58.1330283,32.9360486 L58.6931512,33.6616064 L59.2785824,34.3238106 C59.2785824,34.3238106 61.3801179,36.6907364 62.3637951,36.2325447 C63.0891376,35.8966648 62.2549221,34.1131092 62.2549221,34.1131092" id="path18"></path>
            <path d="M41.0915377,21.7194286 C41.5227321,22.8461312 42.2676527,24.867526 43.5258999,26.9240377 C44.7158628,28.8697043 45.6732767,29.8790162 46.5963097,30.0740463 C47.1989313,30.2020915 47.440553,29.6003744 47.5279379,29.4025254 C47.8808202,28.6164327 48.4968122,28.4185837 48.8835979,28.3698979 C50.3739165,28.1817478 51.4058225,30.2341506 51.6207034,30.7194325 C52.0051016,31.5879902 52.3269454,33.1823923 51.2936069,34.2206099 C50.2707737,35.2473608 48.8506494,34.7361354 48.8506494,34.7361354 C46.2310121,33.9979641 43.9265335,29.8295659 43.9265335,29.8295659 L45.2425598,33.3056598 L45.3127543,33.4590274 L45.3017715,33.5980616 L45.2554527,33.7084289 L45.176663,33.7958628 L45.0759077,33.856541 L44.8080228,33.8871189 L41.5337149,33.0825839 L40.849916,32.8543003 L40.6336025,32.713785 L40.5509928,32.6331356 L40.4306594,32.4508144 L38.9942998,28.7289979 L38.4881358,28.1756322 L37.8850366,27.5604895 L37.2351412,26.9559535 L36.5618476,26.3882066 L35.8675434,25.8854379 L35.1632115,25.4576808 L34.4622221,25.1441133 L33.9169021,25.0082802 C34.1962473,26.1622163 34.0849867,27.6974692 34.0849867,27.6974692 L33.9345701,28.3911591 L33.7268518,28.9286625 L33.5826428,29.1996597 L33.405963,29.4618658 L33.1953796,29.7110284 L32.9480278,29.9400288 L32.6629524,30.14084 L32.1448506,30.380686 L31.7513798,30.4874222 L31.0604182,30.5466192 C31.0604182,30.5466192 26.4167457,30.8901914 22.9074058,24.8259113 C21.1577497,21.8045213 20.4399997,18.2751071 20.839535,16.3516573 C21.6347377,12.5350013 25.0440863,13.077378 25.0440863,13.077378 L25.558177,13.1471818 L26.047055,13.2608458 L26.5214166,13.4161246 L26.9821213,13.6072369 L27.4156078,13.8350905 L27.8384935,14.0965799 L28.2421354,14.3884562 L28.6319771,14.7061326 L29.0003786,15.0424425 L29.351876,15.4084225 L30.0132318,16.1829529 L30.6048706,17.0129059 L31.1392079,17.8686112 C31.1392079,17.8686112 32.0101919,19.3396504 32.7465173,21.2087765 C33.025385,21.9239665 33.4021429,23.0195178 33.4021429,23.0195178 L33.8586455,23.1089106 L34.439779,23.3263008 L35.0199575,23.6038437 L35.6015686,23.9291646 L36.1741069,24.3016425 L36.7413926,24.7171206 L37.299128,25.1665212 L37.8439705,25.6360841 L34.3972803,16.5771221 L34.3972803,16.3964254 L34.439779,16.3382317 L34.5687076,16.2790346 L34.8208345,16.2986714 L39.2039281,17.3960383 L39.3166212,17.4619242 L39.4202415,17.5580537 L39.6102918,17.8471589 L39.9225854,18.668894 L41.0915377,21.7194286 Z M30.9577529,21.5086795 C30.6573971,20.7322858 30.2844593,19.9335319 30.2844593,19.9335319 L29.9869686,19.3234059 L29.6813601,18.7730502 L29.3652464,18.2732437 L29.0491327,17.8288599 L28.7213199,17.4438163 L28.401959,17.119451 L28.0791124,16.8361748 L27.7580803,16.6129556 L27.4465984,16.4322589 L27.1352598,16.3128137 L26.8357158,16.2402388 L26.4049989,16.2196943 L26.1352994,16.289498 L25.8937255,16.4303956 L25.7849958,16.5283884 L25.5990044,16.7964234 L25.4468209,17.1495034 L25.3456836,17.5967062 L25.2953537,18.1414718 L25.2856602,18.7945026 L25.3537059,19.6697969 L25.5648622,20.9913385 L25.9084807,22.3043278 L26.1994295,23.1566887 L26.537079,23.988505 L26.9073428,24.7801877 L27.3089314,25.5272935 L27.7329153,26.2260478 L28.1798199,26.862834 L28.643533,27.4178719 L29.1112094,27.8971338 L29.5796498,28.2844229 L30.0418826,28.5737191 L30.4983852,28.7523136 L30.9381748,28.8105551 L31.1392079,28.7950272 L30.9033164,28.5376945 L30.6831828,28.2543705 L30.4874024,27.9262784 L30.3116775,27.5653151 L30.1731987,27.1694737 L30.0705334,26.7415255 L30.0003389,26.2775526 L29.9869686,25.472062 L30.0538204,24.9130585 L30.1798839,24.4250532 L30.3503561,24.0105307 L30.6550095,23.5183687 C30.9357873,23.1992112 31.4366986,23.0195178 31.4366986,23.0195178 C31.4366986,23.0195178 31.2547661,22.2832099 30.9577529,21.5086795" id="path20"></path>
            <path d="M101.718044,30.714368 L102.01076,30.714368 C102.352182,30.714368 102.628662,30.8295132 102.628662,31.1089194 C102.628662,31.3556454 102.449595,31.5199064 102.059466,31.5199064 C101.897112,31.5199064 101.782986,31.5036619 101.718044,31.4872262 L101.718044,30.714368 Z M101.701809,29.2024786 L101.083907,29.2024786 L101.083907,31.8817775 C101.327439,31.9310367 101.66886,31.9801048 102.108173,31.9801048 C102.612427,31.9801048 102.840678,31.8980221 103.035503,31.7664413 C103.181622,31.6514872 103.295748,31.437967 103.295748,31.191241 C103.295748,30.8788202 103.067974,30.6488643 102.74231,30.5501548 L102.74231,30.5174746 C103.002555,30.435153 103.149151,30.2214894 103.230806,29.8598094 C103.311983,29.4488224 103.36069,29.2842269 103.425631,29.2024786 L102.759023,29.2024786 C102.677846,29.3008059 102.628662,29.5309529 102.547485,29.8431826 C102.498778,30.1389767 102.336424,30.2705575 101.994524,30.2705575 L101.701809,30.2705575 L101.701809,29.2024786 Z M102.108173,32.7531541 C100.93731,32.7531541 100.058686,31.7830203 100.058686,30.599414 C100.058686,29.3993721 100.93731,28.4460561 102.141121,28.4460561 C103.311983,28.4296205 104.174372,29.3993721 104.174372,30.599414 C104.174372,31.7830203 103.311983,32.7531541 102.124886,32.7531541 L102.108173,32.7531541 Z M102.141121,33.2951486 C103.669641,33.2951486 104.857216,32.0954411 104.857216,30.599414 C104.857216,29.0708978 103.669641,27.8870526 102.124886,27.8870526 C100.595411,27.8870526 99.3758421,29.0708978 99.3758421,30.599414 C99.3758421,32.0954411 100.595411,33.2951486 102.124886,33.2951486 L102.141121,33.2951486" id="path22"></path>
        </g>
    </g>
</svg>