<?xml version="1.0" encoding="UTF-8"?>
<svg width="276px" height="70px" viewBox="0 0 276 70" version="1.1" xmlns="http://www.w3.org/2000/svg" xmlns:xlink="http://www.w3.org/1999/xlink">
    <title>university-mechanical-contractors-logo</title>
    <g id="university-mechanical-contractors-logo" stroke="none" stroke-width="1" fill="none" fill-rule="evenodd">
        <g id="Group-2" transform="translate(64, 11)">
            <g id="Group">
                <path d="M38.6091975,22.2024538 L38.6091975,27.9938334 L33.5685523,30.8895233 L33.5685523,25.0981436 L38.6091975,22.2024538 Z M25.9539606,44.1882469 L25.9539606,20.5937373 L46.331037,8.79648246 L46.331037,14.5878621 L31.5308446,23.1676838 C31.1018536,23.3821793 30.7801103,23.9184182 30.7801103,24.454657 L30.7801103,34.3214519 C30.7801103,34.9649386 31.4235969,35.3939296 31.9598357,35.0721863 L46.331037,26.7068602 L46.331037,32.4982398 L25.9539606,44.1882469 Z M24.5597395,18.1270385 L16.7306523,13.6226321 C16.1944134,13.3008888 15.5509268,13.7298799 15.5509268,14.3733665 L15.5509268,30.996771 L10.6175293,28.1010812 L10.6175293,4.29207608 L24.5597395,12.3356589 L38.6091975,4.18482831 L38.6091975,9.97620794 L24.5597395,18.1270385 Z M2.78844204,32.4982398 L2.78844204,8.90373023 L7.72183951,11.6921723 L7.72183951,28.8518156 C7.72183951,29.3880545 8.04358282,29.8170456 8.4725739,30.1387889 L16.9451478,35.0721863 C17.4813867,35.3939296 18.1248733,34.9649386 18.1248733,34.3214519 L18.1248733,17.6980474 L23.0582707,20.5937373 L23.0582707,44.1882469 L2.78844204,32.4982398 Z M49.0122313,23.2749315 C49.0122313,22.6314449 48.3687447,22.2024538 47.8325058,22.5241971 L41.2903918,26.2778691 L41.2903918,20.4864895 L48.2614969,16.4110742 C48.690488,16.1965786 49.0122313,15.6603398 49.0122313,15.1241009 L49.0122313,5.25730602 C49.0122313,4.61381939 48.3687447,4.18482831 47.8325058,4.50657162 L41.3976396,8.47473914 L41.3976396,0.860147409 C41.3976396,0.216660784 40.7541529,-0.2123303 40.2179141,0.109413013 L24.5597395,9.11822577 L9.00881276,0.216660784 C8.36532613,-0.105082529 7.72183951,0.216660784 7.72183951,0.860147409 L7.72183951,8.47473914 L1.28697325,4.72106716 C0.750734396,4.39932385 0,4.82831493 0,5.47180156 L0,33.2489742 C0,33.7852131 0.321743313,34.2142042 0.750734396,34.5359475 L23.8090051,47.8346711 C24.2379962,48.0491666 24.7742351,48.0491666 25.3104739,47.8346711 L48.3687447,34.5359475 C48.7977358,34.3214519 49.1194791,33.7852131 49.1194791,33.2489742 L49.0122313,23.2749315 Z" id="Shape" fill="#FF570F"></path>
                <path d="M44.2933294,45.5824679 L44.2933294,48.1564144 L43.7570905,48.1564144 L43.7570905,45.5824679 L42.7918606,45.5824679 L42.7918606,45.1534768 L45.1513116,45.1534768 L45.1513116,45.5824679 L44.2933294,45.5824679 L44.2933294,45.5824679 Z M48.5832402,48.1564144 L48.5832402,45.6897156 L47.6180103,48.1564144 L47.296267,48.1564144 L46.331037,45.6897156 L46.331037,48.1564144 L45.7947982,48.1564144 L45.7947982,45.1534768 L46.5455326,45.1534768 L47.4035147,47.40568 L48.2614969,45.1534768 L49.0122313,45.1534768 L49.0122313,48.1564144 L48.5832402,48.1564144 L48.5832402,48.1564144 Z" id="Shape" fill="#000000" fill-rule="nonzero"></path>
            </g>
            <g id="Group" transform="translate(60.0588, 11.7973)" fill="#000000" fill-rule="nonzero">
                <path d="M53.1174916,0.000814135048 C55.6567987,0.000814135048 57.7994208,0.831730719 59.5453575,2.49319957 C61.3309629,4.11332289 62.2036703,6.48094335 62.2036703,9.59624303 L62.2036703,23.5945096 L55.1807766,23.5945096 L55.1807766,11.0498916 C55.1807766,8.18393982 53.6333563,6.73010909 51.5304029,6.73010909 C49.1495958,6.73010909 47.4433275,8.43310556 47.4433275,11.2994216 L47.4433275,23.5945096 L40.4599284,23.5945096 L40.4599284,11.0498916 C40.4599284,8.35005031 38.9125082,6.73010909 36.6905492,6.73010909 C34.4289216,6.73010909 32.7228273,8.43310556 32.7228273,11.2994216 L32.7228273,23.5945096 L25.7394282,23.5945096 L25.7394282,0.665620223 L32.5641532,0.665620223 L32.5641532,3.86379294 C33.7940514,1.49617259 36.531875,-0.0405312749 39.3490359,0.000814135048 C42.2852022,0.0425238656 44.3088186,1.3300621 45.4198851,3.82244753 C47.0466423,1.3300621 49.9828086,0.000814135048 53.1174916,0.000814135048 Z M7.44074981,0.125069794 L7.44074981,12.1591261 C7.44074981,15.1263929 8.99614412,16.8572384 11.5183603,16.8572384 C14.2088717,16.8572384 16.0584602,14.9202022 16.0584602,11.9529354 L16.0584602,0.125069794 L23.4571822,0.125069794 L23.4571822,22.8741762 L16.226571,22.8741762 L16.226571,19.7008993 C15.0916382,21.8439455 12.3170714,23.492387 8.9541164,23.492387 C6.47374358,23.492387 4.32977684,22.6681662 2.60627165,21.0609268 C0.882766457,19.4535066 0,17.1044504 0,14.0961623 L0,0.125069794 L7.44074981,0.125069794 Z M76.8584716,0.0898188456 C81.6929497,0.0898188456 85.9386711,2.35560132 87.9147113,6.60367748 L81.9871437,9.59751917 C80.8101832,7.69594358 79.1705491,6.72519811 77.0267668,6.72519811 C75.4713724,6.72519811 74.2101722,7.21057084 73.2011382,8.18149382 C72.2343163,9.15241668 71.7297994,10.3662034 71.7297994,11.7822289 C71.7297994,14.7356228 73.9578215,16.9203325 76.942527,16.9203325 C79.0866781,16.9203325 81.0623495,15.7876186 81.9030883,14.047834 L87.8304715,17.4463304 C85.812588,21.168586 81.6507376,23.4744615 76.7325728,23.4744615 C73.0752394,23.4744615 70.1325617,22.3820179 67.8202997,20.1974857 C65.5504341,18.012776 64.4151327,15.2209955 64.4151327,11.7822289 C64.4151327,8.34328469 65.5504341,5.55168174 67.8625118,3.36697204 C70.174405,1.18226234 73.1591105,0.0898188456 76.8584716,0.0898188456 Z" id="Combined-Shape"></path>
            </g>
        </g>
    </g>
</svg>