<?xml version="1.0" encoding="UTF-8"?>
<svg width="276px" height="70px" viewBox="0 0 276 70" version="1.1" xmlns="http://www.w3.org/2000/svg" xmlns:xlink="http://www.w3.org/1999/xlink">
    <title>upgrade-logo</title>
    <g id="upgrade-logo" stroke="none" stroke-width="1" fill="none" fill-rule="evenodd">
        <g id="group" transform="translate(45, 14)" fill-rule="nonzero">
            <path d="M56.2598104,12.5312665 L56.2598104,23.3313574 C56.2598104,26.22016 53.8811786,28.5628713 50.9480903,28.5628713 C48.015002,28.5628713 45.6363701,26.22016 45.6363701,23.3313574 L45.6363701,12.5312665 L41.6302895,12.5312665 L41.6302895,23.1703544 C41.6302895,28.2382083 45.8024905,32.3474252 50.9480903,32.3474252 C56.0937884,32.3474252 60.2659894,28.2382083 60.2659894,23.1703544 L60.2659894,12.5312665 L56.2598104,12.5312665 Z" id="Path" fill="#0E680E"></path>
            <path d="M18.6714237,0.0432477001 L18.6714237,25.1814153 C18.6714237,31.5150517 13.4593954,36.6483499 7.02859639,36.6483499 C6.19569142,36.6483499 5.38577564,36.5602706 4.60395664,36.3967089 C7.58557218,39.4389368 11.7679786,41.3337724 16.4001599,41.3337724 C25.4573642,41.3337724 32.7977611,34.1018261 32.7977611,25.1839741 L32.7977611,0.0432477001 L18.6714237,0.0432477001 Z" id="Path" fill="#4A9D2D"></path>
            <path d="M7.0286456,32.1389874 C3.14513787,32.1389874 0,29.0387945 0,25.2139899 L0,4.49199266 L14.0598106,4.49199266 L14.0598106,25.2139899 C14.0598106,29.0387945 10.9121828,32.1389874 7.0286456,32.1389874 Z" id="Path" fill="#0E680E"></path>
            <path d="M83.5388898,22.1332827 C83.5388898,28.2077004 78.9809115,32.2690888 73.8735942,32.2690888 C70.9277123,32.2690888 68.4928868,31.262525 66.8014699,29.521213 L66.8014699,38.6379568 L62.7161672,38.6379568 L62.7161672,12.538549 L66.8014699,12.538549 L66.8014699,14.7427938 C68.4903281,13.0014818 70.9251535,11.9950164 73.8735942,11.9950164 C78.9809115,11.9950164 83.5388898,16.0966556 83.5388898,22.1308224 M79.5710917,22.1308224 C79.5710917,18.107126 76.7810952,15.5531229 73.2067506,15.5531229 C69.9849198,15.5531229 66.8040287,18.107126 66.8040287,22.1308224 C66.8040287,26.1544204 69.9849198,28.7085219 73.2067506,28.7085219 C76.7810952,28.7085219 79.5710917,26.1946712 79.5710917,22.1308224 Z" id="Shape" fill="#0E680E"></path>
            <path d="M121.415527,12.4608031 L121.139972,16.3309759 C120.826036,16.2931855 120.355624,16.2931855 120.000354,16.2931855 C115.051186,16.2931855 112.614491,19.6977684 112.614491,24.959495 L112.614491,31.7308704 L108.528401,31.7308704 L108.528401,12.5388442 L112.614491,12.5388442 L112.614491,16.6404834 C114.185155,14.0863819 116.661216,12.3073779 120.038735,12.3073779 C120.511115,12.3073779 120.902797,12.3073779 121.413559,12.4633618" id="Path" fill="#0E680E"></path>
            <path d="M142.261278,31.7288038 L138.176172,31.7288038 L138.176172,29.5244606 C136.487412,31.2657726 134.049733,32.2723364 131.104245,32.2723364 C125.996632,32.2723364 121.441114,28.210948 121.441114,22.1365304 C121.441114,16.0621127 125.996632,12.0007243 131.104245,12.0007243 C134.049733,12.0007243 136.487412,13.0072881 138.176172,14.7486001 L138.176172,12.5442569 L142.261278,12.5442569 L142.261278,31.7288038 Z M138.176172,22.13407 C138.176172,18.1103736 134.995478,15.5563705 131.77345,15.5563705 C128.199106,15.5563705 125.409109,18.1103736 125.409109,22.13407 C125.409109,26.1576681 128.199106,28.7117696 131.77345,28.7117696 C134.995478,28.7117696 138.176172,26.1979188 138.176172,22.13407 Z" id="Shape" fill="#0E680E"></path>
            <path d="M181.375355,26.2427949 C179.998563,28.2885955 178.036216,28.7893187 176.102409,28.7893187 C173.235651,28.7893187 170.601146,26.6605563 170.210449,23.1024498 L186.002714,23.1024498 L186.002714,21.7084357 C185.805889,15.9435256 181.485577,11.9978703 176.260853,11.9978703 C170.759591,11.9978703 166.163724,16.0592588 166.163724,22.1739271 C166.163724,28.2885955 170.797972,32.2719428 176.102409,32.2719428 C180.419769,32.2719428 183.877002,30.2613739 185.489,26.2427949 L181.378307,26.2427949 L181.375355,26.2427949 Z M176.257901,15.5585356 C178.927834,15.5585356 181.168688,17.1060733 181.796561,20.2388407 L170.325591,20.2388407 C170.953463,17.1437653 173.703111,15.5585356 176.257901,15.5585356 Z" id="Shape" fill="#0E680E"></path>
            <path d="M160.59062,0 L160.59062,14.1896167 C158.82313,12.89372 156.59999,12.1639908 154.198723,12.1639908 C148.485873,12.1639908 143.823086,16.2404363 143.823086,22.2217556 C143.823086,28.203075 148.485873,32.3172126 154.198723,32.3172126 C159.911573,32.3172126 164.302742,28.4269636 164.553694,22.7124407 L164.566488,22.7124407 L164.566488,0 L160.59062,0 Z M154.198723,28.8195313 C150.818251,28.8195313 147.785176,26.2176997 147.785176,22.2191969 C147.785176,18.2207925 150.815299,15.6188625 154.198723,15.6188625 C157.581163,15.6188625 160.572905,18.2207925 160.572905,22.2191969 C160.572905,26.2176997 157.502433,28.8195313 154.198723,28.8195313 Z" id="Shape" fill="#0E680E"></path>
            <path d="M101.973139,12.538549 L101.973139,14.7427938 C100.284379,13.0014818 97.8466016,11.9950164 94.9008181,11.9950164 C89.7935008,11.9950164 85.2379828,16.0966556 85.2379828,22.1308224 C85.2379828,28.1649893 89.7960595,32.2665301 94.9008181,32.2665301 C97.8466016,32.2665301 100.284379,31.2600647 101.973139,29.5187526 L101.973139,29.9892632 C101.973139,33.5473697 99.6555231,36.5845785 95.9611151,36.5845785 C92.2666087,36.5845785 90.9176676,35.0672535 89.4639171,32.8226595 L86.3238671,34.8710188 C87.8951223,37.7345294 90.2686367,40.2231865 95.9611151,40.2231865 C102.049901,40.2231865 106.058245,35.6610749 106.058245,30.0697646 L106.058245,12.538549 L101.973139,12.538549 Z M95.5702204,28.7109823 C91.9957773,28.7109823 89.2057809,26.1971315 89.2057809,22.1332827 C89.2057809,18.069434 91.9957773,15.5555832 95.5702204,15.5555832 C98.7924448,15.5555832 101.973139,18.1096847 101.973139,22.1332827 C101.973139,26.1568808 98.7894924,28.7109823 95.5702204,28.7109823 Z" id="Shape" fill="#0E680E"></path>
        </g>
    </g>
</svg>