<?xml version="1.0" encoding="UTF-8"?>
<svg width="276px" height="70px" viewBox="0 0 276 70" version="1.1" xmlns="http://www.w3.org/2000/svg" xmlns:xlink="http://www.w3.org/1999/xlink">
    <title>washington-square-capital-realty-logo</title>
    <g id="washington-square-capital-realty-logo" stroke="none" stroke-width="1" fill="none" fill-rule="evenodd">
        <g id="group" transform="translate(7, 8)" fill-rule="nonzero">
            <g id="Group-2" transform="translate(63.6938, 7.5826)" fill="#070707">
                <g id="Group">
                    <path d="M24.7002966,0.583287 C21.3038004,2.09293701 19.1219452,7.91525484 17.9220113,12.3170309 L16.628211,8.05973139 C15.5264692,4.36130512 15.9188052,3.04068578 15.9188052,3.04068578 L9.20799996,3.04068578 C9.20799996,3.04068578 10.5303496,4.80252088 11.6320913,8.01041901 L11.9262351,8.94129775 L9.84473486,15.6023581 C9.82007872,15.6758941 9.79542253,15.7252064 9.77076634,15.7983098 L7.41977843,8.05973139 C6.3180367,4.36130512 6.7103727,3.04068578 6.7103727,3.04068578 L0,3.04068578 C0,3.04068578 1.32191703,4.80252088 2.42409131,8.01041901 L5.06879053,16.4108211 C5.73018157,18.4676652 5.80371753,20.0352788 5.51000625,20.5002857 L11.1424283,20.5002857 C11.1424283,20.5002857 10.2850855,18.4434416 11.0688923,15.6270143 L12.56297,10.9250385 L14.2772231,16.4108211 C14.913958,18.4676652 15.0121501,20.0352788 14.6937826,20.5002857 L20.2773248,20.5002857 C20.2773248,20.5002857 20.268241,20.4756295 20.2556966,20.4375638 L20.2833808,20.4604897 C20.2833808,20.4604897 22.3030243,8.35387523 24.978003,4.32280688 C26.1731787,2.52117584 28.1755196,1.58726914 30.2751875,2.63710312 C32.622715,3.81065054 29.9819088,-1.7642404 24.7002966,0.583287" id="Fill-35"></path>
                    <path d="M34.7277467,20.3305303 C34.1048539,19.006883 34.0010384,17.9946821 34.0010384,16.0740959 L34.0010384,12.4665081 C34.0010384,8.36579695 32.2361753,6.99024189 29.1995727,6.99024189 C25.9034314,6.99024189 23.9828452,8.8848743 23.9828452,11.5321689 L23.9828452,12.103154 L28.1354641,12.3626927 C27.7461561,11.506215 27.5385252,10.5978296 27.5385252,9.84516742 C27.5385252,8.96273588 27.8499716,8.3138892 28.6026337,8.3138892 C29.5110192,8.3138892 29.7705578,9.22227461 29.7705578,10.6237835 L29.7705578,12.1810156 C29.7705578,12.88177 29.6667424,13.0374933 27.2270787,14.1275557 C25.0988615,15.0878489 23.3859062,15.9702804 23.3859062,17.8389589 C23.3859062,19.4221449 24.5019225,20.5381613 26.188924,20.5381613 C27.7461561,20.5381613 28.9140802,19.7335913 29.7965117,18.617575 C29.8743733,19.2664217 30.0820043,19.8374068 30.3415429,20.3305303 L34.7277467,20.3305303 Z M29.0957573,17.9168205 C28.2392796,17.9168205 27.6423406,17.2160661 27.6423406,16.1000498 C27.6423406,15.061895 27.9537871,14.5947254 29.1995727,14.5947254 C29.5629269,14.5947254 29.7705578,14.672587 29.7705578,15.3733414 L29.7705578,17.8389589 C29.536973,17.8908667 29.3293421,17.9168205 29.0957573,17.9168205 Z" id="Shape"></path>
                    <path d="M39.2696737,8.78105884 C40.8269058,8.78105884 42.955123,10.4680603 43.9932778,12.3626927 L44.4604474,7.48336542 C43.9154161,7.27573445 42.6696305,6.99024189 41.3459832,6.99024189 C37.8681648,7.04214965 35.662086,9.01464364 35.662086,11.3245379 C35.662086,12.9336778 36.5185636,13.7122938 38.4651037,14.9580795 L40.5154594,16.255773 C42.1245992,17.2679738 42.4879534,17.7351434 42.4879534,18.3061285 C42.4879534,18.6954366 42.2024608,18.9030675 41.7871989,18.9030675 C40.9566751,18.9030675 39.5811201,18.0465899 37.7643493,15.5031108 L35.272778,17.7610973 C36.1552095,19.214514 37.9719803,20.6419767 40.3078285,20.6419767 C43.0848923,20.6419767 45.0573863,18.5137595 45.0573863,16.1779113 C45.0573863,14.3092328 43.7337391,13.1413087 42.8253537,12.5443697 L41.4497987,11.6359844 C39.4773046,10.3382909 38.6467808,9.74135196 38.6467808,9.27418231 C38.6467808,8.96273588 38.8803657,8.78105884 39.2696737,8.78105884 Z" id="Path"></path>
                    <path d="M56.8404428,15.7886033 L56.8404428,10.6237835 C56.8404428,8.3138892 55.9061036,6.96428802 54.0633789,6.96428802 C52.5580542,6.96428802 51.1824992,7.87267343 50.5596062,9.42990553 L50.5596062,1.69565274 C49.0023744,2.42236106 47.49705,2.99334616 45.8619563,3.46051579 C46.4069875,4.65439374 46.4069875,5.53682525 46.4069875,6.78261097 L46.4069875,16.8267581 C46.4069875,18.3061285 46.3550798,19.0847446 45.8100485,20.3305303 L51.1565455,20.3305303 C50.6115142,19.0847446 50.5596062,18.3061285 50.5596062,16.8267581 L50.5596062,10.1566139 C50.8970067,9.74135196 51.3122688,9.55967487 51.675623,9.55967487 C52.3244697,9.55967487 52.6878239,9.84516742 52.6878239,11.116907 L52.6878239,15.8664649 C52.6878239,17.7091896 52.7656851,19.2664217 53.0252238,20.3305303 L57.5411969,20.3305303 C57.0480736,18.8252059 56.8404428,17.7091896 56.8404428,15.7886033 Z" id="Path"></path>
                    <path d="M61.1487851,6.52307225 C62.680063,6.52307225 63.6922638,5.45896367 63.6922638,4.1093625 C63.6922638,2.73380748 62.680063,1.66969887 61.1487851,1.66969887 C59.6694141,1.66969887 58.6572132,2.73380748 58.6572132,4.1093625 C58.6572132,5.45896367 59.6694141,6.52307225 61.1487851,6.52307225 Z M58.5274441,20.3305303 L63.8220335,20.3305303 C63.3029559,18.8252059 63.251048,18.4878056 63.251048,17.0862967 L63.251048,6.91238031 C61.6678621,7.69099634 60.2144454,8.21007374 58.5274441,8.67724333 C59.0724753,9.8711213 59.0984291,10.7535528 59.0984291,11.713846 L59.0984291,17.0862967 C59.0984291,18.4878056 59.0465216,18.8252059 58.5274441,20.3305303 Z" id="Shape"></path>
                    <path d="M76.1501206,15.7886033 L76.1501206,10.6237835 C76.1501206,8.3138892 75.2157814,6.96428802 73.3730567,6.96428802 C71.8417788,6.96428802 70.4921775,7.89862731 69.8692845,9.42990553 C69.817377,8.59938175 69.5578383,7.63908863 69.1944841,6.88642643 C67.870837,7.50931929 66.4693277,8.0803044 65.1197269,8.6512895 C65.6907119,9.79325972 65.7166656,10.2344755 65.7166656,11.4543073 L65.7166656,16.8267581 C65.7166656,18.3061285 65.6647581,19.0847446 65.1197269,20.3305303 L70.4662237,20.3305303 C69.8952382,19.0847446 69.8692845,18.3061285 69.8692845,16.8267581 L69.8692845,10.1566139 C70.206685,9.74135196 70.6219466,9.55967487 70.9853008,9.55967487 C71.6341475,9.55967487 71.9975016,9.84516742 71.9975016,11.116907 L71.9975016,15.8664649 C71.9975016,17.7091896 72.0753633,19.2664217 72.3349021,20.3305303 L76.8508752,20.3305303 C76.3577519,18.8252059 76.1501206,17.7091896 76.1501206,15.7886033 Z" id="Path"></path>
                    <path d="M87.4140998,7.27573445 C88.0369928,7.27573445 88.7377469,7.74290409 89.2049165,8.96273588 L89.9056711,4.34294732 C89.5942244,4.16127024 89.2568244,4.08340864 88.7896549,4.08340864 C87.4140998,4.08340864 86.349991,4.86202469 85.5973289,7.53527312 C84.8446668,7.22382674 83.9881893,7.04214965 83.1317113,7.04214965 C80.0951086,7.04214965 77.8371223,9.17036685 77.8371223,11.9214769 C77.8371223,13.7122938 78.7974153,15.061895 80.250832,15.8145572 C78.9012307,16.7488964 77.7333069,18.020636 77.7333069,19.2923755 C77.7333069,20.7457922 79.1867232,21.3167773 81.7561562,21.3167773 L84.4553589,21.3167773 C85.4675597,21.3167773 86.4538064,21.3167773 86.4538064,22.2251627 C86.4538064,22.74424 86.1164064,23.3930868 84.2996355,23.3930868 C83.0019421,23.3930868 81.0294478,23.0556865 79.0829078,21.4465466 L77.1623214,24.7426879 C78.6676461,25.6251194 80.3806011,25.7808427 81.4966174,25.7808427 C86.3759447,25.7808427 88.7896549,22.9259171 88.7896549,20.2786225 C88.7896549,17.5534663 86.1942681,17.5534663 84.818713,17.5534663 L82.0416487,17.5534663 C81.7042487,17.5534663 80.9775404,17.5534663 80.9775404,16.9824812 C80.9775404,16.7488964 81.1073095,16.5412655 81.4187562,16.2298191 C81.8859258,16.3595884 82.3790492,16.4114961 82.8981267,16.4114961 C85.9866368,16.4114961 88.348439,14.2832789 88.348439,11.5321689 C88.348439,9.92302905 87.5179152,8.67724333 86.3240372,7.92458118 C86.583576,7.45741154 86.9469302,7.27573445 87.4140998,7.27573445 Z M83.2614809,15.0099872 C82.4569108,15.0099872 82.0416487,13.1932165 82.0416487,10.9611838 C82.0416487,9.37799783 82.24928,8.33984307 82.8721725,8.33984307 C83.7805579,8.33984307 84.1698664,10.4680603 84.1698664,12.3626927 C84.1698664,13.9977864 83.8843734,15.0099872 83.2614809,15.0099872 Z" id="Shape"></path>
                    <path d="M97.8735085,8.23602756 L98.0032781,7.22382674 L95.0445372,7.22382674 L95.0445372,3.17502324 C93.7727975,4.00554703 92.2934271,4.75820922 90.7881024,5.35514821 C90.8400103,6.08185653 90.8659641,6.73070322 90.8659641,7.22382674 L89.490409,7.22382674 L89.3346861,8.23602756 L90.8919183,8.23602756 L90.8919183,16.9824812 C90.8919183,19.8374068 92.5270116,20.6160228 94.0323363,20.6160228 C96.1345992,20.6160228 97.821601,19.0847446 97.821601,16.8267581 C97.4842006,17.1641583 96.965123,17.4756048 96.3422306,17.4756048 C95.0445372,17.4756048 95.0445372,16.0221881 95.0445372,15.2176182 L95.0445372,8.23602756 L97.8735085,8.23602756 Z" id="Path"></path>
                    <path d="M104.128391,20.6679306 C107.684071,20.6679306 110.097781,18.0984976 110.097781,13.7122938 C110.097781,9.22227461 107.372625,6.91238031 104.439838,6.91238031 C100.884157,6.91238031 98.4704477,9.50776716 98.4704477,13.8939709 C98.4704477,18.3580363 101.195604,20.6679306 104.128391,20.6679306 Z M104.569607,19.1885601 C103.45359,19.1885601 102.830697,15.7366956 102.830697,12.3367388 C102.830697,10.0527984 102.960467,8.39175078 103.998622,8.39175078 C105.114638,8.39175078 105.737531,11.8436153 105.737531,15.2435721 C105.737531,17.5275125 105.607761,19.1885601 104.569607,19.1885601 Z" id="Shape"></path>
                    <path d="M122.348007,15.7886033 L122.348007,10.6237835 C122.348007,8.3138892 121.413667,6.96428802 119.570943,6.96428802 C118.039664,6.96428802 116.690063,7.89862731 116.06717,9.42990553 C116.015263,8.59938175 115.755724,7.63908863 115.39237,6.88642643 C114.068722,7.50931929 112.667214,8.0803044 111.317612,8.6512895 C111.888598,9.79325972 111.914552,10.2344755 111.914552,11.4543073 L111.914552,16.8267581 C111.914552,18.3061285 111.862644,19.0847446 111.317612,20.3305303 L116.664109,20.3305303 C116.093124,19.0847446 116.06717,18.3061285 116.06717,16.8267581 L116.06717,10.1566139 C116.404571,9.74135196 116.819833,9.55967487 117.183187,9.55967487 C117.832033,9.55967487 118.195388,9.84516742 118.195388,11.116907 L118.195388,15.8664649 C118.195388,17.7091896 118.273249,19.2664217 118.532788,20.3305303 L123.048761,20.3305303 C122.555637,18.8252059 122.348007,17.7091896 122.348007,15.7886033 Z" id="Path"></path>
                    <path d="M131.976892,5.30324045 C134.105109,5.30324045 136.207373,8.02839664 137.115758,9.89707518 L137.920328,3.61623901 C136.804311,3.40860806 135.480664,3.17502324 134.44251,3.17502324 C130.28989,3.17502324 127.642596,5.74445622 127.642596,8.62533563 C127.642596,11.0390454 128.836474,11.8436153 130.601337,12.9336778 L133.560078,14.7504486 C135.091356,15.6847878 135.558526,16.3855423 135.558526,17.423697 C135.558526,18.0465899 135.091356,18.6435288 134.338694,18.6435288 C133.015047,18.6435288 131.795215,17.4756048 130.523475,14.4390021 L127.305195,16.5412655 C128.265488,19.5519142 130.75706,20.7457922 132.859323,20.7457922 C135.92188,20.7457922 138.387497,18.2801747 138.387497,15.1138027 C138.387497,12.9596317 137.037896,11.7397998 135.688295,10.8573683 L133.50817,9.45585941 C131.379953,8.0803044 130.783014,7.35359608 130.783014,6.31544133 C130.783014,5.71850235 131.302091,5.30324045 131.976892,5.30324045 Z" id="Path"></path>
                    <path d="M146.199612,25.521304 L151.468247,25.521304 C150.923216,24.0159796 150.897262,23.9640719 150.897262,22.562563 L150.897262,6.86047256 C149.859107,7.37954991 148.898814,7.84671955 147.912567,8.23602756 C147.237766,7.37954991 146.537012,7.01619577 145.369088,7.01619577 C143.059194,7.01619577 139.711145,8.91082818 139.711145,14.5947254 C139.711145,18.6435288 141.735546,20.5122074 143.83781,20.5122074 C145.083595,20.5122074 146.043889,19.9671762 146.744643,19.006883 L146.744643,22.562563 C146.744643,23.9640719 146.692735,24.0159796 146.199612,25.521304 Z M146.199612,17.9427744 C144.564518,17.9427744 143.915671,16.4893578 143.915671,12.9596317 C143.915671,9.42990553 144.382841,8.41770466 145.369088,8.41770466 C146.25152,8.41770466 146.718689,9.58562874 146.744643,11.6359844 L146.744643,17.8649128 C146.58892,17.9168205 146.381289,17.9427744 146.199612,17.9427744 Z" id="Shape"></path>
                    <path d="M163.926104,20.3305303 C163.484888,18.8252059 163.381073,17.8389589 163.381073,16.6969887 L163.381073,6.83451868 C161.823841,7.61313475 160.448286,8.15816598 158.891053,8.6512895 C159.176546,9.71539808 159.228454,10.727599 159.228454,11.713846 L159.228454,17.3717893 C158.891053,17.7870512 158.475792,17.9687283 158.112438,17.9687283 C157.463591,17.9687283 157.100237,17.6832357 157.100237,16.4114961 L157.100237,6.93833419 C155.491097,7.66504246 153.985772,8.21007374 152.350679,8.72915109 C152.921664,10.3123371 152.947618,10.7795067 152.947618,11.7657537 L152.947618,16.9046197 C152.947618,19.214514 153.881957,20.5641151 155.724682,20.5641151 C157.230006,20.5641151 158.579607,19.6557297 159.254408,18.0984976 C159.306316,18.7992521 159.5399,19.8114529 159.799439,20.3305303 L163.926104,20.3305303 Z" id="Path"></path>
                    <path d="M176.254192,20.3305303 C175.631299,19.006883 175.527483,17.9946821 175.527483,16.0740959 L175.527483,12.4665081 C175.527483,8.36579695 173.76262,6.99024189 170.726018,6.99024189 C167.429876,6.99024189 165.50929,8.8848743 165.50929,11.5321689 L165.50929,12.103154 L169.661909,12.3626927 C169.272601,11.506215 169.06497,10.5978296 169.06497,9.84516742 C169.06497,8.96273588 169.376416,8.3138892 170.129078,8.3138892 C171.037464,8.3138892 171.297003,9.22227461 171.297003,10.6237835 L171.297003,12.1810156 C171.297003,12.88177 171.193187,13.0374933 168.753523,14.1275557 C166.625306,15.0878489 164.912351,15.9702804 164.912351,17.8389589 C164.912351,19.4221449 166.028367,20.5381613 167.715369,20.5381613 C169.272601,20.5381613 170.440525,19.7335913 171.322956,18.617575 C171.400818,19.2664217 171.608449,19.8374068 171.867988,20.3305303 L176.254192,20.3305303 Z M170.622202,17.9168205 C169.765724,17.9168205 169.168785,17.2160661 169.168785,16.1000498 C169.168785,15.061895 169.480232,14.5947254 170.726018,14.5947254 C171.089372,14.5947254 171.297003,14.672587 171.297003,15.3733414 L171.297003,17.8389589 C171.063418,17.8908667 170.855787,17.9168205 170.622202,17.9168205 Z" id="Shape"></path>
                    <path d="M184.922784,6.96428802 C183.365551,6.96428802 182.327397,7.63908863 181.782366,10.0008906 C181.600688,8.98868976 181.237334,7.561227 180.718257,6.88642643 C179.342702,7.63908863 178.148824,8.18411986 176.721361,8.85892042 C177.499977,10.2085216 177.759516,11.1428608 177.759516,12.492462 L177.759516,16.5672193 C177.759516,17.9687283 177.707608,18.8252059 177.188531,20.3305303 L182.535028,20.3305303 C181.964043,18.8252059 181.912135,17.9687283 181.912135,16.5672193 L181.912135,12.9596317 C181.912135,10.8833222 182.093812,10.3382909 182.690751,10.3382909 C183.313643,10.3382909 183.96249,10.9352299 185.467815,13.2710781 L186.012846,7.09405735 C185.727354,7.01619577 185.286138,6.96428802 184.922784,6.96428802 Z" id="Path"></path>
                    <path d="M197.510409,11.9993385 C197.510409,9.22227461 196.031039,6.93833419 192.786806,6.93833419 C188.971587,6.93833419 186.869324,9.94898293 186.869324,13.8939709 C186.869324,17.9687283 189.231126,20.6679306 192.579175,20.6679306 C195.797454,20.6679306 197.250871,18.2023131 197.484456,16.6969887 C196.809655,16.9565274 196.031039,17.1901122 194.863115,17.1901122 C192.215821,17.1901122 191.281481,15.9702804 190.995989,13.9458787 L197.510409,13.9458787 L197.510409,11.9993385 Z M192.449406,13.0115394 L190.918127,13.0115394 C190.892173,12.7000929 190.892173,12.3626927 190.892173,11.9993385 C190.892173,9.30013619 191.437205,8.41770466 192.112005,8.41770466 C192.864667,8.41770466 193.279929,9.32609007 193.279929,12.103154 C193.279929,12.9855855 193.176113,13.0115394 192.449406,13.0115394 Z" id="Shape"></path>
                </g>
                <g id="Realty-Capital,-LLC" opacity="0.600000024" transform="translate(5.6921, 29.0635)">
                    <path d="M0,9.35506531 L0,0.154843027 L3.97704252,0.154843027 C4.80410417,0.154843027 5.51633418,0.288431076 6.11373252,0.555607176 C6.71113091,0.822783274 7.17145008,1.20646814 7.49469003,1.70666177 C7.81792993,2.2068554 7.97954994,2.80120756 7.97954994,3.48971824 C7.97954994,4.17302642 7.81792993,4.76173112 7.49469003,5.25583237 C7.17145008,5.74993359 6.71113091,6.12882665 6.11373252,6.39251159 C5.51633418,6.65619653 4.80410417,6.788039 3.97704252,6.788039 L1.182475,6.788039 L2.13412299,5.86206125 L2.13412299,9.35506531 L0,9.35506531 Z M5.85590044,9.35506531 L3.54763036,6.01156491 L5.82632824,6.01156491 L8.15287555,9.35506531 L5.85590044,9.35506531 Z M2.13412299,6.09288831 L1.182475,5.09092657 L3.86717379,5.09092657 C4.51858239,5.09092657 5.00806296,4.94960322 5.33561553,4.66695651 C5.66316806,4.3843098 5.82694436,3.99189704 5.82694436,3.48971824 C5.82694436,2.98233694 5.66316806,2.58865778 5.33561553,2.30868078 C5.00806296,2.02870378 4.51858239,1.88871528 3.86717379,1.88871528 L1.182475,1.88871528 L2.13412299,0.878949808 L2.13412299,6.09288831 Z" id="Shape"></path>
                    <path d="M12.1288201,3.85752177 L16.5625879,3.85752177 L16.5625879,5.51294572 L12.1288201,5.51294572 L12.1288201,3.85752177 Z M12.2836631,7.64214002 L17.2961413,7.64214002 L17.2961413,9.35506531 L10.1702817,9.35506531 L10.1702817,0.154843027 L17.117271,0.154843027 L17.117271,1.86776834 L12.2836631,1.86776834 L12.2836631,7.64214002 Z" id="Shape"></path>
                    <path d="M18.2842791,9.35506531 L22.3853604,0.154843027 L24.490938,0.154843027 L28.599823,9.35506531 L26.3763675,9.35506531 L23.0014467,1.23833349 L23.8458956,1.23833349 L20.4711802,9.35506531 L18.2842791,9.35506531 Z M20.3432396,7.3868749 L20.9018245,5.77108586 L25.6415819,5.77108586 L26.2079706,7.3868749 L20.3432396,7.3868749 Z" id="Shape"></path>
                    <polygon id="Path" points="30.0728365 9.35506531 30.0728365 0.154843027 32.2069595 0.154843027 32.2069595 7.61605901 36.8122048 7.61605901 36.8122048 9.35506531"></polygon>
                    <polygon id="Path" points="39.5693069 9.35506531 39.5693069 1.89384933 36.6291376 1.89384933 36.6291376 0.154843027 44.6438045 0.154843027 44.6438045 1.89384933 41.7036352 1.89384933 41.7036352 9.35506531"></polygon>
                    <polygon id="Path" points="48.402807 9.35506531 48.402807 5.59776025 48.8905419 6.88784499 44.8379262 0.154843027 47.1034809 0.154843027 50.1989039 5.31682489 48.9036851 5.31682489 52.0173855 0.154843027 54.1020158 0.154843027 50.0598738 6.88784499 50.5371353 5.59776025 50.5371353 9.35506531"></polygon>
                    <path d="M64.1446706,9.50990834 C63.4298735,9.50990834 62.7684705,9.39381028 62.1604622,9.16161421 C61.5524534,8.92941814 61.0250491,8.59994883 60.5782494,8.17320637 C60.1314503,7.74646392 59.7836697,7.24353215 59.5349073,6.66441102 C59.2861455,6.08528988 59.1617645,5.44880425 59.1617645,4.75495417 C59.1617645,4.06110407 59.2861455,3.42461846 59.5349073,2.84549732 C59.7836697,2.26637619 60.1327853,1.76344439 60.5822541,1.33670194 C61.0317233,0.909959485 61.5604283,0.580490214 62.1683683,0.348294129 C62.7763089,0.116098043 63.4377458,0 64.1526799,0 C64.9494848,0 65.6710588,0.137900653 66.3174017,0.41370196 C66.9637446,0.689503269 67.5041207,1.09362166 67.9385304,1.62605714 L66.5751313,2.89026626 C66.261201,2.53266238 65.9108535,2.26230317 65.5240878,2.07918863 C65.1373225,1.89607408 64.7142766,1.80451681 64.2549499,1.80451681 C63.824922,1.80451681 63.4309007,1.87560633 63.0728857,2.01778536 C62.7148712,2.15996439 62.404672,2.36221183 62.1422872,2.6245277 C61.879903,2.88684356 61.6763207,3.19872014 61.5315406,3.56015744 C61.3867604,3.92159475 61.3143703,4.31986033 61.3143703,4.75495417 C61.3143703,5.190048 61.3867604,5.58831359 61.5315406,5.94975089 C61.6763207,6.3111882 61.879903,6.62306476 62.1422872,6.88538064 C62.404672,7.14769652 62.7148712,7.34994395 63.0728857,7.49212297 C63.4309007,7.63430199 63.824922,7.7053915 64.2549499,7.7053915 C64.7142766,7.7053915 65.1373225,7.61383427 65.5240878,7.43071972 C65.9108535,7.24760517 66.261201,6.97457624 66.5751313,6.61163298 L67.9385304,7.87604743 C67.5041207,8.40492332 66.9637446,8.80945245 66.3174017,9.0896348 C65.6710588,9.36981716 64.9468153,9.50990834 64.1446706,9.50990834 Z" id="Path"></path>
                    <path d="M68.477214,9.35506531 L72.5782955,0.154843027 L74.683873,0.154843027 L78.792758,9.35506531 L76.5693024,9.35506531 L73.1943818,1.23833349 L74.0388308,1.23833349 L70.6641149,9.35506531 L68.477214,9.35506531 Z M70.5361747,7.3868749 L71.0947597,5.77108586 L75.834517,5.77108586 L76.4009055,7.3868749 L70.5361747,7.3868749 Z" id="Shape"></path>
                    <path d="M80.2657717,9.35506531 L80.2657717,0.154843027 L84.242814,0.154843027 C85.0698756,0.154843027 85.7821057,0.288431076 86.379504,0.555607176 C86.9769022,0.822783274 87.4372217,1.20646814 87.7604614,1.70666177 C88.0837016,2.2068554 88.2453217,2.80120756 88.2453217,3.48971824 C88.2453217,4.17302642 88.0837016,4.76392165 87.7604614,5.2624039 C87.4372217,5.7608862 86.9769022,6.14457106 86.379504,6.41345853 C85.7821057,6.68234599 85.0698756,6.8167897 84.242814,6.8167897 L81.4482465,6.8167897 L82.3998947,5.86206125 L82.3998947,9.35506531 L80.2657717,9.35506531 Z M82.3998947,6.09288831 L81.4482465,5.08312281 L84.1329452,5.08312281 C84.7843538,5.08312281 85.2738344,4.94310008 85.6013871,4.66305463 C85.9289398,4.38300917 86.0927158,3.99189704 86.0927158,3.48971824 C86.0927158,2.98233694 85.9289398,2.58865778 85.6013871,2.30868078 C85.2738344,2.02870378 84.7843538,1.88871528 84.1329452,1.88871528 L81.4482465,1.88871528 L82.3998947,0.878949808 L82.3998947,6.09288831 Z" id="Shape"></path>
                    <polygon id="Path" points="90.2545431 9.35506531 90.2545431 0.154843027 92.3886661 0.154843027 92.3886661 9.35506531"></polygon>
                    <polygon id="Path" points="96.9771328 9.35506531 96.9771328 1.89384933 94.0369632 1.89384933 94.0369632 0.154843027 102.05163 0.154843027 102.05163 1.89384933 99.1114611 1.89384933 99.1114611 9.35506531"></polygon>
                    <path d="M102.026878,9.35506531 L106.127959,0.154843027 L108.233537,0.154843027 L112.342422,9.35506531 L110.118966,9.35506531 L106.744045,1.23833349 L107.588494,1.23833349 L104.213779,9.35506531 L102.026878,9.35506531 Z M104.085838,7.3868749 L104.644423,5.77108586 L109.384181,5.77108586 L109.95057,7.3868749 L104.085838,7.3868749 Z" id="Shape"></path>
                    <polygon id="Path" points="113.815435 9.35506531 113.815435 0.154843027 115.949558 0.154843027 115.949558 7.61605901 120.554803 7.61605901 120.554803 9.35506531"></polygon>
                    <path d="M122.15469,11.3787035 L123.020702,8.22475229 L123.3117,9.41277209 C122.940953,9.41277209 122.63445,9.30170539 122.392191,9.07957204 C122.149933,8.85743868 122.028803,8.55572755 122.028803,8.1744386 C122.028803,7.78959001 122.150823,7.48171797 122.394861,7.25082252 C122.6389,7.01992707 122.941912,6.90447934 123.303896,6.90447934 C123.671084,6.90447934 123.974028,7.02126191 124.212726,7.25482709 C124.451426,7.48839223 124.570775,7.79492943 124.570775,8.1744386 C124.570775,8.28286979 124.561157,8.39263582 124.541922,8.50373669 C124.522686,8.61483762 124.488596,8.74650892 124.439652,8.89875072 C124.390707,9.05099251 124.313799,9.2486193 124.208927,9.49163114 L123.455454,11.3787035 L122.15469,11.3787035 Z" id="Path"></path>
                    <polygon id="Path" points="130.838252 9.35506531 130.838252 0.154843027 132.972375 0.154843027 132.972375 7.61605901 137.57762 7.61605901 137.57762 9.35506531"></polygon>
                    <polygon id="Path" points="139.286554 9.35506531 139.286554 0.154843027 141.420677 0.154843027 141.420677 7.61605901 146.025922 7.61605901 146.025922 9.35506531"></polygon>
                    <path d="M151.988346,9.50990834 C151.273549,9.50990834 150.612146,9.39381028 150.004138,9.16161421 C149.396129,8.92941814 148.868725,8.59994883 148.421925,8.17320637 C147.975126,7.74646392 147.627345,7.24353215 147.378583,6.66441102 C147.129821,6.08528988 147.00544,5.44880425 147.00544,4.75495417 C147.00544,4.06110407 147.129821,3.42461846 147.378583,2.84549732 C147.627345,2.26637619 147.976461,1.76344439 148.42593,1.33670194 C148.875399,0.909959485 149.404104,0.580490214 150.012044,0.348294129 C150.619984,0.116098043 151.281421,0 151.996355,0 C152.79316,0 153.514734,0.137900653 154.161077,0.41370196 C154.80742,0.689503269 155.347797,1.09362166 155.782206,1.62605714 L154.418807,2.89026626 C154.104876,2.53266238 153.754529,2.26230317 153.367764,2.07918863 C152.980998,1.89607408 152.557952,1.80451681 152.098626,1.80451681 C151.668597,1.80451681 151.274576,1.87560633 150.916562,2.01778536 C150.558547,2.15996439 150.248347,2.36221183 149.985963,2.6245277 C149.723579,2.88684356 149.519997,3.19872014 149.375216,3.56015744 C149.230436,3.92159475 149.158046,4.31986033 149.158046,4.75495417 C149.158046,5.190048 149.230436,5.58831359 149.375216,5.94975089 C149.519997,6.3111882 149.723579,6.62306476 149.985963,6.88538064 C150.248347,7.14769652 150.558547,7.34994395 150.916562,7.49212297 C151.274576,7.63430199 151.668597,7.7053915 152.098626,7.7053915 C152.557952,7.7053915 152.980998,7.61383427 153.367764,7.43071972 C153.754529,7.24760517 154.104876,6.97457624 154.418807,6.61163298 L155.782206,7.87604743 C155.347797,8.40492332 154.80742,8.80945245 154.161077,9.0896348 C153.514734,9.36981716 152.790491,9.50990834 151.988346,9.50990834 Z" id="Path"></path>
                </g>
            </g>
            <path d="M55.2914585,24.8106502 C55.2346466,24.8293048 51.6987474,25.9341674 47.64815,26.671873 L47.64815,24.0025658 C48.7801465,23.5582466 49.9358852,22.8493709 51.0466832,21.7394207 C55.3999943,17.3852619 54.3917965,7.29989362 54.346856,6.87253314 C54.3078506,6.50198448 54.035663,6.19842284 53.6718979,6.1195647 C53.3089804,6.03985858 52.9350399,6.20351051 52.7459501,6.52403084 C52.71712,6.57321124 50.2708205,10.698427 47.64815,14.1249423 L47.64815,0.817411715 C47.64815,0.366308985 47.281841,0 46.8307382,0 L0.817411715,0 C0.366308985,0 0,0.366308985 0,0.817411715 L0,52.7663003 C0,53.2182511 0.366308985,53.5837122 0.817411715,53.5837122 L5.4819157,53.5837122 L7.00820315,53.5837122 C7.00820315,53.5837122 6.45704377,50.1648284 7.03194539,46.7137229 C7.42199665,44.3742634 8.71001361,41.6116831 8.72273272,41.5896368 C8.82024552,41.4293766 8.83296458,41.2318072 8.75749814,41.0605238 C8.7269724,40.990145 5.67354955,33.9649831 6.30865475,27.8801839 C6.81911311,22.9774094 8.71340536,20.4276615 10.7196254,17.7286765 C11.2097333,17.0681332 11.7176478,16.3838477 12.2001243,15.6681885 C13.8824322,13.1744044 16.1786468,10.4389581 17.3640634,9.06869121 C17.7286765,11.2419549 17.9601634,15.0797199 17.518388,18.8301473 C17.3683031,20.1045973 16.5076465,22.6534973 16.2346107,23.7066356 C15.7309358,25.6585877 15.620704,25.9977627 14.6752537,28.6229771 C13.2320642,32.6277857 10.7382801,37.3982819 10.9960531,37.5653255 C11.254674,37.7340651 16.8103602,31.7594977 21.9870185,27.7334907 C26.2088991,24.4494289 31.0599493,22.2074822 31.0989545,22.1922193 C31.2744775,22.1226884 31.4050599,21.9709076 31.4483047,21.7877531 C31.4635676,21.7233099 31.7645853,16.8052726 35.1164822,12.7216058 C36.7750478,10.7018187 40.5585448,8.65998533 42.237461,7.80526436 C42.1391002,9.18061894 41.9423788,12.0576707 39.8165995,15.0797199 C38.1241164,17.4861664 33.0466668,21.8521964 33.1602904,22.0862272 C33.274762,22.318562 44.0011709,20.3912001 47.2920162,16.6305975 C49.505133,14.1012001 51.8293294,10.5517338 53.0978439,8.52431532 C53.1817899,11.5463644 52.9553906,17.5667205 50.1088645,20.4149424 C46.996086,23.5277208 42.5011695,23.3615251 40.2498956,23.2572288 C37.5161452,23.131734 36.365494,22.5568324 30.6139342,24.8572868 C27.4833491,26.1096904 22.4576238,29.952543 22.576335,30.2052283 C22.6950463,30.4587617 33.2026873,27.8199803 40.1159215,28.3940339 C44.5201086,28.7645826 50.6515442,27.3137616 53.7889131,26.4581927 C51.011918,29.2903039 44.5752246,35.1334409 38.657469,35.2284099 C30.7674109,35.3734072 21.5952713,31.3041553 21.5036941,31.2634543 C21.3001891,31.172725 21.0610708,31.2074905 20.8914833,31.3541837 C20.6557566,31.5585366 15.0958307,36.4019554 12.0432558,40.2872048 C7.70690362,45.8064298 9.15857258,53.5837122 9.15857258,53.5837122 L11.4225656,53.5837122 L46.8307382,53.5837122 C47.281841,53.5837122 47.64815,53.2182511 47.64815,52.7663003 L47.64815,33.6995787 C52.3821849,30.6283492 55.9740477,26.4683679 56.2072309,26.1936362 C56.4573723,25.9010978 56.4836582,25.477977 56.2708262,25.1574566 C56.0588414,24.8369363 55.6603111,24.6953307 55.2914585,24.8106502 Z" id="Fill-36" fill="#300075"></path>
        </g>
    </g>
</svg>