<?xml version="1.0" encoding="UTF-8"?>
<svg width="40px" height="40px" viewBox="0 0 40 40" version="1.1" xmlns="http://www.w3.org/2000/svg" xmlns:xlink="http://www.w3.org/1999/xlink">
    <title>github</title>
    <g id="github" stroke="none" stroke-width="1" fill="none" fill-rule="evenodd">
        <g id="Group" transform="translate(8, 8)" fill="#000000" fill-rule="nonzero">
            <path d="M12.0000938,0 C5.37346875,0 0,5.37253125 0,12.0000937 C0,17.3020312 3.438375,21.80025 8.20640625,23.3869687 C8.806125,23.4980625 9.02634375,23.126625 9.02634375,22.8096562 C9.02634375,22.5235312 9.01509375,21.57825 9.01003125,20.5755937 C5.67159375,21.3014062 4.96715625,19.1596875 4.96715625,19.1596875 C4.42125,17.7726562 3.6346875,17.40375 3.6346875,17.40375 C2.54596875,16.659 3.7168125,16.674375 3.7168125,16.674375 C4.92178125,16.7589375 5.55628125,17.9109375 5.55628125,17.9109375 C6.626625,19.7454375 8.363625,19.2150937 9.048375,18.9084375 C9.15609375,18.1329375 9.4670625,17.6034375 9.81028125,17.3038125 C7.144875,17.0004375 4.34296875,15.9714375 4.34296875,11.373375 C4.34296875,10.0632187 4.81171875,8.9926875 5.57934375,8.1523125 C5.45475,7.8500625 5.04403125,6.629625 5.69559375,4.976625 C5.69559375,4.976625 6.7033125,4.654125 8.99653125,6.20671875 C9.95371875,5.94084375 10.9802812,5.80753125 12.0000937,5.8029375 C13.0199062,5.80753125 14.0473125,5.94075 15.0062812,6.20671875 C17.2966875,4.65421875 18.303,4.97671875 18.303,4.97671875 C18.9561562,6.62953125 18.54525,7.85015625 18.4206562,8.1523125 C19.1900625,8.9926875 19.655625,10.0632187 19.655625,11.373375 C19.655625,15.9824062 16.848375,16.99725 14.1762187,17.2943437 C14.606625,17.6667187 14.9901562,18.3970312 14.9901562,19.5165937 C14.9901562,21.1221562 14.9762812,22.4144062 14.9762812,22.8096562 C14.9762812,23.1290625 15.1922812,23.5032187 15.8005312,23.3852812 C20.5659375,21.796875 24,17.3003437 24,12.0001875 C24,5.37253125 18.6272812,0 12.0000938,0 Z M4.49446875,17.094375 C4.46803125,17.154 4.3741875,17.1719062 4.28878125,17.1309375 C4.2016875,17.0918437 4.15284375,17.0105625 4.18096875,16.95075 C4.20684375,16.8893437 4.300875,16.8721875 4.3876875,16.9133437 C4.474875,16.9525312 4.5245625,17.0345625 4.49446875,17.094375 Z M5.08471875,17.6210625 C5.02753125,17.674125 4.91559375,17.6494687 4.83965625,17.5656562 C4.7611875,17.4820312 4.74646875,17.3700937 4.8045,17.3162812 C4.8635625,17.2632187 4.97203125,17.2880625 5.0506875,17.3716875 C5.12925,17.4563437 5.1444375,17.5674375 5.08471875,17.6210625 Z M5.48971875,18.2949375 C5.416125,18.3460312 5.2959375,18.298125 5.22159375,18.1914375 C5.14809375,18.08475 5.14809375,17.9567812 5.2231875,17.9055 C5.29771875,17.8542187 5.416125,17.9003437 5.49140625,18.0062812 C5.56471875,18.11475 5.56471875,18.2427187 5.489625,18.2950312 L5.48971875,18.2949375 Z M6.17446875,19.0754063 C6.10875,19.1479688 5.96859375,19.1284688 5.86603125,19.0294688 C5.761125,18.9327188 5.73196875,18.7954688 5.79796875,18.7229063 C5.86453125,18.6501563 6.0054375,18.6705938 6.10875,18.7688438 C6.2128125,18.8654063 6.2446875,19.0036875 6.17446875,19.0754063 Z M7.05965625,19.3388438 C7.03059375,19.432875 6.89559375,19.475625 6.75975,19.4356875 C6.624,19.3945313 6.53521875,19.2844688 6.56259375,19.1895 C6.5908125,19.0948125 6.726375,19.050375 6.86325,19.093125 C6.9988125,19.134 7.087875,19.2433125 7.05965625,19.3389375 L7.05965625,19.3388438 Z M8.06690625,19.4506875 C8.07028125,19.5495937 7.9550625,19.631625 7.812375,19.6335 C7.6689375,19.6366875 7.55278125,19.556625 7.5511875,19.459125 C7.5511875,19.3592812 7.663875,19.278 7.80740625,19.2755625 C7.95009375,19.27275 8.06690625,19.35225 8.06690625,19.4506875 L8.06690625,19.4506875 Z M9.0564375,19.4127187 C9.0735,19.5092812 8.97440625,19.6084687 8.83265625,19.6349062 C8.6934375,19.6603125 8.5644375,19.6006875 8.54671875,19.5049687 C8.52946875,19.4059687 8.6304375,19.3067812 8.76946875,19.2811875 C8.91140625,19.2565312 9.03834375,19.3145625 9.0564375,19.4127187 Z" id="Shape"></path>
        </g>
    </g>
</svg>