<?xml version="1.0" encoding="UTF-8"?>
<svg width="50px" height="50px" viewBox="0 0 50 50" version="1.1" xmlns="http://www.w3.org/2000/svg" xmlns:xlink="http://www.w3.org/1999/xlink">
    <title>logo</title>
    <g id="logo" stroke="none" stroke-width="1" fill="none" fill-rule="evenodd">
        <polygon id="line" fill="#FFFFFF" fill-rule="nonzero" points="13 37.0416306 37.0416306 13 36.3345238 12.2928932 12.2928932 36.3345238"></polygon>
        <g id="initials" transform="translate(13.621, 9.86)" fill="#FFFFFF">
            <path d="M22.452,17 L22.452,18.332 C21.8399969,17.2759947 20.7480079,16.748 19.176,16.748 C18.167995,16.748 17.3400032,16.8949985 16.692,17.189 C16.0439968,17.4830015 15.5550017,17.9479968 15.225,18.584 C14.8949984,19.2200032 14.6730006,19.9159962 14.559,20.672 C14.4449994,21.4280038 14.388,22.3939941 14.388,23.57 C14.388,24.3500039 14.4059998,25.0099973 14.442,25.55 C14.4780002,26.0900027 14.5529994,26.6419972 14.667,27.206 C14.7810006,27.7700028 14.9519989,28.2289982 15.18,28.583 C15.4080011,28.9370018 15.7019982,29.2609985 16.062,29.555 C16.4220018,29.8490015 16.8749973,30.0619993 17.421,30.194 C17.9670027,30.3260007 18.6119963,30.392 19.356,30.392 C20.1240038,30.392 20.7719974,30.2990009 21.3,30.113 C21.8280026,29.9269991 22.2359986,29.6450019 22.524,29.267 C22.8120014,28.8889981 23.0219993,28.4750023 23.154,28.025 C23.2860007,27.5749978 23.3759998,27.0260032 23.424,26.378 L22.362,26.324 C22.3259998,27.2600047 22.0890022,27.9919974 21.651,28.52 C21.2129978,29.0480026 20.4480055,29.312 19.356,29.312 C18.6719966,29.312 18.0960023,29.2190009 17.628,29.033 C17.1599977,28.8469991 16.8000013,28.6160014 16.548,28.34 C16.2959987,28.0639986 16.1040007,27.6500028 15.972,27.098 C15.8399993,26.5459972 15.7590002,26.0300024 15.729,25.55 C15.6989999,25.0699976 15.684,24.4100042 15.684,23.57 C15.684,22.777996 15.7049998,22.1210026 15.747,21.599 C15.7890002,21.0769974 15.8789993,20.5550026 16.017,20.033 C16.1550007,19.5109974 16.3469988,19.1030015 16.593,18.809 C16.8390012,18.5149985 17.1779978,18.2780009 17.61,18.098 C18.0420022,17.9179991 18.5639969,17.828 19.176,17.828 C20.3160057,17.828 21.1289976,18.0889974 21.615,18.611 C22.1010024,19.1330026 22.3799996,19.891995 22.452,20.888 L23.424,20.888 L23.424,17 L22.452,17 Z" id="c"></path>
            <path d="M3.492,0.9 L4.932,0.9 L4.932,9.846 C4.932,10.7940047 4.80900123,11.4419983 4.563,11.79 C4.31699877,12.1380017 3.81600378,12.312 3.06,12.312 C2.30399622,12.312 1.79100135,12.1320018 1.521,11.772 C1.25099865,11.4119982 1.116,10.7700046 1.116,9.846 L-4.4408921e-16,9.846 C-4.4408921e-16,10.2300019 0.00599994,10.5359989 0.018,10.764 C0.03000006,10.9920011 0.0659997,11.2619984 0.126,11.574 C0.1860003,11.8860016 0.28199934,12.1349991 0.414,12.321 C0.54600066,12.5070009 0.71999892,12.6899991 0.936,12.87 C1.15200108,13.0500009 1.43399826,13.1819996 1.782,13.266 C2.13000174,13.3500004 2.5439976,13.392 3.024,13.392 C3.60000288,13.392 4.08599802,13.3290006 4.482,13.203 C4.87800198,13.0769994 5.18999886,12.918001 5.418,12.726 C5.64600114,12.533999 5.8199994,12.2730016 5.94,11.943 C6.0600006,11.6129983 6.13799982,11.2950015 6.174,10.989 C6.21000018,10.6829985 6.228,10.3020023 6.228,9.846 L6.228,0.9 L7.308,0.9 L7.308,-1.22124533e-15 L3.492,-1.22124533e-15 L3.492,0.9 Z" id="j"></path>
        </g>
    </g>
</svg>