<?xml version="1.0" encoding="UTF-8"?>
<svg width="32px" height="32px" viewBox="0 0 32 32" version="1.1" xmlns="http://www.w3.org/2000/svg" xmlns:xlink="http://www.w3.org/1999/xlink">
    <title>mask-icon</title>
    <g id="mask-icon" stroke="none" stroke-width="1" fill="none" fill-rule="evenodd">
        <g id="Group-Copy-2">
            <rect id="Rectangle" fill="#000000" x="0" y="0" width="32" height="32"></rect>
            <polygon id="line" fill="#FFFFFF" fill-rule="nonzero" points="7.98655463 23.5294118 23.5294118 7.98655463 23.0722689 7.52941176 7.52941176 23.0722689"></polygon>
            <g id="initials" transform="translate(8.4706, 6.5882)" fill="#FFFFFF">
                <path d="M14.4339441,11.0555409 L14.4339441,11.9217751 C14.0404995,11.2350274 13.3384815,10.8916588 12.3278689,10.8916588 C11.6798425,10.8916588 11.147543,10.9872557 10.7309547,11.1784525 C10.3143663,11.3696493 10.0000011,11.6720478 9.78784957,12.0856572 C9.5756981,12.4992666 9.43298014,12.9518889 9.35969142,13.4435378 C9.2864027,13.9351867 9.24975892,14.5633952 9.24975892,15.3281823 C9.24975892,15.8354391 9.26133063,16.2646499 9.28447445,16.6158277 C9.30761826,16.9670055 9.35583375,17.3259818 9.42912247,17.6927674 C9.50241119,18.0595531 9.61234259,18.3580497 9.75891996,18.5882663 C9.90549733,18.8184828 10.0945022,19.0291863 10.3259402,19.2203831 C10.5573782,19.4115799 10.8486,19.5500979 11.1996143,19.6359413 C11.5506285,19.7217848 11.9652821,19.7647059 12.4435873,19.7647059 C12.9373216,19.7647059 13.3539038,19.7042262 13.6933462,19.5832649 C14.0327886,19.4623037 14.2950811,19.2789136 14.4802314,19.0330892 C14.6653818,18.7872648 14.8003853,18.5180326 14.8852459,18.2253844 C14.9701065,17.9327363 15.0279652,17.5757109 15.0588235,17.1542976 L14.3760849,17.11918 C14.352941,17.7278881 14.20058,18.2039219 13.9189971,18.5472957 C13.6374142,18.8906695 13.1456159,19.0623539 12.4435873,19.0623539 C12.0038551,19.0623539 11.6335598,19.0018741 11.3326905,18.8809129 C11.0318211,18.7599517 10.8003866,18.6097279 10.6383799,18.4302371 C10.4763733,18.2507462 10.3529416,17.981514 10.268081,17.6225322 C10.1832204,17.2635505 10.1311477,16.9279857 10.1118611,16.6158277 C10.0925747,16.3036697 10.0829315,15.8744589 10.0829315,15.3281823 C10.0829315,14.8131216 10.0964319,14.3858617 10.123433,14.0463899 C10.1504341,13.7069181 10.2082927,13.3674513 10.2970106,13.0279795 C10.3857285,12.6885077 10.5091603,12.4231774 10.6673095,12.2319806 C10.8254588,12.0407838 11.043393,11.8866581 11.3211186,11.7695988 C11.5988442,11.6525396 11.9344242,11.5940108 12.3278689,11.5940108 C13.0607558,11.5940108 13.5834122,11.7637442 13.8958534,12.103216 C14.2082947,12.4426878 14.3876564,12.9362803 14.4339441,13.5840082 L15.0588235,13.5840082 L15.0588235,11.0555409 L14.4339441,11.0555409 Z" id="c"></path>
                <path d="M2.24493732,0.585293343 L3.17068467,0.585293343 L3.17068467,6.40310918 C3.17068467,7.01962122 3.09161121,7.44102827 2.93346191,7.6673428 C2.77531261,7.89365733 2.4532329,8.00681294 1.96721311,8.00681294 C1.48119333,8.00681294 1.15139913,7.88975544 0.977820636,7.65563693 C0.804242141,7.42151842 0.717454195,7.00401333 0.717454195,6.40310918 L0,6.40310918 C0,6.65283557 0.00385724204,6.85183336 0.0115718419,7.00010839 C0.0192864417,7.14838342 0.0424298939,7.32396966 0.081002893,7.5268724 C0.119575892,7.72977513 0.181291765,7.89170466 0.266152363,8.01266587 C0.35101296,8.13362708 0.46287298,8.25263556 0.601735776,8.36969481 C0.740598573,8.48675407 0.921888949,8.57259624 1.14561234,8.62722388 C1.36933574,8.68185152 1.63548544,8.70916495 1.94406943,8.70916495 C2.31437022,8.70916495 2.62680683,8.66819481 2.88138862,8.58625335 C3.13597041,8.50431189 3.336547,8.40091111 3.4831244,8.27604788 C3.62970179,8.15118465 3.74156181,7.98145127 3.81870781,7.76684267 C3.89585381,7.552234 3.94599796,7.34543244 3.96914176,7.14643172 C3.99228555,6.94743101 4.00385728,6.6996593 4.00385728,6.40310918 L4.00385728,0.585293343 L4.69816779,0.585293343 L4.69816779,0 L2.24493732,0 L2.24493732,0.585293343 Z" id="j"></path>
            </g>
        </g>
    </g>
</svg>