<?xml version="1.0" encoding="UTF-8"?>
<svg width="40px" height="40px" viewBox="0 0 40 40" version="1.1" xmlns="http://www.w3.org/2000/svg" xmlns:xlink="http://www.w3.org/1999/xlink">
    <title>mastodon</title>
    <g id="mastodon" stroke="none" stroke-width="1" fill="none" fill-rule="evenodd">
        <g id="Group" transform="translate(9, 8)" fill="#000000" fill-rule="nonzero">
            <path d="M11.3658974,0.000655631423 C15.0404722,0.0145183749 16.6461097,0.244230123 17.0798202,0.308677874 C19.7292534,0.702648319 21.9644716,2.7345315 22.3096507,5.31324714 C22.3699652,5.92896772 22.394086,6.66885901 22.3990123,7.40647779 L22.3996395,7.8964994 C22.3944167,9.27607709 22.3341883,10.547294 22.3335195,10.8580027 C22.3335195,11.0086493 22.311854,12.3829305 22.3030409,12.5280386 C22.070963,16.212973 19.785804,17.668116 17.384606,18.131502 C17.3519241,18.1414713 17.3141013,18.1481175 17.2762785,18.1555021 C15.7538184,18.4545799 14.1230308,18.5339648 12.5759674,18.5779034 C12.2058179,18.5875034 11.8367701,18.5875034 11.4669878,18.5875034 C9.9285594,18.5879371 8.39551076,18.4048729 6.8999746,18.0421479 C6.88385356,18.0378733 6.8666716,18.0416076 6.85374543,18.0521952 C6.84081927,18.0627829 6.83370755,18.0789473 6.8346109,18.0956865 C6.87689424,18.5852279 6.98269221,19.0671031 7.14931142,19.5290448 C7.35678609,20.0633234 8.08019334,21.3475119 10.7711214,21.3475119 C12.3347824,21.3503115 13.8932845,21.1671307 15.4141475,20.8017872 C15.4298672,20.7982411 15.4463385,20.8020422 15.4589473,20.8121257 C15.4713957,20.8220959 15.4787953,20.8371118 15.4791439,20.8531104 L15.4791439,22.6619775 C15.4785228,22.6792219 15.4701475,22.6952496 15.4563768,22.7055469 C14.9595392,23.0677634 14.2835023,23.2734256 13.7062454,23.4580415 C13.4511516,23.5388964 13.1930552,23.6098415 12.9325301,23.6707191 C10.5587963,24.2143095 8.08144129,24.0828821 5.77777533,23.2911487 C3.62628138,22.5320079 1.42998759,20.6710791 0.887615758,18.4350107 C0.597833847,17.2242077 0.393643542,15.9943003 0.276575318,14.754507 C0.107657889,12.8880397 0.0933366288,11.0171416 0.0206286919,9.14328971 C-0.0304137487,7.836578 -0.0010368045,6.4120813 0.273637624,5.12715426 C0.844284765,2.51816161 3.19664357,0.691571362 5.77263437,0.308677874 C6.21989834,0.242216131 7.0615478,0 10.9859403,0 Z M7.67553182,4 C6.56590289,4 5.67228853,4.38433377 4.99067496,5.13216827 C4.33022499,5.88215791 4,6.89399738 4,8.16732748 L4,14.4 L6.50825035,14.4 L6.50825035,8.35123299 C6.50825035,7.07790288 7.05266546,6.42848656 8.14295526,6.42848656 C9.34818524,6.42848656 9.95280712,7.19679492 9.95280712,8.71437453 L9.95280712,12.0250328 L12.4468268,12.0250328 L12.4468268,8.71437453 C12.4468268,7.19679492 13.0507189,6.42848656 14.2559489,6.42848656 C15.3524418,6.42848656 15.8917484,7.07790288 15.8917484,8.35123299 L15.8917484,14.3992816 L18.4,14.3992816 L18.4,8.16732748 C18.4007286,6.89327899 18.0715982,5.88143952 17.4111483,5.13252746 C16.7277103,4.38433377 15.8340959,4.00035919 14.7255616,4.00035919 C13.4437049,4.00035919 12.4734637,4.48598467 11.8265146,5.45723562 L11.2010941,6.48847137 L10.5767681,5.45723562 C9.92981908,4.48634386 8.95957793,4 7.67553182,4 Z" id="Combined-Shape"></path>
        </g>
    </g>
</svg>